<?xml version="1.0" standalone="no"?>
<!DOCTYPE svg PUBLIC "-//W3C//DTD SVG 1.1//EN" "http://www.w3.org/Graphics/SVG/1.1/DTD/svg11.dtd" >
<svg>
<metadata>
Created by FontForge 20090622 at Sat Aug  8 23:24:51 2015
 By deploy user
&#194;&#169; 1992, 1994, 1997, 2000, 2004 Adobe Systems Incorporated. All rights reserved. Protected by U.S. Patents D454,582.
</metadata>
<defs>
<font id="MyriadPro-SemiboldCond" horiz-adv-x="300" >
  <font-face 
    font-family="Myriad Pro Light Cond"
    font-weight="600"
    font-stretch="condensed"
    units-per-em="1000"
    panose-1="2 11 6 6 3 4 3 2 2 4"
    ascent="750"
    descent="-250"
    x-height="487"
    cap-height="674"
    bbox="-145 -250 970 948"
    underline-thickness="50"
    underline-position="-50"
    unicode-range="U+0020-U+FB04"
  />
<missing-glyph horiz-adv-x="500" 
d="M0 0v700h500v-700h-500zM250 395l170 255h-340zM280 350l170 -255v510zM80 50h340l-170 255zM50 605v-510l170 255z" />
    <glyph glyph-name="f_f_j" unicode="ffj" horiz-adv-x="699" 
d="M617 678l-17 -83q-42 17 -87 17q-94 0 -94 -105v-20h232v-454q0 -77 -14 -120t-44 -69q-48 -42 -126 -44l-10 85q47 9 64 31q23 29 23 141v353h-125v-410h-107v410h-136v-410h-107v410h-64v77h64v12q0 102 63 153q43 35 105 35q35 0 70 -14l-28 -80q-18 9 -38 9
q-29 0 -45 -21q-20 -24 -20 -79v-15h136v28q0 31 9.5 60.5t30.5 59t62 47.5t97 18q66 0 106 -22z" />
    <glyph glyph-name="f_j" unicode="fj" horiz-adv-x="456" 
d="M176 0h-107v410h-64v77h64v28q0 31 9.5 60.5t30.5 59t62 47.5t97 18q66 0 106 -22l-17 -83q-43 17 -87 17q-94 0 -94 -105v-20h232v-454q0 -77 -14 -120t-44 -69q-48 -42 -126 -44l-10 85q47 9 64 31q23 29 23 141v353h-125v-410z" />
    <glyph glyph-name="f_f" unicode="ff" horiz-adv-x="495" 
d="M411 0h-107v410h-128v-410h-107v410h-64v77h64v17q0 91 46 140q40 43 114 43q27 0 54 -9l-18 -82q-18 6 -33 6q-56 0 -56 -97v-18h128v24q0 95 47 145q41 44 108 44q40 0 71 -11l-14 -84q-17 7 -41 7q-64 0 -64 -99v-26h86v-77h-86v-410z" />
    <glyph glyph-name="f_f_i" unicode="ffi" horiz-adv-x="700" 
d="M617 678l-17 -83q-42 17 -87 17q-94 0 -94 -105v-20h232v-487h-107v410h-125v-410h-107v410h-136v-410h-107v410h-64v77h64v12q0 102 63 153q43 35 105 35q35 0 70 -14l-28 -80q-18 9 -38 9q-29 0 -45 -21q-20 -24 -20 -79v-15h136v28q0 31 9.5 60.5t30.5 59t62 47.5
t97 18q66 0 106 -22z" />
    <glyph glyph-name="f_f_l" unicode="ffl" horiz-adv-x="700" 
d="M307 673l-28 -80q-18 9 -38 9q-29 0 -45 -21q-20 -24 -20 -79v-15h136v22q0 36 14.5 76.5t43.5 67.5q52 47 143 47q79 0 138 -26v-674h-107v607q-19 8 -47 8q-41 0 -59.5 -28.5t-18.5 -72.5v-27h77v-77h-77v-410h-107v410h-136v-410h-107v410h-64v77h64v12q0 102 63 153
q43 35 105 35q35 0 70 -14z" />
    <glyph glyph-name="f_i" unicode="fi" horiz-adv-x="457" 
d="M176 0h-107v410h-64v77h64v28q0 31 9.5 60.5t30.5 59t62 47.5t97 18q66 0 106 -22l-17 -83q-43 17 -87 17q-94 0 -94 -105v-20h232v-487h-107v410h-125v-410z" />
    <glyph glyph-name="f_l" unicode="fl" horiz-adv-x="457" 
d="M176 0h-107v410h-64v77h64v22q0 36 14.5 76.5t43.5 67.5q52 47 143 47q79 0 138 -26v-674h-107v607q-19 8 -47 8q-41 0 -59.5 -28.5t-18.5 -72.5v-27h77v-77h-77v-410z" />
    <glyph glyph-name=".notdef" horiz-adv-x="500" 
d="M0 0v700h500v-700h-500zM250 395l170 255h-340zM280 350l170 -255v510zM80 50h340l-170 255zM50 605v-510l170 255z" />
    <glyph glyph-name=".null" horiz-adv-x="0" 
 />
    <glyph glyph-name="nonmarkingreturn" horiz-adv-x="333" 
 />
    <glyph glyph-name="space" unicode=" " horiz-adv-x="158" 
 />
    <glyph glyph-name="exclam" unicode="!" horiz-adv-x="222" 
d="M156 205h-90l-13 469h116zM110 -8q-27 0 -45 19.5t-18 48.5q0 31 18.5 50.5t45.5 19.5q28 0 45.5 -19.5t17.5 -50.5q0 -30 -17.5 -49t-46.5 -19z" />
    <glyph glyph-name="quotedbl" unicode="&#x22;" horiz-adv-x="321" 
d="M41 684h89l-17 -248h-55zM192 684h89l-17 -248h-55z" />
    <glyph glyph-name="numbersign" unicode="#" horiz-adv-x="408" 
d="M159 262h74l16 132h-74zM125 0h-64l26 197h-69v65h77l17 132h-73v64h81l24 192h64l-25 -192h75l24 192h64l-25 -192h68v-64h-76l-16 -132h72v-64h-81l-25 -198h-64l25 198h-74z" />
    <glyph glyph-name="dollar" unicode="$" horiz-adv-x="408" 
d="M233 -84h-71v101q-61 1 -108 29l19 84q49 -30 102 -30q39 0 60.5 23t21.5 59q0 65 -81 115q-59 36 -89.5 74.5t-30.5 94.5q0 58 31.5 100.5t84.5 58.5v100h72v-91q57 -1 97 -26l-21 -81q-44 24 -86 24q-36 0 -57 -21.5t-21 -51.5q0 -33 18 -54t69 -52q114 -68 114 -179
q0 -67 -34 -111t-90 -58v-108z" />
    <glyph glyph-name="percent" unicode="%" horiz-adv-x="652" 
d="M153 658q61 0 92.5 -56.5t31.5 -140.5q0 -97 -37 -148t-89 -51q-59 0 -93 56t-34 140q0 87 35.5 143.5t93.5 56.5zM150 598q-51 0 -51 -138q-2 -138 52 -138q51 0 51 137q0 139 -52 139zM181 -11h-59l348 672h59zM504 390q61 0 92.5 -56.5t31.5 -140.5q0 -97 -37 -148
t-89 -51q-59 0 -93 56t-34 140q0 87 35.5 143.5t93.5 56.5zM501 330q-51 0 -51 -138q-1 -61 12 -99.5t40 -38.5q51 0 51 137q0 139 -52 139z" />
    <glyph glyph-name="ampersand" unicode="&#x26;" horiz-adv-x="512" 
d="M502 0h-117q-4 6 -16.5 22.5t-21.5 30.5q-58 -61 -145 -61q-83 0 -130.5 54.5t-47.5 133.5q0 116 104 188v3q-49 70 -49 148q0 68 42 115.5t112 47.5q58 0 96.5 -39.5t38.5 -105.5q0 -52 -25.5 -94.5t-90.5 -87.5v-5q83 -125 113 -164q29 59 34 174h92q-14 -152 -80 -240
q17 -24 91 -120zM221 73q51 0 82 44q-58 76 -132 188q-48 -48 -48 -113q0 -50 26.5 -84.5t71.5 -34.5zM227 608q-25 0 -39 -23.5t-14 -60.5q0 -57 35 -111q68 52 68 119q0 76 -50 76z" />
    <glyph glyph-name="quotesingle" unicode="'" horiz-adv-x="170" 
d="M41 684h89l-17 -248h-55z" />
    <glyph glyph-name="parenleft" unicode="(" horiz-adv-x="256" 
d="M156 692h79q-105 -166 -105 -407q0 -236 105 -405h-79q-112 156 -112 405q4 255 112 407z" />
    <glyph glyph-name="parenright" unicode=")" horiz-adv-x="256" 
d="M100 -120h-79q105 168 105 408q0 236 -105 404h79q112 -153 112 -405q-4 -253 -112 -407z" />
    <glyph glyph-name="asterisk" unicode="*" horiz-adv-x="379" 
d="M245 682l69 -39l-93 -118l1 -3l138 22v-77l-138 22l-2 -3l95 -114l-72 -40l-55 139l-2 -3l-59 -138l-64 41l93 119l-2 1l-135 -24v77l134 -21l2 3l-91 115l68 39l56 -135h3z" />
    <glyph glyph-name="plus" unicode="+" horiz-adv-x="596" 
d="M262 532h72v-230h222v-70h-222v-232h-72v232h-222v70h222v230z" />
    <glyph glyph-name="comma" unicode="," horiz-adv-x="216" 
d="M84 -117l-70 -8q45 129 63 251l112 10q-51 -164 -105 -253z" />
    <glyph glyph-name="hyphen" unicode="-" horiz-adv-x="268" 
d="M30 308h208v-78h-208v78z" />
    <glyph glyph-name="period" unicode="." horiz-adv-x="216" 
d="M113 -8q-27 0 -45.5 20.5t-18.5 53.5q0 32 19 53t46 21q28 0 46.5 -20t18.5 -54t-18 -54t-48 -20z" />
    <glyph glyph-name="slash" unicode="/" horiz-adv-x="280" 
d="M64 -40h-73l226 722h73z" />
    <glyph glyph-name="zero" unicode="0" horiz-adv-x="408" 
d="M209 658q91 0 132.5 -91.5t41.5 -239.5q0 -168 -50 -251.5t-131 -83.5q-88 0 -132.5 91t-44.5 240q0 155 47.5 245t136.5 90zM206 567q-76 0 -74 -242q-2 -242 75 -242q69 0 69 242t-70 242z" />
    <glyph glyph-name="one" unicode="1" horiz-adv-x="408" 
d="M183 0v547h-2l-109 -59l-19 83l143 79h92v-650h-105z" />
    <glyph glyph-name="two" unicode="2" horiz-adv-x="408" 
d="M363 0h-335v71l60 79q54 71 80.5 109.5t53 98t26.5 109.5q0 47 -22.5 74t-64.5 27q-44 0 -96 -34l-21 82q57 42 136 42q89 0 131 -52t42 -132q0 -82 -40.5 -157.5t-114.5 -168.5l-41 -52v-2h206v-94z" />
    <glyph glyph-name="three" unicode="3" horiz-adv-x="408" 
d="M26 21l18 85q43 -26 95 -26q49 0 77 29.5t28 80.5q0 56 -35 86.5t-91 30.5h-18v79h13q43 0 78 24.5t35 73.5q0 41 -21.5 63.5t-58.5 22.5q-40 0 -81 -28l-18 80q49 36 126 36q76 0 118 -44t42 -109q0 -50 -25 -89t-70 -60v-2q49 -15 81 -58t32 -110q0 -81 -55 -137.5
t-149 -56.5q-72 0 -121 29z" />
    <glyph glyph-name="four" unicode="4" horiz-adv-x="408" 
d="M329 0h-95v166h-220v73l212 411h103v-398h67v-86h-67v-166zM108 252h126v156q0 40 6 116h-3q-20 -47 -50 -111l-79 -159v-2z" />
    <glyph glyph-name="five" unicode="5" horiz-adv-x="408" 
d="M350 650v-93h-173l-20 -142q7 1 22 1q27 0 62.5 -12.5t60.5 -36.5q55 -53 55 -149q0 -98 -58.5 -162t-154.5 -64q-73 0 -117 27l19 85q44 -24 92 -24q50 0 82 34t32 94q0 67 -39.5 98.5t-104.5 31.5q-28 0 -48 -3l38 315h252z" />
    <glyph glyph-name="six" unicode="6" horiz-adv-x="408" 
d="M338 658v-88q-22 0 -50 -6q-124 -30 -155 -201h3q42 56 105 56q64 0 104 -54.5t40 -145.5q0 -96 -45.5 -161.5t-128.5 -65.5q-87 0 -136 73.5t-49 193.5q0 183 96 298q61 75 159 94q19 4 57 7zM211 71q32 0 50 37.5t18 107.5q-1 58 -20 91.5t-53 33.5q-45 0 -67 -55
q-6 -14 -6 -49q0 -79 21.5 -122.5t56.5 -43.5z" />
    <glyph glyph-name="seven" unicode="7" horiz-adv-x="408" 
d="M38 650h336v-68l-207 -582h-104l202 554v2h-227v94z" />
    <glyph glyph-name="eight" unicode="8" horiz-adv-x="408" 
d="M126 343l-1 2q-40 27 -61 66t-21 80q0 76 49 121.5t121 45.5q69 0 112 -45t43 -112q0 -92 -87 -148v-3q102 -61 102 -173q0 -83 -51.5 -134t-130.5 -51q-80 0 -128.5 49.5t-48.5 122.5q0 112 102 179zM205 66q34 0 54 28t20 78q0 83 -82 134q-69 -44 -69 -128
q0 -50 20.5 -81t56.5 -31zM207 584q-29 0 -46 -25.5t-17 -63.5q0 -68 71 -110q25 16 39.5 44.5t14.5 60.5q0 42 -15.5 68t-46.5 26z" />
    <glyph glyph-name="nine" unicode="9" horiz-adv-x="408" 
d="M71 -8v90q30 0 54 5q48 12 83 45q52 54 68 155h-2q-40 -47 -99 -47q-64 0 -106 53.5t-42 140.5q0 91 49 157.5t131 66.5q85 0 130 -73t45 -191q0 -192 -97 -308q-60 -73 -157 -90q-20 -4 -57 -4zM201 579q-29 0 -49.5 -35t-19.5 -101q1 -59 20 -93t53 -34q20 0 38 12.5
t26 31.5q6 14 6 57q0 79 -20 120.5t-54 41.5z" />
    <glyph glyph-name="colon" unicode=":" horiz-adv-x="216" 
d="M113 338q-26 0 -44 20t-18 50q0 31 18.5 51.5t44.5 20.5q28 0 45.5 -20t17.5 -52q0 -31 -17 -50.5t-47 -19.5zM113 -8q-27 0 -44.5 20t-17.5 51q0 30 18.5 50.5t44.5 20.5q28 0 45.5 -19.5t17.5 -51.5t-17 -51.5t-47 -19.5z" />
    <glyph glyph-name="semicolon" unicode=";" horiz-adv-x="216" 
d="M81 -117l-67 -8q45 127 63 251l109 10q-51 -164 -105 -253zM120 338q-26 0 -44 20t-18 50q0 31 18.5 51.5t44.5 20.5q28 0 45.5 -20t17.5 -52q0 -31 -17 -50.5t-47 -19.5z" />
    <glyph glyph-name="less" unicode="&#x3c;" horiz-adv-x="596" 
d="M61 239v55l473 238v-86l-368 -180v-2l368 -179v-85z" />
    <glyph glyph-name="equal" unicode="=" horiz-adv-x="596" 
d="M556 327h-516v70h516v-70zM556 139h-516v70h516v-70z" />
    <glyph glyph-name="greater" unicode="&#x3e;" horiz-adv-x="596" 
d="M535 303v-74l-473 -229v84l391 181v2l-391 181v84z" />
    <glyph glyph-name="question" unicode="?" horiz-adv-x="323" 
d="M188 199h-92l-2 16q-11 84 48 180q27 42 38.5 69.5t11.5 58.5q0 34 -19.5 52.5t-51.5 18.5q-41 0 -66 -18l-19 82q41 28 109 28q81 0 118.5 -43.5t37.5 -103.5q0 -30 -11.5 -63.5t-22.5 -52.5t-33 -53l-7 -11q-44 -71 -40 -140zM140 -8q-27 0 -45 19.5t-18 49.5
q0 31 18.5 50.5t44.5 20.5q28 0 46 -19.5t18 -51.5q0 -31 -17.5 -50t-46.5 -19z" />
    <glyph glyph-name="at" unicode="@" horiz-adv-x="607" 
d="M348 233l25 137q-9 5 -27 5q-45 0 -80.5 -58t-35.5 -133q0 -59 38 -59q25 0 48.5 33.5t31.5 74.5zM418 -22l14 -39q-66 -39 -154 -39q-104 0 -174.5 77t-70.5 218q0 105 40 196t114.5 147t165.5 56q107 0 165.5 -71.5t58.5 -179.5q0 -132 -42.5 -205t-113.5 -73
q-70 0 -67 83h-3q-40 -83 -110 -83q-38 0 -60.5 30.5t-22.5 84.5q0 61 23.5 117t73 93.5t113.5 37.5q50 0 83 -18l-37 -192q-19 -103 25 -103q35 0 61.5 58t26.5 154q0 104 -45.5 164.5t-137.5 60.5q-105 0 -183 -101.5t-78 -256.5q0 -122 56.5 -186t151.5 -64q67 0 127 34z
" />
    <glyph glyph-name="A" unicode="A" horiz-adv-x="448" 
d="M287 175h-133l-37 -175h-103l150 674h124l139 -674h-104zM166 259h110l-28 155q-7 37 -24 153h-3l-11 -67.5t-15 -86.5z" />
    <glyph glyph-name="B" unicode="B" horiz-adv-x="453" 
d="M59 2v662q52 13 133 13q108 0 160 -47q48 -42 48 -120q0 -48 -25.5 -87.5t-73.5 -60.5v-3q57 -16 89 -60.5t32 -105.5q0 -81 -49 -133q-58 -65 -202 -65q-67 0 -112 7zM165 592v-199h31q42 0 70.5 30t28.5 75t-22.5 71.5t-69.5 26.5q-26 0 -38 -4zM165 313v-232
q14 -3 34 -3q51 0 82 30t31 86t-33.5 87.5t-82.5 31.5h-31z" />
    <glyph glyph-name="C" unicode="C" horiz-adv-x="385" 
d="M356 101l13 -90q-34 -17 -99 -17q-115 0 -178.5 88.5t-63.5 245.5q0 93 23 163.5t61 110t81.5 59t91.5 19.5q60 0 88 -17l-20 -91q-28 14 -64 14q-62 0 -105 -61.5t-43 -189.5t41.5 -187t107.5 -59q39 0 66 12z" />
    <glyph glyph-name="D" unicode="D" horiz-adv-x="470" 
d="M59 2v662q50 13 120 13q113 0 174 -56q89 -79 89 -272q0 -201 -87 -286q-67 -68 -198 -68q-56 0 -98 7zM165 588v-503q9 -2 26 -2q62 0 101.5 62t39.5 205q0 241 -136 241q-18 0 -31 -3z" />
    <glyph glyph-name="E" unicode="E" horiz-adv-x="376" 
d="M326 396v-89h-160v-214h182v-93h-289v674h277v-93h-170v-185h160z" />
    <glyph glyph-name="F" unicode="F" horiz-adv-x="371" 
d="M59 0v674h277v-93h-170v-201h159v-89h-159v-291h-107z" />
    <glyph glyph-name="G" unicode="G" horiz-adv-x="456" 
d="M414 366v-348q-58 -24 -131 -24q-108 0 -171 66q-86 89 -84 270q1 91 24.5 161t63 110t86 59.5t98.5 19.5q66 0 104 -20l-21 -92q-29 16 -77 16q-73 0 -120 -61t-47 -194q0 -127 40.5 -185.5t100.5 -58.5q25 0 35 5v188h-72v88h171z" />
    <glyph glyph-name="H" unicode="H" horiz-adv-x="492" 
d="M59 674h107v-279h160v279h107v-674h-107v297h-160v-297h-107v674z" />
    <glyph glyph-name="I" unicode="I" horiz-adv-x="226" 
d="M59 674h107v-674h-107v674z" />
    <glyph glyph-name="J" unicode="J" horiz-adv-x="282" 
d="M124 200v474h107v-470q0 -121 -46.5 -166.5t-128.5 -45.5q-37 0 -59 8l9 90q15 -4 40 -4q39 0 58.5 23.5t19.5 90.5z" />
    <glyph glyph-name="K" unicode="K" horiz-adv-x="434" 
d="M59 0v674h106v-311h3l36 85l106 226h118l-157 -291l160 -383h-116l-116 300l-34 -60v-240h-106z" />
    <glyph glyph-name="L" unicode="L" horiz-adv-x="364" 
d="M59 0v674h107v-584h180v-90h-287z" />
    <glyph glyph-name="M" unicode="M" horiz-adv-x="620" 
d="M482 0l-13 260q-8 155 -7 242h-3q-18 -102 -47 -220l-70 -274h-73l-66 267q-30 112 -48 227h-3q-1 -88 -9 -245l-12 -257h-93l45 674h113l65 -273q38 -156 51 -234h2q14 89 47 234l63 273h115l40 -674h-97z" />
    <glyph glyph-name="N" unicode="N" horiz-adv-x="493" 
d="M153 0h-94v674h98l114 -288q57 -145 79 -213h2q-12 172 -12 311v190h94v-674h-98l-115 287q-50 123 -74 214h-2q8 -125 8 -313v-188z" />
    <glyph glyph-name="O" unicode="O" horiz-adv-x="465" 
d="M240 682q68 0 113.5 -47.5t64.5 -120.5t19 -168q0 -181 -56.5 -267.5t-151.5 -86.5q-98 0 -149.5 94t-51.5 252q0 155 56 249.5t156 94.5zM234 589q-48 0 -71.5 -69.5t-23.5 -182.5q0 -116 23.5 -184t72.5 -68q91 0 91 256q0 67 -7.5 119.5t-29 90.5t-55.5 38z" />
    <glyph glyph-name="P" unicode="P" horiz-adv-x="431" 
d="M59 0v664q55 13 125 13q116 0 168 -51q54 -51 54 -144q0 -92 -50 -150q-28 -34 -72 -52t-89 -18q-20 0 -30 1v-263h-106zM165 585v-235q8 -1 26 -1q52 0 80.5 33.5t28.5 91.5q0 52 -23.5 84t-74.5 32q-22 0 -37 -5z" />
    <glyph glyph-name="Q" unicode="Q" horiz-adv-x="465" 
d="M461 -19l-38 -82q-76 30 -165 81q-22 12 -28 12q-94 0 -148 89.5t-54 256.5q0 154 56 249t157 95q68 0 113 -47.5t64 -120.5t19 -169q0 -257 -107 -311v-4q16 -7 131 -49zM236 85q47 0 68.5 71.5t21.5 184.5q0 248 -91 248q-49 0 -73 -72.5t-23 -177.5q-1 -112 22.5 -183
t74.5 -71z" />
    <glyph glyph-name="R" unicode="R" horiz-adv-x="443" 
d="M59 0v664q53 13 128 13q115 0 167 -49q51 -48 51 -137q0 -59 -27.5 -103t-78.5 -67v-2q35 -12 55 -46.5t31 -95.5q24 -142 41 -177h-111q-17 40 -34 164q-10 65 -30.5 90.5t-61.5 25.5h-24v-280h-106zM165 589v-227h28q47 0 75.5 33t28.5 86q0 111 -96 112q-24 0 -36 -4z
" />
    <glyph glyph-name="S" unicode="S" horiz-adv-x="379" 
d="M26 22l18 92q45 -27 104 -27q49 0 75.5 25.5t26.5 68.5q0 38 -21 64.5t-67 58.5q-59 37 -93 86t-34 102q0 82 52.5 135t144.5 53q61 0 100 -24l-19 -92q-36 23 -83 23q-43 0 -66.5 -24t-23.5 -58q0 -37 20.5 -61t75.5 -59q119 -78 119 -193q0 -90 -57.5 -144t-149.5 -54
q-80 0 -122 28z" />
    <glyph glyph-name="T" unicode="T" horiz-adv-x="376" 
d="M134 0v576h-121v98h349v-98h-121v-576h-107z" />
    <glyph glyph-name="U" unicode="U" horiz-adv-x="481" 
d="M56 674h107v-444q0 -144 76 -144q78 0 78 144v444h107v-426q0 -128 -48 -192t-137 -64q-183 0 -183 251v431z" />
    <glyph glyph-name="V" unicode="V" horiz-adv-x="438" 
d="M277 0h-117l-152 674h117l56 -302q33 -188 40 -245h3q10 89 38 247l54 300h116z" />
    <glyph glyph-name="W" unicode="W" horiz-adv-x="668" 
d="M241 0h-103l-122 674h111l43 -294q14 -94 28 -240h3q7 62 39 241l55 293h88l52 -289q26 -146 36 -245h2q6 59 30 243l43 291h105l-124 -674h-109l-51 269q-18 98 -32 221h-2q-20 -144 -37 -223z" />
    <glyph glyph-name="X" unicode="X" horiz-adv-x="400" 
d="M396 0h-111l-51 141q-21 61 -38 119h-3l-35 -121l-46 -139h-107l131 344l-126 330h111l48 -139q6 -16 35 -108h2l32 110l44 137h107l-129 -332z" />
    <glyph glyph-name="Y" unicode="Y" horiz-adv-x="398" 
d="M251 0h-107v270l-148 404h113l52 -164q24 -73 42 -148h2q15 66 40 151l47 161h111l-152 -400v-274z" />
    <glyph glyph-name="Z" unicode="Z" horiz-adv-x="374" 
d="M15 0v63l221 516v2h-201v93h322v-77l-215 -501v-3h214v-93h-341z" />
    <glyph glyph-name="bracketleft" unicode="[" horiz-adv-x="256" 
d="M229 -112h-168v798h168v-70h-86v-658h86v-70z" />
    <glyph glyph-name="backslash" unicode="\" horiz-adv-x="246" 
d="M255 -40h-73l-191 722h73z" />
    <glyph glyph-name="bracketright" unicode="]" horiz-adv-x="256" 
d="M27 686h168v-798h-168v70h85v658h-85v70z" />
    <glyph glyph-name="asciicircum" unicode="^" horiz-adv-x="596" 
d="M543 183h-84l-159 373h-5l-159 -373h-83l209 467h72z" />
    <glyph glyph-name="underscore" unicode="_" horiz-adv-x="500" 
d="M0 -75h500v-50h-500v50z" />
    <glyph glyph-name="grave" unicode="`" 
d="M33 686h99l72 -138h-68z" />
    <glyph glyph-name="a" unicode="a" horiz-adv-x="396" 
d="M346 305v-194q0 -73 6 -111h-96l-6 50h-2q-38 -58 -103 -58q-53 0 -88 40t-35 104q0 88 62.5 133t153.5 46v13q0 85 -73 85q-47 0 -91 -26l-20 72q56 35 134 35q158 0 158 -189zM241 153v91q-117 -3 -117 -97q0 -38 16 -56.5t37 -18.5t38 14.5t23 41.5q3 12 3 25z" />
    <glyph glyph-name="b" unicode="b" horiz-adv-x="425" 
d="M49 131v561h106v-259h2q36 61 103 61q63 0 99 -66t36 -175q0 -124 -44 -192.5t-110 -68.5q-61 0 -96 68h-3l-6 -60h-91q4 72 4 131zM155 309v-136q0 -15 4 -31q17 -62 58 -62q72 0 72 165q0 72 -18 115.5t-55 43.5q-20 0 -36 -19.5t-21 -44.5q-4 -18 -4 -31z" />
    <glyph glyph-name="c" unicode="c" horiz-adv-x="313" 
d="M294 93l11 -83q-30 -16 -82 -16q-89 0 -140.5 64t-51.5 181q0 111 57 182.5t152 71.5q44 0 70 -14l-16 -85q-24 11 -52 11q-50 0 -77.5 -46.5t-27.5 -117.5q0 -74 28 -116.5t77 -42.5q31 0 52 11z" />
    <glyph glyph-name="d" unicode="d" horiz-adv-x="425" 
d="M270 692h106v-561q0 -57 4 -131h-91l-7 58h-3q-13 -28 -40 -47t-61 -19q-69 0 -108 68.5t-39 181.5q0 121 44 186.5t108 65.5q60 0 85 -53h2v251zM270 171v129q0 20 -2 30q-3 31 -19 52.5t-39 21.5q-38 0 -55.5 -46t-17.5 -118q0 -74 19 -117t52 -43q42 0 58 60
q4 12 4 31z" />
    <glyph glyph-name="e" unicode="e" horiz-adv-x="394" 
d="M363 215h-229q1 -139 109 -139q47 0 87 17l16 -76q-51 -23 -123 -23q-93 0 -143 63.5t-50 178.5q0 118 51 188t131 70q74 0 114 -60.5t40 -161.5q0 -38 -3 -57zM134 291h133q1 57 -16.5 90t-46.5 33q-33 0 -50.5 -37t-19.5 -86z" />
    <glyph glyph-name="f" unicode="f" horiz-adv-x="260" 
d="M176 0h-107v410h-64v77h64v24q0 95 47 145q41 44 108 44q40 0 71 -11l-14 -84q-17 7 -41 7q-64 0 -64 -99v-26h86v-77h-86v-410z" />
    <glyph glyph-name="g" unicode="g" horiz-adv-x="425" 
d="M377 334v-276q0 -83 -13 -129.5t-41 -75.5q-51 -53 -145 -53q-66 0 -116 24l22 82q42 -21 92 -21q95 0 95 132v38h-2q-27 -53 -90 -53q-71 0 -109.5 68t-38.5 170q0 120 46.5 187t112.5 67q59 0 90 -59h2l6 52h94q-5 -67 -5 -153zM271 178v135q0 19 -5 36q-15 55 -54 55
q-37 0 -56 -44.5t-19 -116.5q0 -76 20.5 -116t52.5 -40q40 0 55 50q6 16 6 41z" />
    <glyph glyph-name="h" unicode="h" horiz-adv-x="434" 
d="M49 0v692h107v-257h2q16 25 42 41q29 18 65 18q58 0 89 -47.5t31 -139.5v-307h-107v303q0 101 -56 101q-46 0 -62 -60q-4 -18 -4 -36v-308h-107z" />
    <glyph glyph-name="i" unicode="i" horiz-adv-x="205" 
d="M156 0h-107v487h107v-487zM101 676q26 0 42 -17t16 -45t-16.5 -45t-42.5 -17q-24 0 -40 17.5t-16 44.5q0 28 16.5 45t40.5 17z" />
    <glyph glyph-name="j" unicode="j" horiz-adv-x="208" 
d="M-24 -200l-10 85q47 8 64 31q23 29 23 141v430h107v-454q0 -77 -14 -120t-44 -69q-48 -42 -126 -44zM107 676q25 0 41 -17t16 -45t-16.5 -45t-42.5 -17q-24 0 -40 17.5t-16 44.5q0 28 16.5 45t41.5 17z" />
    <glyph glyph-name="k" unicode="k" horiz-adv-x="386" 
d="M155 692v-424h2q9 24 25 62l78 157h115l-122 -204l131 -283h-119l-85 213l-25 -43v-170h-106v692h106z" />
    <glyph glyph-name="l" unicode="l" horiz-adv-x="210" 
d="M49 0v692h107v-692h-107z" />
    <glyph glyph-name="m" unicode="m" horiz-adv-x="653" 
d="M49 0v350q0 51 -4 137h93l5 -59h2q41 66 114 66q77 0 104 -70h2q18 32 48 52q30 18 68 18q122 0 122 -180v-314h-106v294q0 52 -11.5 81.5t-43.5 29.5q-45 0 -59 -57q-4 -12 -4 -38v-310h-106v311q0 94 -54 94q-20 0 -36.5 -15.5t-23.5 -43.5q-4 -22 -4 -39v-307h-106z
" />
    <glyph glyph-name="n" unicode="n" horiz-adv-x="434" 
d="M49 0v350q0 51 -4 137h93l5 -58h2q38 65 115 65q61 0 93 -45.5t32 -130.5v-318h-107v308q0 96 -57 96q-20 0 -36.5 -15.5t-23.5 -43.5q-5 -18 -5 -45v-300h-107z" />
    <glyph glyph-name="o" unicode="o" horiz-adv-x="410" 
d="M208 494q78 0 124.5 -66t46.5 -184q0 -70 -16.5 -121.5t-43.5 -78.5t-56 -39.5t-59 -12.5q-79 0 -126 65t-47 185q0 124 51 188t126 64zM206 412q-38 0 -53.5 -50.5t-15.5 -117.5q0 -170 71 -170q65 0 65 170q0 67 -15 117.5t-52 50.5z" />
    <glyph glyph-name="p" unicode="p" horiz-adv-x="425" 
d="M49 -192v526q0 71 -4 153h93l6 -60h2q34 67 102 67q71 0 108.5 -68.5t37.5 -181.5q0 -125 -44.5 -188.5t-109.5 -63.5q-54 0 -83 51h-2v-235h-106zM155 306v-128q0 -23 5 -41q16 -57 55 -57q73 0 73 162q0 75 -18 118.5t-54 43.5q-20 0 -36 -18.5t-21 -43.5
q-4 -15 -4 -36z" />
    <glyph glyph-name="q" unicode="q" horiz-adv-x="425" 
d="M270 -192v238h-3q-31 -54 -93 -54q-64 0 -103.5 67.5t-39.5 175.5q0 121 45 190t114 69q61 0 90 -60l2 -2l5 55h93q-4 -80 -4 -153v-526h-106zM270 176v131q0 17 -3 30q-4 29 -20.5 48t-36.5 19q-37 0 -55 -44t-18 -118t18.5 -118t53.5 -44q41 0 56 60q5 14 5 36z" />
    <glyph glyph-name="r" unicode="r" horiz-adv-x="273" 
d="M49 0v350q0 55 -4 137h93l6 -74h3q14 37 41.5 59t57.5 22q9 0 23 -2v-106q-7 1 -23 1q-29 0 -53 -22.5t-33 -61.5q-4 -22 -4 -46v-257h-107z" />
    <glyph glyph-name="s" unicode="s" horiz-adv-x="308" 
d="M20 22l21 79q39 -26 84 -26q29 0 45 14.5t16 41.5q0 23 -13 40t-46 38q-99 60 -99 140q0 63 41.5 104t107.5 41q51 0 93 -24l-21 -79q-33 21 -67 21q-26 0 -40.5 -14.5t-14.5 -35.5q0 -20 12 -35t46 -37q100 -58 100 -147q0 -72 -44.5 -110.5t-116.5 -38.5q-69 0 -104 28
z" />
    <glyph glyph-name="t" unicode="t" horiz-adv-x="286" 
d="M70 571l107 37v-121h94v-77h-94v-253q0 -75 50 -75q17 0 33 3l2 -83q-26 -8 -70 -8q-56 0 -86 30q-36 36 -36 132v254h-58v77h58v84z" />
    <glyph glyph-name="u" unicode="u" horiz-adv-x="428" 
d="M377 487v-345q0 -60 4 -142h-93l-6 51h-2q-39 -59 -109 -59q-65 0 -95 48.5t-30 145.5v301h107v-288q0 -118 56 -118q22 0 36 15t19 33q6 16 6 42v316h107z" />
    <glyph glyph-name="v" unicode="v" horiz-adv-x="374" 
d="M8 487h113l48 -243q9 -47 21 -128h2q5 40 20 128l47 243h106l-129 -487h-97z" />
    <glyph glyph-name="w" unicode="w" horiz-adv-x="594" 
d="M8 487h114l35 -223q16 -106 21 -151h3q11 67 29 149l49 225h82l46 -219q17 -76 29 -155h2q6 56 22 153l37 221h106l-124 -487h-90l-45 199q-16 66 -26 150h-2q-8 -61 -29 -151l-48 -198h-92z" />
    <glyph glyph-name="x" unicode="x" horiz-adv-x="370" 
d="M10 487h115l37 -95q6 -16 16 -46.5l12 -36.5h2q10 35 27 83l35 95h108l-113 -240l114 -247h-116l-39 100q-1 3 -28 78h-2q-8 -26 -26 -78l-37 -100h-107l112 243z" />
    <glyph glyph-name="y" unicode="y" horiz-adv-x="370" 
d="M9 487h114l55 -265l6 -30.5t5.5 -33t4.5 -26.5h2q10 53 16 89l48 266h105l-90 -348q-51 -199 -114 -277q-45 -55 -100 -76l-35 92q35 16 66 50q27 28 43 68q6 15 6 23q0 9 -3 18z" />
    <glyph glyph-name="z" unicode="z" horiz-adv-x="334" 
d="M17 0v66l135 255l20.5 36.5t21.5 39.5v2h-161v88h278v-72l-132 -248q-4 -6 -20.5 -35.5t-22.5 -41.5v-2h177v-88h-296z" />
    <glyph glyph-name="braceleft" unicode="{" horiz-adv-x="256" 
d="M18 255v66q66 0 68 63q0 35 -7 80q-6 56 -6 85q0 68 37.5 102.5t102.5 34.5h16v-68h-15q-56 -6 -56 -71q0 -38 6 -71q4 -46 4 -66q1 -98 -73 -120v-2q73 -22 73 -122q0 -30 -5 -68t-5 -69q0 -67 57 -73h14v-68h-17q-62 0 -100.5 32.5t-38.5 104.5q0 36 7 85q6 54 6 82
q0 26 -15.5 44.5t-52.5 18.5z" />
    <glyph glyph-name="bar" unicode="|" horiz-adv-x="210" 
d="M64 750h82v-1000h-82v1000z" />
    <glyph glyph-name="braceright" unicode="}" horiz-adv-x="256" 
d="M238 321v-66q-66 0 -68 -63q0 -28 6 -82q6 -56 6 -85q0 -72 -38.5 -104.5t-100.5 -32.5h-17v68h14q57 6 57 73q0 23 -4 69q-5 38 -5 68q-1 100 73 122v2q-73 22 -73 120q0 28 5 66q4 44 4 71q0 65 -56 71h-15v68h16q65 0 102.5 -34.5t37.5 -102.5q0 -29 -6 -85
q-6 -52 -6 -80q0 -63 68 -63z" />
    <glyph glyph-name="asciitilde" unicode="~" horiz-adv-x="596" 
d="M134 210h-70q-1 77 34.5 115t89.5 38q48 0 131 -47q71 -40 98 -40q45 0 45 80h70q4 -74 -26.5 -114t-86.5 -40q-54 0 -131 43q-76 45 -106 45q-48 0 -48 -80z" />
    <glyph glyph-name="uni00A0" unicode="&#xa0;" horiz-adv-x="158" 
 />
    <glyph glyph-name="exclamdown" unicode="&#xa1;" horiz-adv-x="222" 
d="M169 -191h-116l13 469h90zM112 494q27 0 44.5 -19.5t17.5 -50.5q0 -30 -16.5 -49t-45.5 -19q-28 0 -46 19.5t-18 48.5q0 31 18.5 50.5t45.5 19.5z" />
    <glyph glyph-name="cent" unicode="&#xa2;" horiz-adv-x="408" 
d="M277 -7h-71v100q-62 13 -99 60q-49 59 -49 173q0 88 40.5 151t108.5 79v98h71v-92q44 -3 68 -17l-15 -83q-30 17 -72 17q-46 0 -70.5 -46t-24.5 -111q0 -69 27.5 -110t73.5 -41q40 0 75 16l11 -80q-30 -16 -74 -17v-97z" />
    <glyph glyph-name="sterling" unicode="&#xa3;" horiz-adv-x="408" 
d="M370 0h-336v67q38 15 64.5 62.5t26.5 95.5q0 40 -4 67h-81v73h69q-12 56 -12 105q0 83 47.5 135.5t124.5 52.5q51 0 80 -19l-18 -85q-26 14 -58 14q-36 0 -55 -26t-19 -66q0 -49 12 -111h104v-73h-94q7 -61 -7 -105q-15 -56 -55 -95v-2h211v-90z" />
    <glyph glyph-name="currency" unicode="&#xa4;" horiz-adv-x="408" 
d="M206 532q56 0 96 -38l63 74l48 -49l-76 -75q23 -49 23 -115q0 -68 -23 -117l75 -77l-47 -49l-65 75q-42 -39 -98 -39q-57 0 -97 38l-61 -74l-48 49l72 73q-24 49 -24 116q0 70 27 120l-76 74l49 51l63 -77q40 40 99 40zM202 456q-33 0 -49.5 -35.5t-16.5 -95.5
q0 -55 18 -91t48 -36q34 -1 50 34t16 95q0 56 -16 92.5t-50 36.5z" />
    <glyph glyph-name="yen" unicode="&#xa5;" horiz-adv-x="408" 
d="M251 0h-98v175h-128v57h128v66h-128v57h104l-119 295h106l60 -186q19 -59 31 -105h2q18 73 29 106l61 185h100l-124 -295h105v-57h-129v-66h129v-57h-129v-175z" />
    <glyph glyph-name="brokenbar" unicode="&#xa6;" horiz-adv-x="210" 
d="M64 174h82v-350h-82v350zM64 674h82v-350h-82v350z" />
    <glyph glyph-name="section" unicode="&#xa7;" horiz-adv-x="417" 
d="M111 350q0 -43 76 -78q59 -26 89 -49q31 21 31 66q0 50 -63 79q-71 31 -95 48q-38 -23 -38 -66zM343 657l-20 -69q-38 23 -90 23q-32 0 -54 -15t-22 -43q0 -30 19.5 -46.5t65.5 -35.5q70 -29 106.5 -64t36.5 -98q0 -70 -58 -125q33 -30 33 -83q0 -70 -48.5 -110.5
t-122.5 -40.5q-84 0 -132 33l21 71q50 -33 112 -33q36 0 58.5 16.5t22.5 47.5q0 28 -22 47.5t-77 45.5q-69 32 -104.5 67t-35.5 91q0 67 70 119q-34 34 -34 82q0 66 48.5 105.5t121.5 39.5q64 0 105 -25z" />
    <glyph glyph-name="dieresis" unicode="&#xa8;" 
d="M65 564q-21 0 -36.5 15.5t-15.5 39.5t15.5 39.5t37.5 15.5t37 -15.5t15 -39.5t-15 -39.5t-38 -15.5zM233 564q-21 0 -36.5 15.5t-15.5 39.5t15.5 39.5t37.5 15.5t37 -15.5t15 -39.5t-15 -39.5t-38 -15.5z" />
    <glyph glyph-name="copyright" unicode="&#xa9;" horiz-adv-x="677" 
d="M341 648q127 0 215.5 -90t88.5 -218q0 -129 -88.5 -219.5t-216.5 -90.5q-129 0 -218.5 90.5t-89.5 219.5q0 128 90 218t219 90zM338 599q-104 0 -176 -76t-72 -185q0 -108 72 -183t177 -76q104 -1 176 75t72 185q0 108 -72 184t-177 76zM474 495l-14 -48q-46 21 -95 21
q-62 0 -97 -36t-35 -96q0 -58 35 -94.5t95 -36.5q56 0 98 22l13 -45q-48 -29 -121 -29q-84 0 -133 51.5t-49 129.5q0 84 55.5 135t140.5 51q33 0 64 -8t43 -17z" />
    <glyph glyph-name="ordfeminine" unicode="&#xaa;" horiz-adv-x="289" 
d="M257 263h-61l-4 34h-2q-28 -39 -75 -39q-37 0 -61 26t-24 69q0 58 44 87t110 30v9q0 22 -14 36t-42 14q-35 0 -63 -19l-14 52q39 26 90 26q112 0 112 -129v-121q0 -44 4 -75zM185 360v60q-20 0 -37.5 -3.5t-34 -18t-16.5 -38.5q0 -21 12 -33t29 -12q27 0 40 25q7 10 7 20
z" />
    <glyph glyph-name="guillemotleft" unicode="&#xab;" horiz-adv-x="370" 
d="M204 432l-106 -180l106 -180h-80l-104 180l104 180h80zM357 432l-106 -180l106 -180h-80l-104 180l104 180h80z" />
    <glyph glyph-name="logicalnot" unicode="&#xac;" horiz-adv-x="596" 
d="M40 411h516v-299h-71v229h-445v70z" />
    <glyph glyph-name="uni00AD" unicode="&#xad;" horiz-adv-x="291" 
d="M30 308h208v-78h-208v78z" />
    <glyph glyph-name="registered" unicode="&#xae;" horiz-adv-x="373" 
d="M165 505v-58h-38v151q33 6 58 6q35 0 53 -13q16 -11 16 -32q0 -25 -33 -35v-2q22 -7 29 -38q5 -27 10 -37h-41q-6 7 -11 35q-4 23 -28 23h-15zM166 573v-39h15q30 0 30 20t-28 20q-5 0 -10 -0.5t-7 -0.5zM188 684q65 0 111 -46t46 -112q0 -67 -46 -113.5t-112 -46.5
t-112.5 46.5t-46.5 113.5q0 66 46.5 112t113.5 46zM185 648q-48 0 -81 -35.5t-33 -86.5q0 -52 33 -87.5t83 -35.5q49 -1 82 35t33 88q0 51 -33.5 86.5t-83.5 35.5z" />
    <glyph glyph-name="macron" unicode="&#xaf;" 
d="M48 645h205v-64h-205v64z" />
    <glyph glyph-name="degree" unicode="&#xb0;" horiz-adv-x="284" 
d="M150 684q53 0 86.5 -36t33.5 -87q0 -56 -37.5 -91.5t-85.5 -35.5q-52 0 -86 35t-34 87q0 53 37 90.5t86 37.5zM147 637q-27 0 -47 -23.5t-20 -56.5q0 -31 20 -53.5t49 -22.5t48.5 22t19.5 55t-18.5 56t-51.5 23z" />
    <glyph glyph-name="plusminus" unicode="&#xb1;" horiz-adv-x="596" 
d="M262 567h72v-182h222v-70h-222v-187h-72v187h-222v70h222v182zM40 70h516v-70h-516v70z" />
    <glyph glyph-name="twosuperior" unicode="&#xb2;" horiz-adv-x="261" 
d="M5 417v42l44 54l51.5 63.5t32 51.5t17.5 58q0 59 -55 59q-33 0 -64 -25l-19 58q40 34 104 34q60 0 89 -32t29 -78q0 -34 -18.5 -72t-35.5 -58.5l-50 -58.5l-23 -27v-2h132v-67h-234z" />
    <glyph glyph-name="threesuperior" unicode="&#xb3;" horiz-adv-x="249" 
d="M33 732l-14 55q38 25 91 25q54 0 82 -27t28 -66q0 -63 -64 -90v-2q31 -6 53.5 -32.5t22.5 -62.5q0 -52 -39.5 -86t-104.5 -34q-52 0 -84 20l14 59q30 -18 68 -18q28 0 46 16.5t18 43.5q0 32 -22 49t-59 17h-10v53h7q28 0 52 13.5t24 40.5q0 21 -13 33t-35 12
q-32 0 -61 -19z" />
    <glyph glyph-name="acute" unicode="&#xb4;" 
d="M179 686h99l-103 -138h-68z" />
    <glyph glyph-name="mu" unicode="&#xb5;" horiz-adv-x="429" 
d="M293 49l-3 1q-10 -20 -31.5 -36t-47.5 -16q-40 0 -60 29v-53q0 -113 10 -166h-97q-15 40 -15 171v508h107v-314q0 -94 54 -94q42 0 57 48q5 18 5 44v316h107v-362q0 -29 7 -41.5t25 -11.5l-10 -76q-11 -4 -33 -4q-56 0 -75 57z" />
    <glyph glyph-name="paragraph" unicode="&#xb6;" horiz-adv-x="417" 
d="M238 -50h-62v319h-7q-16 0 -37.5 10t-45 29.5t-41 56t-20.5 83.5q-5 94 54.5 160t179.5 66q57 0 99 -7v-717h-62v661h-58v-661z" />
    <glyph glyph-name="periodcentered" unicode="&#xb7;" horiz-adv-x="216" 
d="M107 192q-27 0 -45.5 20.5t-18.5 52.5q0 31 19 52t46 21q28 0 46.5 -20t18.5 -53t-18 -53t-48 -20z" />
    <glyph glyph-name="cedilla" unicode="&#xb8;" 
d="M136 5h60l-26 -52q27 -4 46.5 -24t19.5 -48q0 -42 -29.5 -62.5t-71.5 -20.5q-43 0 -72 18l18 49q28 -14 51 -14q34 0 34 27q0 34 -68 41z" />
    <glyph glyph-name="onesuperior" unicode="&#xb9;" horiz-adv-x="227" 
d="M176 417h-79v319h-2l-72 -36l-14 59l97 48h70v-390z" />
    <glyph glyph-name="ordmasculine" unicode="&#xba;" horiz-adv-x="307" 
d="M155 588q56 0 86.5 -43t30.5 -121q0 -87 -35.5 -126.5t-83.5 -39.5q-56 0 -88.5 43t-32.5 122t35.5 122t87.5 43zM151 530q-25 0 -36 -34t-11 -73q0 -45 12 -76t36 -31q48 0 48 107t-49 107z" />
    <glyph glyph-name="guillemotright" unicode="&#xbb;" horiz-adv-x="370" 
d="M119 252l-106 180h80l104 -180l-103 -180h-81zM272 252l-106 180h79l105 -180l-103 -180h-81z" />
    <glyph glyph-name="onequarter" unicode="&#xbc;" horiz-adv-x="643" 
d="M190 263h-79v319h-2l-72 -36l-14 59l97 48h70v-390zM172 -8h-60l346 666h59zM567 0h-72v97h-148v49l142 246h78v-236h44v-59h-44v-97zM495 156v83q0 19 3 70h-2q-4 -8 -13 -28t-16 -32l-50 -91v-2h78z" />
    <glyph glyph-name="onehalf" unicode="&#xbd;" horiz-adv-x="643" 
d="M177 263h-79v319h-2l-72 -36l-14 59l97 48h70v-390zM147 -8h-60l345 666h59zM372 0v42l43 54l51.5 63.5t32 51.5t17.5 58q0 59 -55 59q-33 0 -64 -25l-19 58q40 34 104 34q60 0 89 -32t29 -78q0 -34 -18 -71t-36 -60t-50 -57l-23 -27v-3h132v-67h-233z" />
    <glyph glyph-name="threequarters" unicode="&#xbe;" horiz-adv-x="643" 
d="M57 578l-14 55q38 25 91 25q54 0 82 -27t28 -66q0 -63 -64 -90v-2q31 -6 53.5 -32.5t22.5 -62.5q0 -52 -39.5 -86t-105.5 -34q-51 0 -83 20l13 59q30 -18 69 -18q28 0 46 16.5t18 43.5q0 32 -22 49t-59 17h-10v53h7q28 0 52 13.5t24 40.5q0 21 -13 33t-35 12
q-32 0 -61 -19zM189 -8h-60l345 666h59zM571 0h-72v97h-147v49l142 246h77v-236h44v-59h-44v-97zM499 156v83q0 19 3 70h-2q-19 -41 -29 -60l-50 -91v-2h78z" />
    <glyph glyph-name="questiondown" unicode="&#xbf;" horiz-adv-x="323" 
d="M185 494q27 0 45 -19.5t18 -50.5q0 -30 -17.5 -50t-45.5 -20t-46.5 20t-18.5 50q0 31 18.5 50.5t46.5 19.5zM136 287h91l2 -17q11 -82 -48 -179q-27 -42 -38.5 -69.5t-11.5 -58.5q0 -35 19 -53t52 -18q38 0 65 18l19 -82q-39 -28 -109 -28q-80 0 -117.5 43.5t-37.5 102.5
q0 33 14 70t23.5 53t36.5 58q45 73 40 140v20z" />
    <glyph glyph-name="Agrave" unicode="&#xc0;" horiz-adv-x="448" 
d="M287 175h-133l-37 -175h-103l150 674h124l139 -674h-104zM166 259h110l-28 155q-7 37 -24 153h-3l-11 -67.5t-15 -86.5zM84 821h114l88 -111h-79z" />
    <glyph glyph-name="Aacute" unicode="&#xc1;" horiz-adv-x="448" 
d="M287 175h-133l-37 -175h-103l150 674h124l139 -674h-104zM166 259h110l-28 155q-7 37 -24 153h-3l-11 -67.5t-15 -86.5zM259 821h114l-123 -111h-79z" />
    <glyph glyph-name="Acircumflex" unicode="&#xc2;" horiz-adv-x="448" 
d="M287 175h-133l-37 -175h-103l150 674h124l139 -674h-104zM166 259h110l-28 155q-7 37 -24 153h-3l-11 -67.5t-15 -86.5zM182 814h86l86 -104h-83l-45 53h-2l-44 -53h-81z" />
    <glyph glyph-name="Atilde" unicode="&#xc3;" horiz-adv-x="448" 
d="M288 175h-134l-37 -175h-103l150 674h125l139 -674h-104zM166 259h111l-29 155q-7 37 -24 153h-3l-11 -67.5t-15 -86.5zM168 718h-51q-1 49 16 77.5t47 28.5q22 0 50 -18q26 -17 38 -17q21 0 25 37h50q3 -103 -66 -103q-25 0 -51 16q-25 16 -36 16q-19 0 -22 -37z" />
    <glyph glyph-name="Adieresis" unicode="&#xc4;" horiz-adv-x="448" 
d="M287 175h-133l-37 -175h-103l150 674h124l139 -674h-104zM166 259h110l-28 155q-7 37 -24 153h-3l-11 -67.5t-15 -86.5zM141 715q-21 0 -36 16t-15 40t15.5 40t36.5 16q22 0 37 -16t15 -40t-15 -40t-38 -16zM315 715q-21 0 -36 16t-15 40t15.5 40t36.5 16q22 0 37 -16
t15 -40t-15 -40t-38 -16z" />
    <glyph glyph-name="Aring" unicode="&#xc5;" horiz-adv-x="448" 
d="M287 175h-133l-37 -175h-103l150 674h124l139 -674h-104zM166 259h110l-28 155q-7 37 -24 153h-3l-11 -67.5t-15 -86.5zM227 878q48 0 73.5 -26t25.5 -64q0 -37 -26.5 -63.5t-73.5 -26.5q-48 0 -74 26t-26 62q0 38 27 65t74 27zM225 836q-19 0 -29.5 -15t-10.5 -34
q0 -18 10.5 -32t30.5 -14t30.5 13.5t10.5 33.5t-11 34t-31 14z" />
    <glyph glyph-name="AE" unicode="&#xc6;" horiz-adv-x="578" 
d="M104 0h-105l204 674h339v-93h-181l11 -193h166v-89h-158l12 -206h170v-93h-264l-12 201h-128zM178 285h99l-8 184l-3.5 62.5t-3.5 68.5h-4q-9 -38 -38 -152z" />
    <glyph glyph-name="Ccedilla" unicode="&#xc7;" horiz-adv-x="399" 
d="M356 100l13 -90q-34 -14 -86 -16l-21 -40q27 -5 46.5 -25t19.5 -48q0 -42 -29.5 -62.5t-72.5 -20.5q-42 0 -71 18l17 49q30 -14 52 -14q34 0 34 28q0 33 -69 40l37 79q-96 17 -147 101t-51 228q0 93 23 164t61 110.5t81.5 59t91.5 19.5q58 0 88 -17l-20 -91
q-28 14 -64 14q-62 0 -105 -61.5t-43 -189.5t41.5 -187.5t107.5 -59.5q34 0 66 12z" />
    <glyph glyph-name="Egrave" unicode="&#xc8;" horiz-adv-x="376" 
d="M326 396v-89h-160v-214h182v-93h-289v674h277v-93h-170v-185h160zM59 821h114l88 -111h-79z" />
    <glyph glyph-name="Eacute" unicode="&#xc9;" horiz-adv-x="376" 
d="M326 396v-89h-160v-214h182v-93h-289v674h277v-93h-170v-185h160zM238 821h114l-123 -111h-79z" />
    <glyph glyph-name="Ecircumflex" unicode="&#xca;" horiz-adv-x="376" 
d="M326 396v-89h-160v-214h182v-93h-289v674h277v-93h-170v-185h160zM156 814h86l86 -104h-83l-45 53h-2l-44 -53h-81z" />
    <glyph glyph-name="Edieresis" unicode="&#xcb;" horiz-adv-x="376" 
d="M326 396v-89h-160v-214h181v-93h-288v674h276v-93h-169v-185h160zM111 719q-21 0 -36 16t-15 40t15.5 40t36.5 16q22 0 37 -16t15 -40t-15 -40t-38 -16zM285 719q-21 0 -36 16t-15 40t15.5 40t36.5 16q22 0 37 -16t15 -40t-15 -40t-38 -16z" />
    <glyph glyph-name="Igrave" unicode="&#xcc;" horiz-adv-x="226" 
d="M59 674h107v-674h-107v674zM-35 821h114l88 -111h-79z" />
    <glyph glyph-name="Iacute" unicode="&#xcd;" horiz-adv-x="226" 
d="M59 674h107v-674h-107v674zM142 821h114l-123 -111h-79z" />
    <glyph glyph-name="Icircumflex" unicode="&#xce;" horiz-adv-x="226" 
d="M59 674h107v-674h-107v674zM69 814h86l86 -104h-83l-45 53h-2l-44 -53h-81z" />
    <glyph glyph-name="Idieresis" unicode="&#xcf;" horiz-adv-x="226" 
d="M59 674h107v-674h-107v674zM25 719q-21 0 -36 16t-15 40t15.5 40t36.5 16q22 0 37 -16t15 -40t-15 -40t-38 -16zM199 719q-21 0 -36 16t-15 40t15.5 40t36.5 16q22 0 37 -16t15 -40t-15 -40t-38 -16z" />
    <glyph glyph-name="Eth" unicode="&#xd0;" horiz-adv-x="475" 
d="M0 312v76h64v276q50 13 120 13q113 0 174 -56q89 -79 89 -273q0 -201 -87 -286q-67 -68 -198 -68q-56 0 -98 7v311h-64zM257 388v-76h-87v-228q9 -2 26 -2q62 0 101.5 62.5t39.5 205.5q0 241 -136 241q-17 0 -31 -3v-200h87z" />
    <glyph glyph-name="Ntilde" unicode="&#xd1;" horiz-adv-x="493" 
d="M153 0h-94v674h98l114 -288q57 -145 79 -213h2q-12 172 -12 311v190h94v-674h-98l-115 287q-50 123 -74 214h-2q8 -125 8 -313v-188zM187 718h-51q-1 49 16 77.5t47 28.5q24 0 50 -18q28 -17 39 -17q21 0 25 37h50q3 -103 -66 -103q-24 0 -52 16q-23 16 -35 16
q-20 0 -23 -37z" />
    <glyph glyph-name="Ograve" unicode="&#xd2;" horiz-adv-x="465" 
d="M240 682q68 0 113.5 -47.5t64.5 -120.5t19 -168q0 -181 -56.5 -267.5t-151.5 -86.5q-98 0 -149.5 94t-51.5 252q0 155 56 249.5t156 94.5zM234 589q-48 0 -71.5 -69.5t-23.5 -182.5q0 -116 23.5 -184t72.5 -68q91 0 91 256q0 67 -7.5 119.5t-29 90.5t-55.5 38zM88 821
h114l88 -111h-79z" />
    <glyph glyph-name="Oacute" unicode="&#xd3;" horiz-adv-x="465" 
d="M240 682q68 0 113.5 -47.5t64.5 -120.5t19 -168q0 -181 -56.5 -267.5t-151.5 -86.5q-98 0 -149.5 94t-51.5 252q0 155 56 249.5t156 94.5zM234 589q-48 0 -71.5 -69.5t-23.5 -182.5q0 -116 23.5 -184t72.5 -68q91 0 91 256q0 67 -7.5 119.5t-29 90.5t-55.5 38zM268 821
h114l-123 -111h-79z" />
    <glyph glyph-name="Ocircumflex" unicode="&#xd4;" horiz-adv-x="465" 
d="M240 682q68 0 113.5 -47.5t64.5 -120.5t19 -168q0 -181 -56.5 -267.5t-151.5 -86.5q-98 0 -149.5 94t-51.5 252q0 155 56 249.5t156 94.5zM234 589q-48 0 -71.5 -69.5t-23.5 -182.5q0 -116 23.5 -184t72.5 -68q91 0 91 256q0 67 -7.5 119.5t-29 90.5t-55.5 38zM189 814
h86l86 -104h-83l-45 53h-2l-44 -53h-81z" />
    <glyph glyph-name="Otilde" unicode="&#xd5;" horiz-adv-x="465" 
d="M240 682q68 0 113.5 -47.5t64.5 -120.5t19 -168q0 -181 -56.5 -267.5t-151.5 -86.5q-98 0 -149.5 94t-51.5 252q0 155 56 249.5t156 94.5zM234 589q-48 0 -71.5 -69.5t-23.5 -182.5q0 -116 23.5 -184t72.5 -68q91 0 91 256q0 67 -7.5 119.5t-29 90.5t-55.5 38zM170 714
h-51q-1 49 16 77.5t47 28.5q21 0 51 -17q26 -17 38 -17q21 0 25 37h50q3 -103 -66 -103q-22 0 -52 15q-25 16 -35 16q-20 0 -23 -37z" />
    <glyph glyph-name="Odieresis" unicode="&#xd6;" horiz-adv-x="465" 
d="M240 682q68 0 113.5 -47.5t64.5 -120.5t19 -168q0 -181 -56.5 -267.5t-151.5 -86.5q-98 0 -149.5 94t-51.5 252q0 155 56 249.5t156 94.5zM234 589q-48 0 -71.5 -69.5t-23.5 -182.5q0 -116 23.5 -184t72.5 -68q91 0 91 256q0 67 -7.5 119.5t-29 90.5t-55.5 38zM144 719
q-21 0 -36 16t-15 40t15.5 40t36.5 16q22 0 37 -16t15 -40t-15 -40t-38 -16zM318 719q-21 0 -36 16t-15 40t15.5 40t36.5 16q22 0 37 -16t15 -40t-15 -40t-38 -16z" />
    <glyph glyph-name="multiply" unicode="&#xd7;" horiz-adv-x="596" 
d="M40 475l47 51l211 -214l210 214l48 -51l-209 -212l208 -211l-49 -52l-208 213l-209 -213l-49 52l208 211z" />
    <glyph glyph-name="Oslash" unicode="&#xd8;" horiz-adv-x="465" 
d="M98 -44l-56 30l42 95q-56 89 -56 257q0 154 55 249t151 95q56 0 98 -33l31 70l59 -25l-42 -93q57 -88 57 -255q0 -181 -55.5 -267.5t-148.5 -86.5q-61 0 -102 38zM146 206l145 348q-23 35 -57 35q-49 0 -75 -68.5t-26 -181.5q0 -83 11 -133h2zM319 472l-148 -347
q21 -40 63 -40q50 0 74 69.5t24 186.5q0 82 -11 130z" />
    <glyph glyph-name="Ugrave" unicode="&#xd9;" horiz-adv-x="481" 
d="M56 674h107v-444q0 -144 76 -144q78 0 78 144v444h107v-426q0 -128 -48 -192t-137 -64q-183 0 -183 251v431zM95 821h114l88 -111h-79z" />
    <glyph glyph-name="Uacute" unicode="&#xda;" horiz-adv-x="481" 
d="M56 674h107v-444q0 -144 76 -144q78 0 78 144v444h107v-426q0 -128 -48 -192t-137 -64q-183 0 -183 251v431zM270 821h114l-123 -111h-79z" />
    <glyph glyph-name="Ucircumflex" unicode="&#xdb;" horiz-adv-x="481" 
d="M56 674h107v-444q0 -144 76 -144q78 0 78 144v444h107v-426q0 -128 -48 -192t-137 -64q-183 0 -183 251v431zM198 814h86l86 -104h-83l-45 53h-2l-44 -53h-81z" />
    <glyph glyph-name="Udieresis" unicode="&#xdc;" horiz-adv-x="481" 
d="M56 674h107v-444q0 -144 76 -144q78 0 78 144v444h107v-426q0 -128 -48 -192t-137 -64q-183 0 -183 251v431zM151 719q-21 0 -36 16t-15 40t15.5 40t36.5 16q22 0 37 -16t15 -40t-15 -40t-38 -16zM325 719q-21 0 -36 16t-15 40t15.5 40t36.5 16q22 0 37 -16t15 -40
t-15 -40t-38 -16z" />
    <glyph glyph-name="Yacute" unicode="&#xdd;" horiz-adv-x="398" 
d="M251 0h-107v270l-148 404h113l52 -164q24 -73 42 -148h2q15 66 40 151l47 161h111l-152 -400v-274zM240 821h114l-123 -111h-79z" />
    <glyph glyph-name="Thorn" unicode="&#xde;" horiz-adv-x="428" 
d="M59 0v674h104v-123q24 2 46 2q90 0 142 -47q54 -50 54 -144q0 -106 -61 -159.5t-143 -53.5q-23 0 -38 3v-152h-104zM163 463v-223q14 -3 32 -3q49 0 77 32t28 86q0 111 -99 111q-23 0 -38 -3z" />
    <glyph glyph-name="germandbls" unicode="&#xdf;" horiz-adv-x="464" 
d="M156 0h-107v440q0 146 65 208q54 52 136 52q74 0 119.5 -45t45.5 -118q0 -49 -24 -80q-57 -26 -57 -74q0 -32 41 -80q65 -72 65 -153q0 -72 -47 -115t-118 -43q-49 0 -82 14l14 82q24 -12 63 -12q32 0 50.5 18.5t18.5 46.5q0 41 -47 96q-30 36 -44.5 63.5t-14.5 65.5
t20 69.5t52 47.5q8 18 8 48q0 41 -21 62t-50 21q-86 0 -86 -170v-444z" />
    <glyph glyph-name="agrave" unicode="&#xe0;" horiz-adv-x="396" 
d="M346 305v-194q0 -73 6 -111h-96l-6 50h-2q-38 -58 -103 -58q-53 0 -88 40t-35 104q0 88 62.5 133t153.5 46v13q0 85 -73 85q-47 0 -91 -26l-20 72q56 35 134 35q158 0 158 -189zM241 153v91q-117 -3 -117 -97q0 -38 16 -56.5t37 -18.5t38 14.5t23 41.5q3 12 3 25zM69 686
h99l72 -138h-68z" />
    <glyph glyph-name="aacute" unicode="&#xe1;" horiz-adv-x="396" 
d="M346 305v-194q0 -73 6 -111h-96l-6 50h-2q-38 -58 -103 -58q-53 0 -88 40t-35 104q0 88 62.5 133t153.5 46v13q0 85 -73 85q-47 0 -91 -26l-20 72q56 35 134 35q158 0 158 -189zM241 153v91q-117 -3 -117 -97q0 -38 16 -56.5t37 -18.5t38 14.5t23 41.5q3 12 3 25z
M224 686h99l-103 -138h-68z" />
    <glyph glyph-name="acircumflex" unicode="&#xe2;" horiz-adv-x="396" 
d="M346 305v-194q0 -73 6 -111h-96l-6 50h-2q-38 -58 -103 -58q-53 0 -88 40t-35 104q0 88 62.5 133t153.5 46v13q0 85 -73 85q-47 0 -91 -26l-20 72q56 35 134 35q158 0 158 -189zM241 153v91q-117 -3 -117 -97q0 -38 16 -56.5t37 -18.5t38 14.5t23 41.5q3 12 3 25z
M160 686h74l82 -138h-75l-44 83h-2l-42 -83h-76z" />
    <glyph glyph-name="atilde" unicode="&#xe3;" horiz-adv-x="396" 
d="M346 305v-194q0 -73 6 -111h-96l-6 50h-2q-38 -58 -103 -58q-53 0 -88 40t-35 104q0 88 62.5 133t153.5 46v13q0 85 -73 85q-47 0 -91 -26l-20 72q56 35 134 35q158 0 158 -189zM241 153v91q-117 -3 -117 -97q0 -38 16 -56.5t37 -18.5t38 14.5t23 41.5q3 12 3 25z
M134 559h-52q0 47 17.5 77t49.5 30q19 0 53 -18q26 -16 38 -16q11 0 16.5 7.5t6.5 29.5h50q0 -103 -67 -103q-18 0 -50 16q-4 2 -10 6t-10 6t-8.5 3.5t-9.5 1.5q-22 0 -24 -40z" />
    <glyph glyph-name="adieresis" unicode="&#xe4;" horiz-adv-x="396" 
d="M346 305v-194q0 -73 6 -111h-96l-6 50h-2q-38 -58 -103 -58q-53 0 -88 40t-35 104q0 88 62.5 133t153.5 46v13q0 85 -73 85q-47 0 -91 -26l-20 72q56 35 134 35q158 0 158 -189zM241 153v91q-117 -3 -117 -97q0 -38 16 -56.5t37 -18.5t38 14.5t23 41.5q3 12 3 25z
M113 564q-21 0 -36.5 15.5t-15.5 39.5t15.5 39.5t37.5 15.5t37 -15.5t15 -39.5t-15 -39.5t-38 -15.5zM280 564q-21 0 -36.5 15.5t-15.5 39.5t15.5 39.5t37.5 15.5t37 -15.5t15 -39.5t-15 -39.5t-38 -15.5z" />
    <glyph glyph-name="aring" unicode="&#xe5;" horiz-adv-x="396" 
d="M346 305v-194q0 -73 6 -111h-96l-6 50h-2q-38 -58 -103 -58q-53 0 -88 40t-35 104q0 88 62.5 133t153.5 46v13q0 85 -73 85q-47 0 -91 -26l-20 72q56 35 134 35q158 0 158 -189zM241 153v91q-117 -3 -117 -97q0 -38 16 -56.5t37 -18.5t38 14.5t23 41.5q3 12 3 25z
M199 536q-46 0 -72.5 25t-26.5 62q0 40 26 66t74 26q45 0 70.5 -25t25.5 -65q0 -38 -26.5 -63.5t-70.5 -25.5zM198 576q22 0 33 15t11 35t-11 34.5t-34 14.5q-21 0 -31.5 -15.5t-10.5 -35.5q0 -18 11 -33t32 -15z" />
    <glyph glyph-name="ae" unicode="&#xe6;" horiz-adv-x="600" 
d="M570 226h-229q0 -153 110 -153q46 0 86 20l16 -74q-50 -27 -122 -27q-48 0 -87.5 23t-56.5 65h-3q-44 -88 -134 -88q-56 0 -92 41t-36 107q0 83 62 125.5t153 43.5v21q0 36 -20 59.5t-58 23.5q-46 0 -85 -26l-21 72q56 35 127 35q42 0 74 -21t45 -61h2q39 82 126 82
q69 0 107 -62t38 -161q0 -15 -2 -45zM239 157v83q-20 0 -37.5 -3.5t-38 -12.5t-32.5 -29t-12 -50q0 -36 16.5 -54t39.5 -18q21 0 37.5 15t22.5 41q4 12 4 28zM342 297h131q1 54 -15 87t-45 33q-33 0 -51.5 -37t-19.5 -83z" />
    <glyph glyph-name="ccedilla" unicode="&#xe7;" horiz-adv-x="313" 
d="M294 94l12 -84q-29 -14 -78 -16l-21 -40q28 -5 47 -24.5t19 -48.5q0 -42 -29.5 -62.5t-71.5 -20.5t-71 18l17 49q28 -14 51 -14q34 0 34 28q0 34 -68 40l36 81q-66 17 -103 78t-37 161q0 111 57 182.5t152 71.5q43 0 69 -14l-16 -85q-22 11 -51 11q-50 0 -77.5 -46.5
t-27.5 -117.5q0 -74 28 -116.5t77 -42.5q31 0 52 12z" />
    <glyph glyph-name="egrave" unicode="&#xe8;" horiz-adv-x="394" 
d="M363 215h-229q1 -139 109 -139q47 0 87 17l16 -76q-51 -23 -123 -23q-93 0 -143 63.5t-50 178.5q0 118 51 188t131 70q74 0 114 -60.5t40 -161.5q0 -38 -3 -57zM134 291h133q1 57 -16.5 90t-46.5 33q-33 0 -50.5 -37t-19.5 -86zM85 686h99l72 -138h-68z" />
    <glyph glyph-name="eacute" unicode="&#xe9;" horiz-adv-x="394" 
d="M363 215h-229q1 -139 109 -139q47 0 87 17l16 -76q-51 -23 -123 -23q-93 0 -143 63.5t-50 178.5q0 118 51 188t131 70q74 0 114 -60.5t40 -161.5q0 -38 -3 -57zM134 291h133q1 57 -16.5 90t-46.5 33q-33 0 -50.5 -37t-19.5 -86zM242 686h98l-103 -138h-68z" />
    <glyph glyph-name="ecircumflex" unicode="&#xea;" horiz-adv-x="394" 
d="M363 215h-229q1 -139 109 -139q47 0 87 17l16 -76q-51 -23 -123 -23q-93 0 -143 63.5t-50 178.5q0 118 51 188t131 70q74 0 114 -60.5t40 -161.5q0 -38 -3 -57zM134 291h133q1 57 -16.5 90t-46.5 33q-33 0 -50.5 -37t-19.5 -86zM174 686h74l82 -138h-75l-43 83h-2
l-43 -83h-76z" />
    <glyph glyph-name="edieresis" unicode="&#xeb;" horiz-adv-x="394" 
d="M363 215h-229q1 -139 109 -139q47 0 87 17l16 -76q-51 -23 -123 -23q-93 0 -143 63.5t-50 178.5q0 118 51 188t131 70q74 0 114 -60.5t40 -161.5q0 -38 -3 -57zM134 291h133q1 57 -16.5 90t-46.5 33q-33 0 -50.5 -37t-19.5 -86zM130 564q-21 0 -36.5 15.5t-15.5 39.5
t15.5 39.5t37.5 15.5t37 -15.5t15 -39.5t-15 -39.5t-38 -15.5zM297 564q-21 0 -36.5 15.5t-15.5 39.5t15.5 39.5t37.5 15.5t37 -15.5t15 -39.5t-15 -39.5t-38 -15.5z" />
    <glyph glyph-name="igrave" unicode="&#xec;" horiz-adv-x="205" 
d="M156 0h-107v487h107v-487zM-26 686h99l72 -138h-68z" />
    <glyph glyph-name="iacute" unicode="&#xed;" horiz-adv-x="205" 
d="M156 0h-107v487h107v-487zM132 686h99l-103 -138h-68z" />
    <glyph glyph-name="icircumflex" unicode="&#xee;" horiz-adv-x="205" 
d="M156 0h-107v487h107v-487zM67 686h74l82 -138h-75l-43 83h-2l-43 -83h-76z" />
    <glyph glyph-name="idieresis" unicode="&#xef;" horiz-adv-x="205" 
d="M156 0h-107v487h107v-487zM18 564q-21 0 -36.5 15.5t-15.5 39.5t15.5 39.5t37.5 15.5t37 -15.5t15 -39.5t-15 -39.5t-38 -15.5zM186 564q-21 0 -36.5 15.5t-15.5 39.5t15.5 39.5t37.5 15.5t37 -15.5t15 -39.5t-15 -39.5t-38 -15.5z" />
    <glyph glyph-name="eth" unicode="&#xf0;" horiz-adv-x="409" 
d="M206 74q66 0 66 165q0 92 -12 129q-14 46 -54 46q-21 0 -35.5 -17t-21.5 -45.5t-9.5 -54t-2.5 -53.5q0 -170 69 -170zM82 505l-24 39l82 45q-17 19 -66 61l62 56q54 -44 85 -75l91 51l25 -41l-82 -44q46 -51 82 -125q41 -85 41 -218q0 -73 -16.5 -127t-43.5 -81.5
t-56 -40.5t-60 -13q-79 0 -125 65t-46 185q0 111 43 173t105 69q33 3 55 -10l2 3q-22 42 -58 80z" />
    <glyph glyph-name="ntilde" unicode="&#xf1;" horiz-adv-x="434" 
d="M49 0v350q0 51 -4 137h93l5 -58h2q38 65 115 65q61 0 93 -45.5t32 -130.5v-318h-107v308q0 96 -57 96q-20 0 -36.5 -15.5t-23.5 -43.5q-5 -18 -5 -45v-300h-107zM156 559h-52q0 47 17.5 77t49.5 30q19 0 53 -18q26 -16 38 -16q11 0 16.5 7.5t6.5 29.5h50q0 -103 -67 -103
q-20 0 -50 16q-4 2 -10 6t-10 6t-8.5 3.5t-9.5 1.5q-22 0 -24 -40z" />
    <glyph glyph-name="ograve" unicode="&#xf2;" horiz-adv-x="410" 
d="M208 494q78 0 124.5 -66t46.5 -184q0 -70 -16.5 -121.5t-43.5 -78.5t-56 -39.5t-59 -12.5q-79 0 -126 65t-47 185q0 124 51 188t126 64zM206 412q-38 0 -53.5 -50.5t-15.5 -117.5q0 -170 71 -170q65 0 65 170q0 67 -15 117.5t-52 50.5zM81 686h99l72 -138h-68z" />
    <glyph glyph-name="oacute" unicode="&#xf3;" horiz-adv-x="410" 
d="M208 494q78 0 124.5 -66t46.5 -184q0 -70 -16.5 -121.5t-43.5 -78.5t-56 -39.5t-59 -12.5q-79 0 -126 65t-47 185q0 124 51 188t126 64zM206 412q-38 0 -53.5 -50.5t-15.5 -117.5q0 -170 71 -170q65 0 65 170q0 67 -15 117.5t-52 50.5zM237 686h99l-103 -138h-68z" />
    <glyph glyph-name="ocircumflex" unicode="&#xf4;" horiz-adv-x="410" 
d="M208 494q78 0 124.5 -66t46.5 -184q0 -70 -16.5 -121.5t-43.5 -78.5t-56 -39.5t-59 -12.5q-79 0 -126 65t-47 185q0 124 51 188t126 64zM206 412q-38 0 -53.5 -50.5t-15.5 -117.5q0 -170 71 -170q65 0 65 170q0 67 -15 117.5t-52 50.5zM169 686h74l82 -138h-75l-43 83h-2
l-43 -83h-76z" />
    <glyph glyph-name="otilde" unicode="&#xf5;" horiz-adv-x="410" 
d="M208 494q78 0 124.5 -66t46.5 -184q0 -70 -16.5 -121.5t-43.5 -78.5t-56 -39.5t-59 -12.5q-79 0 -126 65t-47 185q0 124 51 188t126 64zM206 412q-38 0 -53.5 -50.5t-15.5 -117.5q0 -170 71 -170q65 0 65 170q0 67 -15 117.5t-52 50.5zM141 559h-52q0 47 17.5 77t49.5 30
q18 0 54 -18q26 -16 38 -16q11 0 16.5 7.5t6.5 29.5h50q0 -103 -67 -103q-19 0 -51 16q-4 2 -10 6t-10 6t-8.5 3.5t-9.5 1.5q-22 0 -24 -40z" />
    <glyph glyph-name="odieresis" unicode="&#xf6;" horiz-adv-x="410" 
d="M208 494q78 0 124.5 -66t46.5 -184q0 -70 -16.5 -121.5t-43.5 -78.5t-56 -39.5t-59 -12.5q-79 0 -126 65t-47 185q0 124 51 188t126 64zM206 412q-38 0 -53.5 -50.5t-15.5 -117.5q0 -170 71 -170q65 0 65 170q0 67 -15 117.5t-52 50.5zM120 564q-21 0 -36.5 15.5
t-15.5 39.5t15.5 39.5t37.5 15.5t37 -15.5t15 -39.5t-15 -39.5t-38 -15.5zM288 564q-21 0 -36.5 15.5t-15.5 39.5t15.5 39.5t37.5 15.5t37 -15.5t15 -39.5t-15 -39.5t-38 -15.5z" />
    <glyph glyph-name="divide" unicode="&#xf7;" horiz-adv-x="596" 
d="M297 386q-23 0 -37 15.5t-14 38.5q0 24 14.5 39.5t37.5 15.5q24 0 38 -15.5t14 -39.5t-14 -39t-39 -15zM555 232h-515v70h515v-70zM297 39q-23 0 -37 15.5t-14 38.5q0 24 14.5 39.5t37.5 15.5q24 0 38 -15.5t14 -39.5t-14 -39t-39 -15z" />
    <glyph glyph-name="oslash" unicode="&#xf8;" horiz-adv-x="410" 
d="M207 494q45 0 84 -27l29 55l51 -27l-37 -70q45 -67 45 -181q0 -70 -16.5 -121.5t-43.5 -78.5t-55 -39.5t-58 -12.5q-48 0 -86 26l-29 -55l-48 31l34 65q-46 67 -46 183q0 124 51.5 188t124.5 64zM142 158l108 226q-13 28 -45 28q-23 0 -38.5 -17t-22.5 -45t-10 -53.5
t-3 -52.5q0 -50 8 -83zM268 321l-105 -219q13 -28 43 -28q39 0 56 47.5t17 112.5q0 50 -7 86z" />
    <glyph glyph-name="ugrave" unicode="&#xf9;" horiz-adv-x="428" 
d="M377 487v-345q0 -60 4 -142h-93l-6 51h-2q-39 -59 -109 -59q-65 0 -95 48.5t-30 145.5v301h107v-288q0 -118 56 -118q22 0 36 15t19 33q6 16 6 42v316h107zM92 686h99l72 -138h-68z" />
    <glyph glyph-name="uacute" unicode="&#xfa;" horiz-adv-x="428" 
d="M377 487v-345q0 -60 4 -142h-93l-6 51h-2q-39 -59 -109 -59q-65 0 -95 48.5t-30 145.5v301h107v-288q0 -118 56 -118q22 0 36 15t19 33q6 16 6 42v316h107zM248 686h99l-103 -138h-68z" />
    <glyph glyph-name="ucircumflex" unicode="&#xfb;" horiz-adv-x="428" 
d="M377 487v-345q0 -60 4 -142h-93l-6 51h-2q-39 -59 -109 -59q-65 0 -95 48.5t-30 145.5v301h107v-288q0 -118 56 -118q22 0 36 15t19 33q6 16 6 42v316h107zM177 686h75l82 -138h-75l-44 83h-2l-42 -83h-76z" />
    <glyph glyph-name="udieresis" unicode="&#xfc;" horiz-adv-x="428" 
d="M377 487v-345q0 -60 4 -142h-93l-6 51h-2q-39 -59 -109 -59q-65 0 -95 48.5t-30 145.5v301h107v-288q0 -118 56 -118q22 0 36 15t19 33q6 16 6 42v316h107zM132 564q-21 0 -36.5 15.5t-15.5 39.5t15.5 39.5t37.5 15.5t37 -15.5t15 -39.5t-15 -39.5t-38 -15.5zM300 564
q-21 0 -36.5 15.5t-15.5 39.5t15.5 39.5t37.5 15.5t37 -15.5t15 -39.5t-15 -39.5t-38 -15.5z" />
    <glyph glyph-name="yacute" unicode="&#xfd;" horiz-adv-x="370" 
d="M9 487h114l55 -265l6 -30.5t5.5 -33t4.5 -26.5h2q10 53 16 89l48 266h105l-90 -348q-51 -199 -114 -277q-45 -55 -100 -76l-35 92q35 16 66 50q27 28 43 68q6 15 6 23q0 9 -3 18zM218 686h99l-103 -138h-68z" />
    <glyph glyph-name="thorn" unicode="&#xfe;" horiz-adv-x="425" 
d="M49 667h106v-240h2q31 67 98 67q66 0 102.5 -69t36.5 -181q0 -123 -44 -187.5t-103 -64.5q-64 0 -90 55h-2v-239h-106v859zM155 306v-128q0 -24 7 -42q15 -56 54 -56q72 0 72 162q0 74 -18 118t-53 44q-20 0 -35.5 -18t-20.5 -43q-6 -17 -6 -37z" />
    <glyph glyph-name="ydieresis" unicode="&#xff;" horiz-adv-x="370" 
d="M9 487h114l55 -265l6 -30.5t5.5 -33t4.5 -26.5h2q10 53 16 89l48 266h105l-90 -348q-51 -199 -114 -277q-45 -55 -100 -76l-35 92q35 16 66 50q27 28 43 68q6 15 6 23q0 9 -3 18zM104 564q-21 0 -36.5 15.5t-15.5 39.5t15.5 39.5t37.5 15.5t37 -15.5t15 -39.5t-15 -39.5
t-38 -15.5zM272 564q-21 0 -36.5 15.5t-15.5 39.5t15.5 39.5t37.5 15.5t37 -15.5t15 -39.5t-15 -39.5t-38 -15.5z" />
    <glyph glyph-name="Amacron" unicode="&#x100;" horiz-adv-x="448" 
d="M287 175h-133l-37 -175h-103l150 674h124l139 -674h-104zM166 259h110l-28 155q-7 37 -24 153h-3l-11 -67.5t-15 -86.5zM112 803h225v-67h-225v67z" />
    <glyph glyph-name="amacron" unicode="&#x101;" horiz-adv-x="396" 
d="M346 305v-194q0 -73 6 -111h-96l-6 50h-2q-38 -58 -103 -58q-53 0 -88 40t-35 104q0 88 62.5 133t153.5 46v13q0 85 -73 85q-47 0 -91 -26l-20 72q56 35 134 35q158 0 158 -189zM241 153v91q-117 -3 -117 -97q0 -38 16 -56.5t37 -18.5t38 14.5t23 41.5q3 12 3 25zM96 645
h205v-64h-205v64z" />
    <glyph glyph-name="Abreve" unicode="&#x102;" horiz-adv-x="448" 
d="M287 175h-133l-37 -175h-103l150 674h124l139 -674h-104zM166 259h110l-28 155q-7 37 -24 153h-3l-11 -67.5t-15 -86.5zM110 816h59q5 -43 55 -43q51 0 56 43h59q0 -49 -30 -78t-84 -29q-55 0 -85 28.5t-30 78.5z" />
    <glyph glyph-name="abreve" unicode="&#x103;" horiz-adv-x="396" 
d="M346 305v-194q0 -73 6 -111h-96l-6 50h-2q-38 -58 -103 -58q-53 0 -88 40t-35 104q0 88 62.5 133t153.5 46v13q0 85 -73 85q-47 0 -91 -26l-20 72q56 35 134 35q158 0 158 -189zM241 153v91q-117 -3 -117 -97q0 -38 16 -56.5t37 -18.5t38 14.5t23 41.5q3 12 3 25zM85 675
h55q2 -26 18 -41.5t39 -15.5q27 0 43 16t16 41h54q2 -53 -30 -87t-84 -34t-82.5 34.5t-28.5 86.5z" />
    <glyph glyph-name="Aogonek" unicode="&#x104;" horiz-adv-x="448" 
d="M289 674l139 -674h-37q-34 -50 -34 -87q0 -19 12.5 -31.5t28.5 -12.5q21 0 40 7l14 -55q-32 -24 -81 -24q-44 0 -67.5 24t-23.5 66q0 51 43 116l-35 172h-134l-36 -175h-104l150 674h125zM166 259h111l-28 155l-13 79.5l-12 73.5h-2l-11 -67.5t-15 -86.5z" />
    <glyph glyph-name="aogonek" unicode="&#x105;" horiz-adv-x="396" 
d="M346 305v-194q0 -71 8 -111h-29q-32 -49 -32 -90q0 -20 12.5 -32t28.5 -12q24 0 40 7l14 -56q-33 -23 -81 -23q-44 0 -67.5 24t-23.5 66q0 43 40 116l-6 50h-2q-38 -58 -103 -58q-53 0 -88 40t-35 104q0 88 62.5 133t153.5 46v13q0 85 -73 85q-47 0 -91 -26l-20 72
q56 35 134 35q158 0 158 -189zM241 153v91q-117 -3 -117 -97q0 -38 16 -56.5t37 -18.5t38 14.5t23 41.5q3 10 3 25z" />
    <glyph glyph-name="Cacute" unicode="&#x106;" horiz-adv-x="385" 
d="M356 101l13 -90q-34 -17 -99 -17q-115 0 -178.5 88.5t-63.5 245.5q0 93 23 163.5t61 110t81.5 59t91.5 19.5q60 0 88 -17l-20 -91q-28 14 -64 14q-62 0 -105 -61.5t-43 -189.5t41.5 -187t107.5 -59q39 0 66 12zM282 821h114l-123 -111h-79z" />
    <glyph glyph-name="cacute" unicode="&#x107;" horiz-adv-x="313" 
d="M294 93l11 -83q-30 -16 -82 -16q-89 0 -140.5 64t-51.5 181q0 111 57 182.5t152 71.5q44 0 70 -14l-16 -85q-24 11 -52 11q-50 0 -77.5 -46.5t-27.5 -117.5q0 -74 28 -116.5t77 -42.5q31 0 52 11zM232 686h98l-103 -138h-68z" />
    <glyph glyph-name="Ccircumflex" unicode="&#x108;" horiz-adv-x="385" 
d="M356 101l13 -90q-34 -17 -99 -17q-115 0 -178.5 88.5t-63.5 245.5q0 93 23 163.5t61 110t81.5 59t91.5 19.5q60 0 88 -17l-20 -91q-28 14 -64 14q-62 0 -105 -61.5t-43 -189.5t41.5 -187t107.5 -59q39 0 66 12zM200 814h86l86 -104h-83l-45 53h-2l-44 -53h-81z" />
    <glyph glyph-name="ccircumflex" unicode="&#x109;" horiz-adv-x="313" 
d="M294 93l11 -83q-30 -16 -82 -16q-89 0 -140.5 64t-51.5 181q0 111 57 182.5t152 71.5q44 0 70 -14l-16 -85q-24 11 -52 11q-50 0 -77.5 -46.5t-27.5 -117.5q0 -74 28 -116.5t77 -42.5q31 0 52 11zM162 686h74l82 -138h-75l-43 83h-2l-43 -83h-76z" />
    <glyph glyph-name="Cdotaccent" unicode="&#x10a;" horiz-adv-x="385" 
d="M356 101l13 -90q-34 -17 -99 -17q-115 0 -178.5 88.5t-63.5 245.5q0 93 23 163.5t61 110t81.5 59t91.5 19.5q60 0 88 -17l-20 -91q-28 14 -64 14q-62 0 -105 -61.5t-43 -189.5t41.5 -187t107.5 -59q39 0 66 12zM248 716q-22 0 -38 16.5t-16 38.5q0 23 16 39t39 16
t38.5 -16t15.5 -39t-16 -39t-39 -16z" />
    <glyph glyph-name="cdotaccent" unicode="&#x10b;" horiz-adv-x="313" 
d="M294 93l11 -83q-30 -16 -82 -16q-89 0 -140.5 64t-51.5 181q0 111 57 182.5t152 71.5q44 0 70 -14l-16 -85q-24 11 -52 11q-50 0 -77.5 -46.5t-27.5 -117.5q0 -74 28 -116.5t77 -42.5q31 0 52 11zM197 564q-21 0 -36.5 15.5t-15.5 39.5t15.5 39.5t37.5 15.5t37 -15.5
t15 -39.5t-15 -39.5t-38 -15.5z" />
    <glyph glyph-name="Ccaron" unicode="&#x10c;" horiz-adv-x="385" 
d="M356 101l13 -90q-34 -17 -99 -17q-115 0 -178.5 88.5t-63.5 245.5q0 93 23 163.5t61 110t81.5 59t91.5 19.5q60 0 88 -17l-20 -91q-28 14 -64 14q-62 0 -105 -61.5t-43 -189.5t41.5 -187t107.5 -59q39 0 66 12zM297 710h-86l-86 104h83l45 -55h2l44 55h81z" />
    <glyph glyph-name="ccaron" unicode="&#x10d;" horiz-adv-x="313" 
d="M294 93l11 -83q-30 -16 -82 -16q-89 0 -140.5 64t-51.5 181q0 111 57 182.5t152 71.5q44 0 70 -14l-16 -85q-24 11 -52 11q-50 0 -77.5 -46.5t-27.5 -117.5q0 -74 28 -116.5t77 -42.5q31 0 52 11zM234 548h-74l-82 138h75l43 -83h2l43 83h76z" />
    <glyph glyph-name="Dcaron" unicode="&#x10e;" horiz-adv-x="470" 
d="M59 2v662q50 13 120 13q113 0 174 -56q89 -79 89 -272q0 -201 -87 -286q-67 -68 -198 -68q-56 0 -98 7zM165 588v-503q9 -2 26 -2q62 0 101.5 62t39.5 205q0 241 -136 241q-18 0 -31 -3zM251 710h-86l-86 104h83l45 -55h2l44 55h81z" />
    <glyph glyph-name="dcaron" unicode="&#x10f;" horiz-adv-x="435" 
d="M270 692h106v-561q0 -57 4 -131h-91l-7 58h-3q-13 -28 -40 -47t-61 -19q-69 0 -108 68.5t-39 181.5q0 121 44 186.5t108 65.5q60 0 85 -53h2v251zM270 171v129q0 20 -2 30q-3 31 -19 52.5t-39 21.5q-38 0 -55.5 -46t-17.5 -118q0 -74 19 -117t52 -43q42 0 58 60
q4 12 4 31zM461 497l-43 30q30 44 30 89q0 42 -30 68l70 12q34 -24 34 -73q0 -65 -61 -126z" />
    <glyph glyph-name="Dcroat" unicode="&#x110;" horiz-adv-x="475" 
d="M0 312v76h64v276q50 13 120 13q113 0 174 -56q89 -79 89 -273q0 -201 -87 -286q-67 -68 -198 -68q-56 0 -98 7v311h-64zM257 388v-76h-87v-228q9 -2 26 -2q62 0 101.5 62.5t39.5 205.5q0 241 -136 241q-17 0 -31 -3v-200h87z" />
    <glyph glyph-name="dcroat" unicode="&#x111;" horiz-adv-x="425" 
d="M435 537h-59v-406q0 -57 4 -131h-91l-7 58h-3q-13 -28 -40 -47t-61 -19q-69 0 -108 68.5t-39 181.5q0 121 44 186.5t108 65.5q60 0 85 -53h2v96h-130v69h130v86h106v-86h59v-69zM270 171v129q0 20 -2 30q-3 31 -19 52.5t-39 21.5q-38 0 -55.5 -46t-17.5 -118
q0 -74 19 -117t52 -43q42 0 58 60q4 12 4 31z" />
    <glyph glyph-name="Emacron" unicode="&#x112;" horiz-adv-x="376" 
d="M326 396v-89h-160v-214h182v-93h-289v674h277v-93h-170v-185h160zM85 803h225v-67h-225v67z" />
    <glyph glyph-name="emacron" unicode="&#x113;" horiz-adv-x="394" 
d="M363 215h-229q1 -139 109 -139q47 0 87 17l16 -76q-51 -23 -123 -23q-93 0 -143 63.5t-50 178.5q0 118 51 188t131 70q74 0 114 -60.5t40 -161.5q0 -38 -3 -57zM134 291h133q1 57 -16.5 90t-46.5 33q-33 0 -50.5 -37t-19.5 -86zM98 645h205v-64h-205v64z" />
    <glyph glyph-name="Ebreve" unicode="&#x114;" horiz-adv-x="376" 
d="M326 396v-89h-160v-214h182v-93h-289v674h277v-93h-170v-185h160zM85 819h59q5 -43 55 -43q51 0 56 43h59q0 -49 -30 -78t-84 -29q-55 0 -85 28.5t-30 78.5z" />
    <glyph glyph-name="ebreve" unicode="&#x115;" horiz-adv-x="394" 
d="M363 215h-229q1 -139 109 -139q47 0 87 17l16 -76q-51 -23 -123 -23q-93 0 -143 63.5t-50 178.5q0 118 51 188t131 70q74 0 114 -60.5t40 -161.5q0 -38 -3 -57zM134 291h133q1 57 -16.5 90t-46.5 33q-33 0 -50.5 -37t-19.5 -86zM91 675h55q2 -26 18 -41.5t39 -15.5
q27 0 43 16t16 41h54q2 -53 -30 -87t-84 -34t-82.5 34.5t-28.5 86.5z" />
    <glyph glyph-name="Edotaccent" unicode="&#x116;" horiz-adv-x="376" 
d="M326 396v-89h-160v-214h182v-93h-289v674h277v-93h-170v-185h160zM198 721q-22 0 -38 16.5t-16 38.5q0 23 16 39t39 16t38.5 -16t15.5 -39t-16 -39t-39 -16z" />
    <glyph glyph-name="edotaccent" unicode="&#x117;" horiz-adv-x="394" 
d="M363 215h-229q1 -139 109 -139q47 0 87 17l16 -76q-51 -23 -123 -23q-93 0 -143 63.5t-50 178.5q0 118 51 188t131 70q74 0 114 -60.5t40 -161.5q0 -38 -3 -57zM134 291h133q1 57 -16.5 90t-46.5 33q-33 0 -50.5 -37t-19.5 -86zM205 564q-21 0 -36.5 15.5t-15.5 39.5
t15.5 39.5t37.5 15.5t37 -15.5t15 -39.5t-15 -39.5t-38 -15.5z" />
    <glyph glyph-name="Eogonek" unicode="&#x118;" horiz-adv-x="376" 
d="M344 -125l13 -56q-33 -23 -86 -23q-40 0 -63 22t-23 60q0 65 73 122h-199v674h277v-93h-170v-185h160v-89h-160v-214h182v-93q-4 0 -14 -2q-70 -51 -70 -95q0 -35 38 -35q25 0 42 7z" />
    <glyph glyph-name="eogonek" unicode="&#x119;" horiz-adv-x="394" 
d="M305 -120l19 -54q-37 -29 -86 -29q-42 0 -65 22t-23 57q0 33 21 64.5t50 52.5v1h-4q-91 2 -139 65.5t-48 176.5q0 118 51 188t131 70q74 0 114 -60.5t40 -161.5q0 -39 -3 -57h-229q1 -139 109 -139q45 0 87 17l15 -76q-15 -7 -33 -12q-37 -21 -61 -50t-24 -53
q0 -17 9.5 -25.5t22.5 -8.5q22 0 46 12zM135 291h132q1 57 -16.5 90t-46.5 33q-32 0 -49.5 -37t-19.5 -86z" />
    <glyph glyph-name="Ecaron" unicode="&#x11a;" horiz-adv-x="376" 
d="M326 396v-89h-160v-214h182v-93h-289v674h277v-93h-170v-185h160zM242 710h-86l-86 104h83l45 -55h2l44 55h81z" />
    <glyph glyph-name="ecaron" unicode="&#x11b;" horiz-adv-x="394" 
d="M363 215h-229q1 -139 109 -139q47 0 87 17l16 -76q-51 -23 -123 -23q-93 0 -143 63.5t-50 178.5q0 118 51 188t131 70q74 0 114 -60.5t40 -161.5q0 -38 -3 -57zM134 291h133q1 57 -16.5 90t-46.5 33q-33 0 -50.5 -37t-19.5 -86zM239 548h-74l-82 138h75l43 -83h2l43 83
h76z" />
    <glyph glyph-name="Gcircumflex" unicode="&#x11c;" horiz-adv-x="456" 
d="M414 366v-348q-58 -24 -131 -24q-108 0 -171 66q-86 89 -84 270q1 91 24.5 161t63 110t86 59.5t98.5 19.5q66 0 104 -20l-21 -92q-29 16 -77 16q-73 0 -120 -61t-47 -194q0 -127 40.5 -185.5t100.5 -58.5q25 0 35 5v188h-72v88h171zM219 814h86l86 -104h-83l-45 53h-2
l-44 -53h-81z" />
    <glyph glyph-name="gcircumflex" unicode="&#x11d;" horiz-adv-x="425" 
d="M377 334v-276q0 -83 -13 -129.5t-41 -75.5q-51 -53 -145 -53q-66 0 -116 24l22 82q42 -21 92 -21q95 0 95 132v38h-2q-27 -53 -90 -53q-71 0 -109.5 68t-38.5 170q0 120 46.5 187t112.5 67q59 0 90 -59h2l6 52h94q-5 -67 -5 -153zM271 178v135q0 19 -5 36q-15 55 -54 55
q-37 0 -56 -44.5t-19 -116.5q0 -76 20.5 -116t52.5 -40q40 0 55 50q6 16 6 41zM178 686h74l82 -138h-75l-43 83h-2l-43 -83h-76z" />
    <glyph glyph-name="Gbreve" unicode="&#x11e;" horiz-adv-x="456" 
d="M414 366v-348q-58 -24 -131 -24q-108 0 -171 66q-86 89 -84 270q1 91 24.5 161t63 110t86 59.5t98.5 19.5q66 0 104 -20l-21 -92q-29 16 -77 16q-73 0 -120 -61t-47 -194q0 -127 40.5 -185.5t100.5 -58.5q25 0 35 5v188h-72v88h171zM151 816h59q5 -43 55 -43q51 0 56 43
h59q0 -49 -30 -78t-84 -29q-55 0 -85 28.5t-30 78.5z" />
    <glyph glyph-name="gbreve" unicode="&#x11f;" horiz-adv-x="425" 
d="M377 334v-276q0 -83 -13 -129.5t-41 -75.5q-51 -53 -145 -53q-66 0 -116 24l22 82q42 -21 92 -21q95 0 95 132v38h-2q-27 -53 -90 -53q-71 0 -109.5 68t-38.5 170q0 120 46.5 187t112.5 67q59 0 90 -59h2l6 52h94q-5 -67 -5 -153zM271 178v135q0 19 -5 36q-15 55 -54 55
q-37 0 -56 -44.5t-19 -116.5q0 -76 20.5 -116t52.5 -40q40 0 55 50q6 16 6 41zM105 675h55q2 -26 18 -41.5t39 -15.5q27 0 43 16t16 41h54q2 -53 -30 -87t-84 -34t-82.5 34.5t-28.5 86.5z" />
    <glyph glyph-name="Gdotaccent" unicode="&#x120;" horiz-adv-x="456" 
d="M414 366v-348q-58 -24 -131 -24q-108 0 -171 66q-86 89 -84 270q1 91 24.5 161t63 110t86 59.5t98.5 19.5q66 0 104 -20l-21 -92q-29 16 -77 16q-73 0 -120 -61t-47 -194q0 -127 40.5 -185.5t100.5 -58.5q25 0 35 5v188h-72v88h171zM264 716q-22 0 -38 16.5t-16 38.5
q0 23 16 39t39 16t38.5 -16t15.5 -39t-16 -39t-39 -16z" />
    <glyph glyph-name="gdotaccent" unicode="&#x121;" horiz-adv-x="425" 
d="M377 334v-276q0 -83 -13 -129.5t-41 -75.5q-51 -53 -145 -53q-66 0 -116 24l22 82q42 -21 92 -21q95 0 95 132v38h-2q-27 -53 -90 -53q-71 0 -109.5 68t-38.5 170q0 120 46.5 187t112.5 67q59 0 90 -59h2l6 52h94q-5 -67 -5 -153zM271 178v135q0 19 -5 36q-15 55 -54 55
q-37 0 -56 -44.5t-19 -116.5q0 -76 20.5 -116t52.5 -40q40 0 55 50q6 16 6 41zM216 564q-21 0 -36.5 15.5t-15.5 39.5t15.5 39.5t37.5 15.5t37 -15.5t15 -39.5t-15 -39.5t-38 -15.5z" />
    <glyph glyph-name="Gcommaaccent" unicode="&#x122;" horiz-adv-x="456" 
d="M414 366v-348q-58 -24 -131 -24q-108 0 -171 66q-86 89 -84 270q1 91 24.5 161t63 110t86 59.5t98.5 19.5q66 0 104 -20l-21 -92q-29 16 -77 16q-73 0 -120 -61t-47 -194q0 -127 40.5 -185.5t100.5 -58.5q25 0 35 5v188h-72v88h171zM206 -219l-19 48q61 17 61 57
q0 32 -33 61l80 12q36 -23 36 -71q0 -47 -35 -73.5t-90 -33.5z" />
    <glyph glyph-name="gcommaaccent" unicode="&#x123;" horiz-adv-x="425" 
d="M377 334v-276q0 -83 -13 -129.5t-41 -75.5q-51 -53 -145 -53q-66 0 -116 24l22 82q42 -21 92 -21q95 0 95 132v38h-2q-27 -53 -90 -53q-71 0 -109.5 68t-38.5 170q0 120 46.5 187t112.5 67q59 0 90 -59h2l6 52h94q-5 -67 -5 -153zM271 178v135q0 19 -5 36q-15 55 -54 55
q-37 0 -56 -44.5t-19 -116.5q0 -76 20.5 -116t52.5 -40q40 0 55 50q6 16 6 41zM280 713l19 -44q-67 -15 -67 -61q0 -34 36 -62l-77 -12q-36 28 -36 72q0 48 35 74t90 33z" />
    <glyph glyph-name="Hcircumflex" unicode="&#x124;" horiz-adv-x="492" 
d="M59 674h107v-279h160v279h107v-674h-107v297h-160v-297h-107v674zM203 814h86l86 -104h-83l-45 53h-2l-44 -53h-81z" />
    <glyph glyph-name="hcircumflex" unicode="&#x125;" horiz-adv-x="434" 
d="M49 0v692h107v-257h2q16 25 42 41q29 18 65 18q58 0 89 -47.5t31 -139.5v-307h-107v303q0 101 -56 101q-46 0 -62 -60q-4 -18 -4 -36v-308h-107zM60 827h86l86 -104h-83l-45 53h-2l-44 -53h-81z" />
    <glyph glyph-name="Hbar" unicode="&#x126;" horiz-adv-x="492" 
d="M478 476h-45v-476h-107v283h-160v-283h-107v476h-45v74h45v124h107v-124h160v124h107v-124h45v-74zM326 381v95h-160v-95h160z" />
    <glyph glyph-name="hbar" unicode="&#x127;" horiz-adv-x="434" 
d="M385 0h-107v303q0 101 -56 101q-46 0 -62 -60q-4 -18 -4 -36v-308h-107v537h-60v69h60v86h107v-86h133v-69h-133v-102h2q16 25 42 41q29 18 65 18q58 0 89 -47.5t31 -139.5v-307z" />
    <glyph glyph-name="Itilde" unicode="&#x128;" horiz-adv-x="226" 
d="M59 674h107v-674h-107v674zM51 718h-51q-1 49 16 77.5t47 28.5q24 0 50 -18q28 -17 39 -17q21 0 25 37h50q3 -103 -66 -103q-24 0 -52 16q-25 16 -35 16q-20 0 -23 -37z" />
    <glyph glyph-name="itilde" unicode="&#x129;" horiz-adv-x="205" 
d="M156 0h-107v487h107v-487zM39 559h-52q0 47 17.5 77t49.5 30q18 0 54 -18q26 -16 38 -16q11 0 16.5 7.5t6.5 29.5h50q0 -103 -67 -103q-19 0 -51 16q-4 2 -10 6t-10 6t-8.5 3.5t-9.5 1.5q-22 0 -24 -40z" />
    <glyph glyph-name="Imacron" unicode="&#x12a;" horiz-adv-x="226" 
d="M59 674h107v-674h-107v674zM1 803h225v-67h-225v67z" />
    <glyph glyph-name="imacron" unicode="&#x12b;" horiz-adv-x="205" 
d="M156 0h-107v487h107v-487zM1 645h205v-64h-205v64z" />
    <glyph glyph-name="Ibreve" unicode="&#x12c;" horiz-adv-x="226" 
d="M59 674h107v-674h-107v674zM-2 820h59q5 -43 55 -43q51 0 56 43h59q0 -49 -30 -78t-84 -29q-55 0 -85 28.5t-30 78.5z" />
    <glyph glyph-name="ibreve" unicode="&#x12d;" horiz-adv-x="205" 
d="M156 0h-107v487h107v-487zM-10 675h55q2 -26 18 -41.5t39 -15.5q28 0 44 16t16 41h54q2 -53 -30 -87t-85 -34q-52 0 -82.5 34.5t-28.5 86.5z" />
    <glyph glyph-name="Iogonek" unicode="&#x12e;" horiz-adv-x="226" 
d="M166 674v-674h-39q-32 -49 -32 -89q0 -21 12 -33t29 -12q24 0 40 7l14 -56q-33 -23 -81 -23q-43 0 -67 24t-24 64q0 49 41 118v674h107z" />
    <glyph glyph-name="iogonek" unicode="&#x12f;" horiz-adv-x="205" 
d="M100 552q-24 0 -40 17.5t-15 44.5q-1 28 15.5 45t41.5 17t41 -17t16 -45q1 -28 -16 -45t-43 -17zM156 487v-487h-38q-32 -49 -32 -90q0 -20 12 -32t29 -12q24 0 40 7l14 -56q-33 -23 -81 -23q-44 0 -67.5 24t-23.5 66q0 43 40 116v487h107z" />
    <glyph glyph-name="Idotaccent" unicode="&#x130;" horiz-adv-x="226" 
d="M59 674h107v-674h-107v674zM113 721q-22 0 -38 16.5t-16 38.5q0 23 16 39t39 16t38.5 -16t15.5 -39t-16 -39t-39 -16z" />
    <glyph glyph-name="dotlessi" unicode="&#x131;" horiz-adv-x="205" 
d="M156 0h-107v487h107v-487z" />
    <glyph glyph-name="IJ" unicode="&#x132;" horiz-adv-x="508" 
d="M59 674h107v-674h-107v674zM350 200v474h107v-470q0 -121 -46.5 -166.5t-128.5 -45.5q-37 0 -59 8l9 90q15 -4 40 -4q39 0 58.5 23.5t19.5 90.5z" />
    <glyph glyph-name="ij" unicode="&#x133;" horiz-adv-x="414" 
d="M156 0h-107v487h107v-487zM101 676q26 0 42 -17t16 -45t-16.5 -45t-42.5 -17q-24 0 -40 17.5t-16 44.5q0 28 16.5 45t40.5 17zM181 -200l-10 85q47 8 64 31q23 29 23 141v430h107v-454q0 -77 -14 -120t-44 -69q-48 -42 -126 -44zM312 676q25 0 41 -17t16 -45t-16.5 -45
t-42.5 -17q-24 0 -40 17.5t-16 44.5q0 28 16.5 45t41.5 17z" />
    <glyph glyph-name="Jcircumflex" unicode="&#x134;" horiz-adv-x="282" 
d="M124 200v474h107v-470q0 -121 -46.5 -166.5t-128.5 -45.5q-37 0 -59 8l9 90q15 -4 40 -4q39 0 58.5 23.5t19.5 90.5zM131 814h86l86 -104h-83l-45 53h-2l-44 -53h-81z" />
    <glyph glyph-name="jcircumflex" unicode="&#x135;" horiz-adv-x="208" 
d="M-24 -200l-10 85q47 8 64 31q23 29 23 141v430h107v-454q0 -77 -14 -120t-44 -69q-48 -42 -126 -44zM67 681h74l82 -138h-75l-43 83h-2l-43 -83h-76z" />
    <glyph glyph-name="Kcommaaccent" unicode="&#x136;" horiz-adv-x="434" 
d="M59 0v674h106v-311h3l36 85l106 226h118l-157 -291l160 -383h-116l-116 300l-34 -60v-240h-106zM167 -215l-19 48q61 17 61 57q0 32 -33 61l80 12q36 -23 36 -71q0 -47 -35 -73.5t-90 -33.5z" />
    <glyph glyph-name="kcommaaccent" unicode="&#x137;" horiz-adv-x="386" 
d="M155 692v-424h2q9 24 25 62l78 157h115l-122 -204l131 -283h-119l-85 213l-25 -43v-170h-106v692h106zM137 -219l-19 48q61 17 61 57q0 32 -33 61l80 12q36 -23 36 -71q0 -47 -35 -73.5t-90 -33.5z" />
    <glyph glyph-name="kgreenlandic" unicode="&#x138;" horiz-adv-x="386" 
d="M155 487v-219h2q9 24 25 62l78 157h115l-122 -204l131 -283h-119l-85 213l-25 -43v-170h-106v487h106z" />
    <glyph glyph-name="Lacute" unicode="&#x139;" horiz-adv-x="364" 
d="M59 0v674h107v-584h180v-90h-287zM159 821h114l-123 -111h-79z" />
    <glyph glyph-name="lacute" unicode="&#x13a;" horiz-adv-x="210" 
d="M49 0v692h107v-692h-107zM138 833h114l-123 -111h-79z" />
    <glyph glyph-name="Lcommaaccent" unicode="&#x13b;" horiz-adv-x="364" 
d="M59 0v674h107v-584h180v-90h-287zM126 -219l-19 48q61 17 61 57q0 32 -33 61l80 12q36 -23 36 -71q0 -47 -35 -73.5t-90 -33.5z" />
    <glyph glyph-name="lcommaaccent" unicode="&#x13c;" horiz-adv-x="210" 
d="M49 0v692h107v-692h-107zM46 -219l-19 48q61 17 61 57q0 32 -33 61l80 12q36 -23 36 -71q0 -47 -35 -73.5t-90 -33.5z" />
    <glyph glyph-name="Lcaron" unicode="&#x13d;" horiz-adv-x="364" 
d="M59 0v674h107v-584h180v-90h-287zM220 496l-19 48q61 17 61 57q0 30 -33 61l80 12q36 -25 36 -71q0 -47 -35 -73.5t-90 -33.5z" />
    <glyph glyph-name="lcaron" unicode="&#x13e;" horiz-adv-x="215" 
d="M49 0v692h107v-692h-107zM239 498l-43 30q30 44 30 89q0 41 -30 67l70 12q34 -22 34 -73q0 -64 -61 -125z" />
    <glyph glyph-name="Ldot" unicode="&#x13f;" horiz-adv-x="364" 
d="M59 0v674h107v-584h180v-90h-287zM270 308q-22 0 -38 16.5t-16 38.5q0 23 16 39t39 16t38.5 -16t15.5 -39t-16 -39t-39 -16z" />
    <glyph glyph-name="ldot" unicode="&#x140;" horiz-adv-x="282" 
d="M49 0v692h107v-692h-107zM245 352q-20 0 -34.5 15.5t-14.5 38.5t14.5 38.5t35.5 15.5t34.5 -15t13.5 -39q0 -23 -14 -38.5t-35 -15.5z" />
    <glyph glyph-name="Lslash" unicode="&#x141;" horiz-adv-x="368" 
d="M350 0h-287v244l-64 -55v92l64 55v338h107v-259l99 85v-93l-99 -85v-232h180v-90z" />
    <glyph glyph-name="lslash" unicode="&#x142;" horiz-adv-x="214" 
d="M161 0h-107v284l-58 -54v91l58 55v316h107v-247l59 56v-92l-59 -55v-354z" />
    <glyph glyph-name="Nacute" unicode="&#x143;" horiz-adv-x="493" 
d="M153 0h-94v674h98l114 -288q57 -145 79 -213h2q-12 172 -12 311v190h94v-674h-98l-115 287q-50 123 -74 214h-2q8 -125 8 -313v-188zM289 821h114l-123 -111h-79z" />
    <glyph glyph-name="nacute" unicode="&#x144;" horiz-adv-x="434" 
d="M49 0v350q0 51 -4 137h93l5 -58h2q38 65 115 65q61 0 93 -45.5t32 -130.5v-318h-107v308q0 96 -57 96q-20 0 -36.5 -15.5t-23.5 -43.5q-5 -18 -5 -45v-300h-107zM250 686h99l-103 -138h-68z" />
    <glyph glyph-name="Ncommaaccent" unicode="&#x145;" horiz-adv-x="493" 
d="M153 0h-94v674h98l114 -288q57 -145 79 -213h2q-12 172 -12 311v190h94v-674h-98l-115 287q-50 123 -74 214h-2q8 -125 8 -313v-188zM186 -214l-19 48q61 18 61 57q0 32 -33 61l80 12q36 -23 36 -71q0 -47 -35 -73.5t-90 -33.5z" />
    <glyph glyph-name="ncommaaccent" unicode="&#x146;" horiz-adv-x="434" 
d="M49 0v350q0 51 -4 137h93l5 -58h2q38 65 115 65q61 0 93 -45.5t32 -130.5v-318h-107v308q0 96 -57 96q-20 0 -36.5 -15.5t-23.5 -43.5q-5 -18 -5 -45v-300h-107zM162 -216l-19 48q61 17 61 57q0 32 -33 61l80 12q36 -23 36 -71q0 -47 -35 -73.5t-90 -33.5z" />
    <glyph glyph-name="Ncaron" unicode="&#x147;" horiz-adv-x="493" 
d="M153 0h-94v674h98l114 -288q57 -145 79 -213h2q-12 172 -12 311v190h94v-674h-98l-115 287q-50 123 -74 214h-2q8 -125 8 -313v-188zM290 710h-86l-86 104h83l45 -55h2l44 55h81z" />
    <glyph glyph-name="ncaron" unicode="&#x148;" horiz-adv-x="434" 
d="M49 0v350q0 51 -4 137h93l5 -58h2q38 65 115 65q61 0 93 -45.5t32 -130.5v-318h-107v308q0 96 -57 96q-20 0 -36.5 -15.5t-23.5 -43.5q-5 -18 -5 -45v-300h-107zM254 548h-74l-82 138h75l43 -83h2l43 83h76z" />
    <glyph glyph-name="napostrophe" unicode="&#x149;" horiz-adv-x="434" 
d="M49 0v350q0 51 -4 137h93l5 -58h2q38 65 115 65q61 0 93 -45.5t32 -130.5v-318h-107v308q0 96 -57 96q-20 0 -36.5 -15.5t-23.5 -43.5q-5 -18 -5 -45v-300h-107zM53 523l-48 27q30 37 30 79q0 39 -30 61l76 11q34 -22 34 -66q0 -60 -62 -112z" />
    <glyph glyph-name="Eng" unicode="&#x14a;" horiz-adv-x="493" 
d="M153 0h-94v674h98l114 -288q57 -145 79 -213h2q-12 172 -12 311v190h94v-647q0 -192 -155 -222l-26 81q85 25 85 103l-117 298q-50 123 -74 214h-2q8 -125 8 -313v-188z" />
    <glyph glyph-name="eng" unicode="&#x14b;" horiz-adv-x="434" 
d="M49 0v350q0 51 -4 137h93l5 -58h2q38 65 115 65q61 0 93 -45.5t32 -130.5v-284q0 -189 -157 -216l-23 83q37 9 55 35.5t18 85.5v286q0 96 -57 96q-20 0 -36.5 -15.5t-23.5 -43.5q-5 -18 -5 -45v-300h-107z" />
    <glyph glyph-name="Omacron" unicode="&#x14c;" horiz-adv-x="465" 
d="M240 682q68 0 113.5 -47.5t64.5 -120.5t19 -168q0 -181 -56.5 -267.5t-151.5 -86.5q-98 0 -149.5 94t-51.5 252q0 155 56 249.5t156 94.5zM234 589q-48 0 -71.5 -69.5t-23.5 -182.5q0 -116 23.5 -184t72.5 -68q91 0 91 256q0 67 -7.5 119.5t-29 90.5t-55.5 38zM121 803
h225v-67h-225v67z" />
    <glyph glyph-name="omacron" unicode="&#x14d;" horiz-adv-x="410" 
d="M208 494q78 0 124.5 -66t46.5 -184q0 -70 -16.5 -121.5t-43.5 -78.5t-56 -39.5t-59 -12.5q-79 0 -126 65t-47 185q0 124 51 188t126 64zM206 412q-38 0 -53.5 -50.5t-15.5 -117.5q0 -170 71 -170q65 0 65 170q0 67 -15 117.5t-52 50.5zM103 645h205v-64h-205v64z" />
    <glyph glyph-name="Obreve" unicode="&#x14e;" horiz-adv-x="465" 
d="M240 682q68 0 113.5 -47.5t64.5 -120.5t19 -168q0 -181 -56.5 -267.5t-151.5 -86.5q-98 0 -149.5 94t-51.5 252q0 155 56 249.5t156 94.5zM234 589q-48 0 -71.5 -69.5t-23.5 -182.5q0 -116 23.5 -184t72.5 -68q91 0 91 256q0 67 -7.5 119.5t-29 90.5t-55.5 38zM117 821
h59q5 -43 55 -43q51 0 56 43h59q0 -49 -30 -78t-84 -29q-55 0 -85 28.5t-30 78.5z" />
    <glyph glyph-name="obreve" unicode="&#x14f;" horiz-adv-x="410" 
d="M208 494q78 0 124.5 -66t46.5 -184q0 -70 -16.5 -121.5t-43.5 -78.5t-56 -39.5t-59 -12.5q-79 0 -126 65t-47 185q0 124 51 188t126 64zM206 412q-38 0 -53.5 -50.5t-15.5 -117.5q0 -170 71 -170q65 0 65 170q0 67 -15 117.5t-52 50.5zM91 675h55q2 -26 18 -41.5
t39 -15.5q28 0 44 16t16 41h54q2 -53 -30 -87t-85 -34q-52 0 -82.5 34.5t-28.5 86.5z" />
    <glyph glyph-name="Ohungarumlaut" unicode="&#x150;" horiz-adv-x="465" 
d="M240 682q68 0 113.5 -47.5t64.5 -120.5t19 -168q0 -181 -56.5 -267.5t-151.5 -86.5q-98 0 -149.5 94t-51.5 252q0 155 56 249.5t156 94.5zM234 589q-48 0 -71.5 -69.5t-23.5 -182.5q0 -116 23.5 -184t72.5 -68q91 0 91 256q0 67 -7.5 119.5t-29 90.5t-55.5 38zM197 821
h96l-96 -105h-64zM335 821h95l-95 -105h-64z" />
    <glyph glyph-name="ohungarumlaut" unicode="&#x151;" horiz-adv-x="410" 
d="M208 494q78 0 124.5 -66t46.5 -184q0 -70 -16.5 -121.5t-43.5 -78.5t-56 -39.5t-59 -12.5q-79 0 -126 65t-47 185q0 124 51 188t126 64zM206 412q-38 0 -53.5 -50.5t-15.5 -117.5q0 -170 71 -170q65 0 65 170q0 67 -15 117.5t-52 50.5zM181 686h84l-102 -138h-57z
M312 686h84l-102 -138h-57z" />
    <glyph glyph-name="OE" unicode="&#x152;" horiz-adv-x="632" 
d="M604 93v-93h-256q-28 -2 -39 -4q-28 -4 -40 -4q-68 0 -116.5 28t-75 78.5t-38 108.5t-11.5 128q0 159 65.5 253t183.5 94q15 0 41 -4q12 -2 36 -4h238v-93h-170v-185h160v-89h-160v-214h182zM315 93v485q-17 11 -48 11q-52 0 -90.5 -61.5t-37.5 -188.5q-1 -132 36.5 -193
t96.5 -61q29 0 43 8z" />
    <glyph glyph-name="oe" unicode="&#x153;" horiz-adv-x="640" 
d="M610 218h-229q5 -144 108 -144q41 0 89 18l16 -73q-45 -27 -122 -27q-102 0 -142 91h-2q-18 -45 -53.5 -68t-75.5 -23q-75 0 -121.5 65t-46.5 185q0 122 51.5 187t124.5 65q41 0 75 -22.5t50 -66.5h2q45 89 132 89q69 0 107.5 -62t38.5 -160q0 -32 -2 -54zM208 412
q-71 0 -71 -169t72 -169q70 0 70 171q0 167 -71 167zM383 290h130q1 57 -15 90.5t-43 33.5q-33 0 -51.5 -37t-20.5 -87z" />
    <glyph glyph-name="Racute" unicode="&#x154;" horiz-adv-x="443" 
d="M59 0v664q53 13 128 13q115 0 167 -49q51 -48 51 -137q0 -59 -27.5 -103t-78.5 -67v-2q35 -12 55 -46.5t31 -95.5q24 -142 41 -177h-111q-17 40 -34 164q-10 65 -30.5 90.5t-61.5 25.5h-24v-280h-106zM165 589v-227h28q47 0 75.5 33t28.5 86q0 111 -96 112q-24 0 -36 -4z
M248 821h114l-123 -111h-79z" />
    <glyph glyph-name="racute" unicode="&#x155;" horiz-adv-x="273" 
d="M49 0v350q0 55 -4 137h93l6 -74h3q14 37 41.5 59t57.5 22q9 0 23 -2v-106q-7 1 -23 1q-29 0 -53 -22.5t-33 -61.5q-4 -22 -4 -46v-257h-107zM178 686h98l-103 -138h-68z" />
    <glyph glyph-name="Rcommaaccent" unicode="&#x156;" horiz-adv-x="443" 
d="M59 0v664q53 13 128 13q115 0 167 -49q51 -48 51 -137q0 -59 -27.5 -103t-78.5 -67v-2q35 -12 55 -46.5t31 -95.5q24 -142 41 -177h-111q-17 40 -34 164q-10 65 -30.5 90.5t-61.5 25.5h-24v-280h-106zM165 589v-227h28q47 0 75.5 33t28.5 86q0 111 -96 112q-24 0 -36 -4z
M165 -215l-19 48q61 17 61 57q0 32 -33 61l80 12q36 -23 36 -71q0 -47 -35 -73.5t-90 -33.5z" />
    <glyph glyph-name="rcommaaccent" unicode="&#x157;" horiz-adv-x="273" 
d="M49 0v350q0 55 -4 137h93l6 -74h3q14 37 41.5 59t57.5 22q9 0 23 -2v-106q-7 1 -23 1q-29 0 -53 -22.5t-33 -61.5q-4 -22 -4 -46v-257h-107zM63 -219l-19 48q61 17 61 57q0 32 -33 61l80 12q36 -23 36 -71q0 -47 -35 -73.5t-90 -33.5z" />
    <glyph glyph-name="Rcaron" unicode="&#x158;" horiz-adv-x="443" 
d="M59 0v664q53 13 128 13q115 0 167 -49q51 -48 51 -137q0 -59 -27.5 -103t-78.5 -67v-2q35 -12 55 -46.5t31 -95.5q24 -142 41 -177h-111q-17 40 -34 164q-10 65 -30.5 90.5t-61.5 25.5h-24v-280h-106zM165 589v-227h28q47 0 75.5 33t28.5 86q0 111 -96 112q-24 0 -36 -4z
M260 710h-86l-86 104h83l45 -55h2l44 55h81z" />
    <glyph glyph-name="rcaron" unicode="&#x159;" horiz-adv-x="273" 
d="M49 0v350q0 55 -4 137h93l6 -74h3q14 37 41.5 59t57.5 22q9 0 23 -2v-106q-7 1 -23 1q-29 0 -53 -22.5t-33 -61.5q-4 -22 -4 -46v-257h-107zM185 548h-75l-82 138h75l43 -83h2l43 83h76z" />
    <glyph glyph-name="Sacute" unicode="&#x15a;" horiz-adv-x="379" 
d="M26 22l18 92q45 -27 104 -27q49 0 75.5 25.5t26.5 68.5q0 38 -21 64.5t-67 58.5q-59 37 -93 86t-34 102q0 82 52.5 135t144.5 53q61 0 100 -24l-19 -92q-36 23 -83 23q-43 0 -66.5 -24t-23.5 -58q0 -37 20.5 -61t75.5 -59q119 -78 119 -193q0 -90 -57.5 -144t-149.5 -54
q-80 0 -122 28zM227 821h114l-123 -111h-79z" />
    <glyph glyph-name="sacute" unicode="&#x15b;" horiz-adv-x="308" 
d="M20 22l21 79q39 -26 84 -26q29 0 45 14.5t16 41.5q0 23 -13 40t-46 38q-99 60 -99 140q0 63 41.5 104t107.5 41q51 0 93 -24l-21 -79q-33 21 -67 21q-26 0 -40.5 -14.5t-14.5 -35.5q0 -20 12 -35t46 -37q100 -58 100 -147q0 -72 -44.5 -110.5t-116.5 -38.5q-69 0 -104 28
zM187 686h99l-103 -138h-68z" />
    <glyph glyph-name="Scircumflex" unicode="&#x15c;" horiz-adv-x="379" 
d="M26 22l18 92q45 -27 104 -27q49 0 75.5 25.5t26.5 68.5q0 38 -21 64.5t-67 58.5q-59 37 -93 86t-34 102q0 82 52.5 135t144.5 53q61 0 100 -24l-19 -92q-36 23 -83 23q-43 0 -66.5 -24t-23.5 -58q0 -37 20.5 -61t75.5 -59q119 -78 119 -193q0 -90 -57.5 -144t-149.5 -54
q-80 0 -122 28zM154 814h86l86 -104h-83l-45 53h-2l-44 -53h-81z" />
    <glyph glyph-name="scircumflex" unicode="&#x15d;" horiz-adv-x="308" 
d="M20 22l21 79q39 -26 84 -26q29 0 45 14.5t16 41.5q0 23 -13 40t-46 38q-99 60 -99 140q0 63 41.5 104t107.5 41q51 0 93 -24l-21 -79q-33 21 -67 21q-26 0 -40.5 -14.5t-14.5 -35.5q0 -20 12 -35t46 -37q100 -58 100 -147q0 -72 -44.5 -110.5t-116.5 -38.5q-69 0 -104 28
zM117 686h75l82 -138h-75l-44 83h-2l-42 -83h-76z" />
    <glyph glyph-name="Scedilla" unicode="&#x15e;" horiz-adv-x="379" 
d="M26 22l18 92q45 -27 104 -27q49 0 75.5 25.5t26.5 68.5q0 38 -21 64.5t-67 58.5q-59 37 -93 86t-34 102q0 82 52.5 135t144.5 53q60 0 101 -24l-20 -92q-36 23 -83 23q-43 0 -66.5 -24t-23.5 -58q0 -37 20.5 -61t75.5 -59q119 -78 119 -193q0 -71 -37.5 -121t-100.5 -68
l-25 -50q27 -4 46.5 -24t19.5 -48q0 -42 -29.5 -62.5t-72.5 -20.5q-42 0 -71 18l17 49q28 -14 52 -14q34 0 34 28q0 33 -69 40l34 75h-5q-80 0 -122 28z" />
    <glyph glyph-name="scedilla" unicode="&#x15f;" horiz-adv-x="308" 
d="M21 22l20 79q39 -26 84 -26q29 0 45 14.5t16 41.5q0 23 -13 40t-46 38q-99 60 -99 140q0 63 41.5 104t107.5 41q51 0 93 -24l-21 -79q-33 21 -67 21q-26 0 -40.5 -14.5t-14.5 -35.5q0 -20 12 -35t46 -37q100 -58 100 -147q0 -55 -27.5 -91t-75.5 -50l-24 -48
q28 -5 47 -24.5t19 -48.5q0 -42 -29.5 -62.5t-71.5 -20.5q-43 0 -72 18l18 49q28 -14 51 -14q34 0 34 27q0 34 -68 41l33 75h-2q-55 0 -96 28z" />
    <glyph glyph-name="Scaron" unicode="&#x160;" horiz-adv-x="379" 
d="M26 22l18 92q45 -27 104 -27q49 0 75.5 25.5t26.5 68.5q0 38 -21 64.5t-67 58.5q-59 37 -93 86t-34 102q0 82 52.5 135t144.5 53q61 0 100 -24l-19 -92q-36 23 -83 23q-43 0 -66.5 -24t-23.5 -58q0 -37 20.5 -61t75.5 -59q119 -78 119 -193q0 -90 -57.5 -144t-149.5 -54
q-80 0 -122 28zM247 710h-86l-86 104h83l45 -55h2l44 55h81z" />
    <glyph glyph-name="scaron" unicode="&#x161;" horiz-adv-x="308" 
d="M20 22l21 79q39 -26 84 -26q29 0 45 14.5t16 41.5q0 23 -13 40t-46 38q-99 60 -99 140q0 63 41.5 104t107.5 41q51 0 93 -24l-21 -79q-33 21 -67 21q-26 0 -40.5 -14.5t-14.5 -35.5q0 -20 12 -35t46 -37q100 -58 100 -147q0 -72 -44.5 -110.5t-116.5 -38.5q-69 0 -104 28
zM192 548h-74l-82 138h75l43 -83h2l43 83h76z" />
    <glyph glyph-name="Tcommaaccent" unicode="&#x162;" horiz-adv-x="376" 
d="M134 0v576h-121v98h349v-98h-121v-576h-107zM127 -219l-19 48q61 17 61 57q0 32 -33 61l80 12q36 -23 36 -71q0 -47 -35 -73.5t-90 -33.5z" />
    <glyph glyph-name="tcommaaccent" unicode="&#x163;" horiz-adv-x="286" 
d="M70 571l107 37v-121h94v-77h-94v-253q0 -75 50 -75q17 0 33 3l2 -83q-26 -8 -70 -8q-56 0 -86 30q-36 36 -36 132v254h-58v77h58v84zM92 -219l-19 48q61 17 61 57q0 32 -33 61l80 12q36 -23 36 -71q0 -47 -35 -73.5t-90 -33.5z" />
    <glyph glyph-name="Tcaron" unicode="&#x164;" horiz-adv-x="376" 
d="M134 0v576h-121v98h349v-98h-121v-576h-107zM231 710h-86l-86 104h83l45 -55h2l44 55h81z" />
    <glyph glyph-name="tcaron" unicode="&#x165;" horiz-adv-x="296" 
d="M70 571l107 37v-121h94v-77h-94v-253q0 -75 50 -75q17 0 33 3l2 -83q-26 -8 -70 -8q-56 0 -86 30q-36 36 -36 132v254h-58v77h58v84zM293 540l-47 27q29 35 29 82q0 37 -25 62l75 11q33 -24 33 -67q0 -60 -65 -115z" />
    <glyph glyph-name="Tbar" unicode="&#x166;" horiz-adv-x="376" 
d="M362 576h-121v-190h82v-75h-82v-311h-107v311h-82v75h82v190h-121v98h349v-98z" />
    <glyph glyph-name="tbar" unicode="&#x167;" horiz-adv-x="286" 
d="M271 410h-94v-92h74v-69h-74v-92q0 -75 50 -75q17 0 33 3l2 -83q-26 -8 -70 -8q-56 0 -86 30q-36 36 -36 132v93h-56v69h56v92h-58v77h58v84l107 37v-121h94v-77z" />
    <glyph glyph-name="Utilde" unicode="&#x168;" horiz-adv-x="481" 
d="M56 674h107v-444q0 -144 76 -144q78 0 78 144v444h107v-426q0 -128 -48 -192t-137 -64q-183 0 -183 251v431zM178 718h-51q-1 49 16 77.5t47 28.5q22 0 50 -18q26 -17 38 -17q21 0 25 37h50q3 -103 -66 -103q-25 0 -51 16q-25 16 -36 16q-19 0 -22 -37z" />
    <glyph glyph-name="utilde" unicode="&#x169;" horiz-adv-x="428" 
d="M377 487v-345q0 -60 4 -142h-93l-6 51h-2q-39 -59 -109 -59q-65 0 -95 48.5t-30 145.5v301h107v-288q0 -118 56 -118q22 0 36 15t19 33q6 16 6 42v316h107zM150 559h-52q0 47 17.5 77t49.5 30q19 0 53 -18q28 -16 39 -16t16.5 7.5t6.5 29.5h50q0 -103 -67 -103
q-19 0 -51 16q-4 2 -10 6t-10 6t-8.5 3.5t-9.5 1.5q-22 0 -24 -40z" />
    <glyph glyph-name="Umacron" unicode="&#x16a;" horiz-adv-x="481" 
d="M56 674h107v-444q0 -144 76 -144q78 0 78 144v444h107v-426q0 -128 -48 -192t-137 -64q-183 0 -183 251v431zM127 803h225v-67h-225v67z" />
    <glyph glyph-name="umacron" unicode="&#x16b;" horiz-adv-x="428" 
d="M377 487v-345q0 -60 4 -142h-93l-6 51h-2q-39 -59 -109 -59q-65 0 -95 48.5t-30 145.5v301h107v-288q0 -118 56 -118q22 0 36 15t19 33q6 16 6 42v316h107zM111 645h205v-64h-205v64z" />
    <glyph glyph-name="Ubreve" unicode="&#x16c;" horiz-adv-x="481" 
d="M56 674h107v-444q0 -144 76 -144q78 0 78 144v444h107v-426q0 -128 -48 -192t-137 -64q-183 0 -183 251v431zM125 815h59q5 -43 55 -43q51 0 56 43h59q0 -49 -30 -78t-84 -29q-55 0 -85 28.5t-30 78.5z" />
    <glyph glyph-name="ubreve" unicode="&#x16d;" horiz-adv-x="428" 
d="M377 487v-345q0 -60 4 -142h-93l-6 51h-2q-39 -59 -109 -59q-65 0 -95 48.5t-30 145.5v301h107v-288q0 -118 56 -118q22 0 36 15t19 33q6 16 6 42v316h107zM101 675h55q2 -26 18 -41.5t39 -15.5q27 0 43 16t16 41h54q2 -53 -30 -87t-84 -34t-82.5 34.5t-28.5 86.5z" />
    <glyph glyph-name="Uring" unicode="&#x16e;" horiz-adv-x="481" 
d="M56 674h107v-444q0 -144 76 -144q78 0 78 144v444h107v-426q0 -128 -48 -192t-137 -64q-183 0 -183 251v431zM241 871q48 0 73.5 -26t25.5 -64t-26.5 -64.5t-73.5 -26.5q-48 0 -74 26t-26 62q0 38 27 65.5t74 27.5zM239 829q-20 0 -30 -15t-10 -35q0 -18 10.5 -32
t30.5 -14t30.5 13.5t10.5 34.5q0 20 -11 34t-31 14z" />
    <glyph glyph-name="uring" unicode="&#x16f;" horiz-adv-x="428" 
d="M377 487v-345q0 -60 4 -142h-93l-6 51h-2q-39 -59 -109 -59q-65 0 -95 48.5t-30 145.5v301h107v-288q0 -118 56 -118q22 0 36 15t19 33q6 16 6 42v316h107zM215 536q-46 0 -72.5 25t-26.5 62q0 40 26 66t74 26q45 0 70.5 -25t25.5 -65q0 -38 -26.5 -63.5t-70.5 -25.5z
M214 576q22 0 33 15t11 35t-11 34.5t-34 14.5q-21 0 -31.5 -15.5t-10.5 -35.5q0 -18 11 -33t32 -15z" />
    <glyph glyph-name="Uhungarumlaut" unicode="&#x170;" horiz-adv-x="481" 
d="M56 674h107v-444q0 -144 76 -144q78 0 78 144v444h107v-426q0 -128 -48 -192t-137 -64q-183 0 -183 251v431zM195 821h96l-96 -105h-64zM333 821h95l-95 -105h-64z" />
    <glyph glyph-name="uhungarumlaut" unicode="&#x171;" horiz-adv-x="428" 
d="M377 487v-345q0 -60 4 -142h-93l-6 51h-2q-39 -59 -109 -59q-65 0 -95 48.5t-30 145.5v301h107v-288q0 -118 56 -118q22 0 36 15t19 33q6 16 6 42v316h107zM190 686h85l-102 -138h-57zM322 686h84l-102 -138h-57z" />
    <glyph glyph-name="Uogonek" unicode="&#x172;" horiz-adv-x="481" 
d="M339 -118l14 -55q-37 -25 -81 -25q-43 0 -67 22t-24 59q0 52 48 111h-10q-163 12 -163 249v431h107v-444q0 -144 76 -144q78 0 78 144v444h107v-426q0 -196 -111 -239q-24 -21 -39.5 -48t-15.5 -49q0 -39 38 -39q25 0 43 9z" />
    <glyph glyph-name="uogonek" unicode="&#x173;" horiz-adv-x="428" 
d="M377 487v-346q0 -83 6 -141h-26q-32 -49 -32 -90q0 -20 12.5 -32t28.5 -12q24 0 40 7l14 -56q-33 -23 -81 -23q-44 0 -67.5 24t-23.5 66q0 43 40 116l-6 51h-2q-39 -59 -109 -59q-65 0 -95 48.5t-30 145.5v301h107v-288q0 -118 56 -118q22 0 36 15t19 33q6 16 6 42v316
h107z" />
    <glyph glyph-name="Wcircumflex" unicode="&#x174;" horiz-adv-x="668" 
d="M241 0h-103l-122 674h111l43 -294q14 -94 28 -240h3q7 62 39 241l55 293h88l52 -289q26 -146 36 -245h2q6 59 30 243l43 291h105l-124 -674h-109l-51 269q-18 98 -32 221h-2q-20 -144 -37 -223zM295 814h86l86 -104h-83l-45 53h-2l-44 -53h-81z" />
    <glyph glyph-name="wcircumflex" unicode="&#x175;" horiz-adv-x="594" 
d="M8 487h114l35 -223q16 -106 21 -151h3q11 67 29 149l49 225h82l46 -219q17 -76 29 -155h2q6 56 22 153l37 221h106l-124 -487h-90l-45 199q-16 66 -26 150h-2q-8 -61 -29 -151l-48 -198h-92zM260 686h74l82 -138h-75l-43 83h-2l-43 -83h-76z" />
    <glyph glyph-name="Ycircumflex" unicode="&#x176;" horiz-adv-x="398" 
d="M251 0h-107v270l-148 404h113l52 -164q24 -73 42 -148h2q15 66 40 151l47 161h111l-152 -400v-274zM157 814h86l86 -104h-83l-45 53h-2l-44 -53h-81z" />
    <glyph glyph-name="ycircumflex" unicode="&#x177;" horiz-adv-x="370" 
d="M9 487h114l55 -265l6 -30.5t5.5 -33t4.5 -26.5h2q10 53 16 89l48 266h105l-90 -348q-51 -199 -114 -277q-45 -55 -100 -76l-35 92q35 16 66 50q27 28 43 68q6 15 6 23q0 9 -3 18zM152 686h73l82 -138h-75l-43 83h-2l-43 -83h-76z" />
    <glyph glyph-name="Ydieresis" unicode="&#x178;" horiz-adv-x="398" 
d="M251 0h-107v270l-148 404h113l52 -164q24 -73 42 -148h2q15 66 40 151l47 161h111l-152 -400v-274zM116 715q-21 0 -36 16t-15 40t15.5 40t36.5 16q22 0 37 -16t15 -40t-15 -40t-38 -16zM290 715q-21 0 -36 16t-15 40t15.5 40t36.5 16q22 0 37 -16t15 -40t-15 -40
t-38 -16z" />
    <glyph glyph-name="Zacute" unicode="&#x179;" horiz-adv-x="374" 
d="M15 0v63l221 516v2h-201v93h322v-77l-215 -501v-3h214v-93h-341zM229 821h113l-123 -111h-79z" />
    <glyph glyph-name="zacute" unicode="&#x17a;" horiz-adv-x="334" 
d="M17 0v66l135 255l20.5 36.5t21.5 39.5v2h-161v88h278v-72l-132 -248q-4 -6 -20.5 -35.5t-22.5 -41.5v-2h177v-88h-296zM203 686h99l-103 -138h-68z" />
    <glyph glyph-name="Zdotaccent" unicode="&#x17b;" horiz-adv-x="374" 
d="M15 0v63l221 516v2h-201v93h322v-77l-215 -501v-3h214v-93h-341zM199 717q-22 0 -38 16.5t-16 38.5q0 23 16 39t39 16t38.5 -16t15.5 -39t-16 -39t-39 -16z" />
    <glyph glyph-name="zdotaccent" unicode="&#x17c;" horiz-adv-x="334" 
d="M17 0v66l135 255l20.5 36.5t21.5 39.5v2h-161v88h278v-72l-132 -248q-4 -6 -20.5 -35.5t-22.5 -41.5v-2h177v-88h-296zM168 564q-21 0 -36.5 15.5t-15.5 39.5t15.5 39.5t37.5 15.5t37 -15.5t15 -39.5t-15 -39.5t-38 -15.5z" />
    <glyph glyph-name="Zcaron" unicode="&#x17d;" horiz-adv-x="374" 
d="M15 0v63l221 516v2h-201v93h322v-77l-215 -501v-3h214v-93h-341zM240 710h-86l-86 104h83l45 -55h2l44 55h81z" />
    <glyph glyph-name="zcaron" unicode="&#x17e;" horiz-adv-x="334" 
d="M17 0v66l135 255l20.5 36.5t21.5 39.5v2h-161v88h278v-72l-132 -248q-4 -6 -20.5 -35.5t-22.5 -41.5v-2h177v-88h-296zM213 548h-74l-82 138h75l43 -83h2l43 83h76z" />
    <glyph glyph-name="florin" unicode="&#x192;" horiz-adv-x="408" 
d="M77 321v83h76l5 50q10 90 53 147t123 57q34 0 60 -12l-15 -79q-20 6 -40 6q-65 0 -78 -115l-7 -54h91v-83h-97l-23 -205q-10 -94 -45.5 -145t-114.5 -51q-40 0 -68 16l17 77q22 -9 41 -9q57 0 71 122l21 195h-70z" />
    <glyph glyph-name="Ohorn" unicode="&#x1a0;" horiz-adv-x="465" 
d="M235 85q91 0 91 256q0 67 -7.5 119.5t-29 90.5t-55.5 38t-56 -37.5t-31 -91.5t-8 -121q-1 -110 22.5 -182t73.5 -72zM372 726l78 12q18 -34 18 -77q0 -37 -19 -61t-55 -27q43 -88 43 -227q0 -181 -56.5 -267.5t-150.5 -86.5q-98 0 -150 94t-52 252q0 155 56 249.5
t156 94.5q40 0 75 -18l18.5 -10.5t15 -9t11 -6t9.5 -2.5q22 0 22 28q0 24 -19 62z" />
    <glyph glyph-name="ohorn" unicode="&#x1a1;" horiz-adv-x="410" 
d="M206 412q-38 0 -53.5 -50.5t-15.5 -117.5q0 -170 71 -170q65 0 65 170q0 30 -3 57t-10 53.5t-20.5 42t-33.5 15.5zM325 551l76 11q19 -36 19 -77q0 -73 -73 -84q32 -59 32 -157q0 -70 -16.5 -121.5t-43.5 -78.5t-56 -39.5t-59 -12.5q-79 0 -126 65t-47 185q0 124 51 188
t126 64q28 0 60 -12q5 -2 15 -6.5t18.5 -7.5t16.5 -3q23 0 24 28q0 26 -17 58z" />
    <glyph glyph-name="Uhorn" unicode="&#x1af;" horiz-adv-x="504" 
d="M416 761l77 11q17 -37 17 -76q0 -78 -75 -85l-11 -1v-362q0 -128 -48 -192t-137 -64q-183 0 -183 251v431h107v-444q0 -144 76 -144q78 0 78 144v444h80q19 0 26.5 6t7.5 22q0 31 -15 59z" />
    <glyph glyph-name="uhorn" unicode="&#x1b0;" horiz-adv-x="428" 
d="M359 575l77 11q19 -36 19 -75q0 -72 -73 -80l-5 -1v-289q0 -59 4 -141h-93l-6 51h-2q-39 -59 -109 -59q-65 0 -95 48.5t-30 145.5v301h107v-288q0 -118 56 -118q22 0 36 15t19 33q6 16 6 42v316h73q18 0 25.5 7t7.5 23q0 31 -17 58z" />
    <glyph glyph-name="Aringacute" unicode="&#x1fa;" horiz-adv-x="448" 
d="M231 689q-46 0 -69.5 22t-23.5 54t25 55t69 23q45 0 68 -22t23 -55q0 -32 -24 -54.5t-68 -22.5zM230 728q20 0 30 11t10 28q0 15 -10.5 26.5t-30.5 11.5q-19 0 -28.5 -12t-9.5 -27t10 -26.5t29 -11.5zM287 948h118l-142 -87h-81zM288 175h-134l-37 -175h-103l150 674h125
l139 -674h-104zM166 259h111l-29 155q-7 37 -24 153h-3l-11 -67.5t-15 -86.5z" />
    <glyph glyph-name="aringacute" unicode="&#x1fb;" horiz-adv-x="396" 
d="M242 817h99l-116 -98h-70zM346 305v-194q0 -73 6 -111h-96l-6 50h-3q-37 -58 -102 -58q-53 0 -88 40t-35 104q0 88 62.5 133t153.5 46v13q0 85 -73 85q-47 0 -91 -26l-20 72q56 35 134 35q158 0 158 -189zM241 153v91q-117 -3 -117 -97q0 -38 16 -56.5t36 -18.5
q21 0 38.5 14.5t23.5 41.5q3 10 3 25zM200 519q-46 0 -72 25t-26 62q0 40 26 65.5t73 25.5q45 0 71 -25t26 -64q0 -38 -27 -63.5t-71 -25.5zM199 559q22 0 33.5 14.5t11.5 34.5t-11 34.5t-35 14.5q-20 0 -30.5 -15t-10.5 -35q0 -18 10.5 -33t31.5 -15z" />
    <glyph glyph-name="AEacute" unicode="&#x1fc;" horiz-adv-x="578" 
d="M104 0h-105l204 674h339v-93h-181l11 -193h166v-89h-158l12 -206h170v-93h-264l-12 201h-128zM178 285h99l-8 184l-3.5 62.5t-3.5 68.5h-4q-9 -38 -38 -152zM376 821h115l-123 -111h-79z" />
    <glyph glyph-name="aeacute" unicode="&#x1fd;" horiz-adv-x="600" 
d="M570 226h-229q0 -153 110 -153q46 0 86 20l16 -74q-50 -27 -122 -27q-48 0 -87.5 23t-56.5 65h-3q-44 -88 -134 -88q-56 0 -92 41t-36 107q0 83 62 125.5t153 43.5v21q0 36 -20 59.5t-58 23.5q-46 0 -85 -26l-21 72q56 35 127 35q42 0 74 -21t45 -61h2q39 82 126 82
q69 0 107 -62t38 -161q0 -15 -2 -45zM239 157v83q-20 0 -37.5 -3.5t-38 -12.5t-32.5 -29t-12 -50q0 -36 16.5 -54t39.5 -18q21 0 37.5 15t22.5 41q4 12 4 28zM342 297h131q1 54 -15 87t-45 33q-33 0 -51.5 -37t-19.5 -83zM337 686h99l-103 -138h-68z" />
    <glyph glyph-name="Oslashacute" unicode="&#x1fe;" horiz-adv-x="465" 
d="M98 -44l-56 30l42 95q-56 89 -56 257q0 154 55 249t151 95q56 0 98 -33l31 70l59 -25l-42 -93q57 -88 57 -255q0 -181 -55.5 -267.5t-148.5 -86.5q-61 0 -102 38zM146 206l145 348q-23 35 -57 35q-49 0 -75 -68.5t-26 -181.5q0 -83 11 -133h2zM319 472l-148 -347
q21 -40 63 -40q50 0 74 69.5t24 186.5q0 82 -11 130zM272 821h114l-123 -111h-79z" />
    <glyph glyph-name="oslashacute" unicode="&#x1ff;" horiz-adv-x="410" 
d="M207 494q45 0 84 -27l29 56l51 -28l-37 -70q45 -67 45 -181q0 -70 -16.5 -121.5t-43.5 -78.5t-55 -39.5t-58 -12.5q-48 0 -86 26l-29 -55l-48 31l34 65q-46 67 -46 183q0 124 51.5 188t124.5 64zM142 158l108 226q-13 28 -45 28q-23 0 -38.5 -17t-22.5 -45t-10 -53.5
t-3 -52.5q0 -50 8 -83zM268 321l-105 -219q13 -28 43 -28q39 0 56 47.5t17 112.5q0 50 -7 86zM234 686h99l-103 -138h-68z" />
    <glyph glyph-name="Scommaaccent" unicode="&#x218;" horiz-adv-x="379" 
d="M26 22l18 92q45 -27 104 -27q49 0 75.5 25.5t26.5 68.5q0 38 -21 64.5t-67 58.5q-59 37 -93 86t-34 102q0 82 52.5 135t144.5 53q61 0 100 -24l-19 -92q-36 23 -83 23q-43 0 -66.5 -24t-23.5 -58q0 -37 20.5 -61t75.5 -59q119 -78 119 -193q0 -90 -57.5 -144t-149.5 -54
q-80 0 -122 28zM122 -219l-19 48q61 17 61 57q0 32 -33 61l80 12q36 -23 36 -71q0 -47 -35 -73.5t-90 -33.5z" />
    <glyph glyph-name="scommaaccent" unicode="&#x219;" horiz-adv-x="308" 
d="M20 22l21 79q39 -26 84 -26q29 0 45 14.5t16 41.5q0 23 -13 40t-46 38q-99 60 -99 140q0 63 41.5 104t107.5 41q51 0 93 -24l-21 -79q-33 21 -67 21q-26 0 -40.5 -14.5t-14.5 -35.5q0 -20 12 -35t46 -37q100 -58 100 -147q0 -72 -44.5 -110.5t-116.5 -38.5q-69 0 -104 28
zM89 -219l-19 48q61 17 61 57q0 32 -33 61l80 12q36 -23 36 -71q0 -47 -35 -73.5t-90 -33.5z" />
    <glyph glyph-name="uni021A" unicode="&#x21a;" horiz-adv-x="376" 
d="M134 0v576h-121v98h349v-98h-121v-576h-107zM127 -219l-19 48q61 17 61 57q0 32 -33 61l80 12q36 -23 36 -71q0 -47 -35 -73.5t-90 -33.5z" />
    <glyph glyph-name="uni021B" unicode="&#x21b;" horiz-adv-x="286" 
d="M70 571l107 37v-121h94v-77h-94v-253q0 -75 50 -75q17 0 33 3l2 -83q-26 -8 -70 -8q-56 0 -86 30q-36 36 -36 132v254h-58v77h58v84zM92 -219l-19 48q61 17 61 57q0 32 -33 61l80 12q36 -23 36 -71q0 -47 -35 -73.5t-90 -33.5z" />
    <glyph glyph-name="uni021C" unicode="&#x21c;" horiz-adv-x="367" 
d="M34 -116l-14 86q82 13 146.5 69t64.5 138q0 46 -26 80t-73 34q-33 0 -68 -12l-15 78q57 11 103.5 57t46.5 105q0 33 -21 54.5t-55 20.5q-39 0 -81 -20l-19 77q50 31 124 31q68 0 111 -43.5t43 -103.5q0 -59 -28 -103.5t-70 -68.5v-3q58 -12 97.5 -58.5t39.5 -119.5
q0 -63 -29.5 -119t-75.5 -93t-98.5 -59.5t-102.5 -26.5z" />
    <glyph glyph-name="uni021D" unicode="&#x21d;" horiz-adv-x="339" 
d="M24 -200l-9 87q32 2 65 12.5t63.5 29.5t50 50.5t19.5 70.5q0 36 -22.5 63t-71.5 27q-22 0 -62 -11l-14 78q140 34 140 122q0 36 -19.5 56.5t-51.5 20.5q-31 0 -75 -20l-20 77q50 31 117 31t107.5 -39.5t40.5 -99.5q0 -100 -89 -145v-3q56 -11 91 -49.5t35 -100.5
q0 -76 -47.5 -136t-113.5 -89.5t-134 -31.5z" />
    <glyph glyph-name="uni0232" unicode="&#x232;" horiz-adv-x="398" 
d="M251 0h-107v270l-148 404h113l52 -164q24 -73 42 -148h2q15 66 40 151l47 161h111l-152 -400v-274zM87 803h225v-67h-225v67z" />
    <glyph glyph-name="uni0233" unicode="&#x233;" horiz-adv-x="370" 
d="M9 487h114l55 -265l6 -30.5t5.5 -33t4.5 -26.5h2q10 53 16 89l48 266h105l-90 -348q-51 -199 -114 -277q-45 -55 -100 -76l-35 92q35 16 66 50q27 28 43 68q6 15 6 23q0 9 -3 18zM83 645h205v-64h-205v64z" />
    <glyph glyph-name="circumflex" unicode="&#x2c6;" 
d="M114 686h74l82 -138h-75l-43 83h-2l-43 -83h-76z" />
    <glyph glyph-name="caron" unicode="&#x2c7;" 
d="M187 548h-74l-82 138h75l43 -83h2l43 83h76z" />
    <glyph glyph-name="uni02C9" unicode="&#x2c9;" 
d="M48 645h205v-64h-205v64z" />
    <glyph glyph-name="breve" unicode="&#x2d8;" 
d="M37 675h55q2 -26 18 -41.5t39 -15.5q28 0 44 16t16 41h54q2 -53 -30 -87t-85 -34q-52 0 -82.5 34.5t-28.5 86.5z" />
    <glyph glyph-name="dotaccent" unicode="&#x2d9;" 
d="M150 564q-21 0 -36.5 15.5t-15.5 39.5t15.5 39.5t37.5 15.5t37 -15.5t15 -39.5t-15 -39.5t-38 -15.5z" />
    <glyph glyph-name="ring" unicode="&#x2da;" 
d="M117 536q-46 0 -72.5 25t-26.5 62q0 40 26 66t74 26q45 0 70.5 -25t25.5 -65q0 -38 -26.5 -63.5t-70.5 -25.5zM116 576q22 0 33 15t11 35t-11 34.5t-34 14.5q-21 0 -31.5 -15.5t-10.5 -35.5q0 -18 11 -33t32 -15z" />
    <glyph glyph-name="ogonek" unicode="&#x2db;" 
d="M107 5h68q-34 -57 -34 -92q0 -19 12.5 -31.5t28.5 -12.5q21 0 40 7l14 -55q-32 -24 -81 -24q-44 0 -67.5 24t-23.5 65q0 54 43 119z" />
    <glyph glyph-name="tilde" unicode="&#x2dc;" 
d="M86 559h-52q0 47 17.5 77t49.5 30q18 0 54 -18q26 -16 38 -16q11 0 16.5 7.5t6.5 29.5h50q0 -103 -67 -103q-19 0 -51 16q-4 2 -10 6t-10 6t-8.5 3.5t-9.5 1.5q-22 0 -24 -40z" />
    <glyph glyph-name="hungarumlaut" unicode="&#x2dd;" 
d="M117 686h84l-102 -138h-57zM248 686h84l-102 -138h-57z" />
    <glyph glyph-name="uni037E" unicode="&#x37e;" horiz-adv-x="227" 
d="M97 -117l-67 -8q40 153 47 251l109 4q-38 -145 -89 -247zM122 307q-27 0 -46 21t-19 54q0 32 19.5 54.5t47.5 22.5q29 0 48 -21.5t19 -55.5q0 -33 -18.5 -54t-50.5 -21z" />
    <glyph glyph-name="tonos" unicode="&#x384;" horiz-adv-x="309" 
d="M115 686h88l-59 -138h-61z" />
    <glyph glyph-name="dieresistonos" unicode="&#x385;" horiz-adv-x="394" 
d="M163 703h85l-39 -155h-57zM76 565q-20 0 -34.5 15t-14.5 36t15 35.5t35 14.5q19 0 33 -14.5t14 -35.5q0 -22 -14 -36.5t-34 -14.5zM308 565q-19 0 -33.5 15t-14.5 36t15 35.5t34 14.5q20 0 34 -14.5t14 -35.5q0 -22 -14 -36.5t-35 -14.5z" />
    <glyph glyph-name="Alphatonos" unicode="&#x386;" horiz-adv-x="465" 
d="M305 175h-134l-37 -175h-103l150 674h124l140 -674h-105zM183 259h110l-28 155q-7 37 -24 153h-3q-16 -107 -26 -154zM27 674h85l-32 -158h-55z" />
    <glyph glyph-name="anoteleia" unicode="&#x387;" horiz-adv-x="227" 
d="M113 237q-29 0 -49.5 22.5t-20.5 57.5t21 58t50 23q31 0 51 -22t20 -59q0 -36 -20 -58t-52 -22z" />
    <glyph glyph-name="Epsilontonos" unicode="&#x388;" horiz-adv-x="445" 
d="M395 396v-89h-161v-214h182v-93h-289v674h277v-93h-170v-185h161zM3 674h85l-32 -158h-55z" />
    <glyph glyph-name="Etatonos" unicode="&#x389;" horiz-adv-x="561" 
d="M128 674h107v-279h160v279h107v-674h-107v297h-160v-297h-107v674zM3 674h85l-32 -158h-55z" />
    <glyph glyph-name="Iotatonos" unicode="&#x38a;" horiz-adv-x="293" 
d="M127 674h107v-674h-107v674zM3 674h85l-32 -158h-55z" />
    <glyph glyph-name="Omicrontonos" unicode="&#x38c;" horiz-adv-x="518" 
d="M282 -8q-98 0 -149.5 94t-51.5 252q0 155 56 249.5t156 94.5q68 0 113.5 -47.5t64.5 -120.5t19 -168q0 -181 -56.5 -267.5t-151.5 -86.5zM288 85q91 0 91 256q0 67 -7.5 119.5t-29 90.5t-55.5 38q-49 0 -72.5 -72.5t-22.5 -177.5q-1 -110 22.5 -182t73.5 -72zM3 674h85
l-32 -158h-55z" />
    <glyph glyph-name="Upsilontonos" unicode="&#x38e;" horiz-adv-x="554" 
d="M112 587l20 93q15 -1 43 -13t50 -32q92 -84 106 -267h5q16 155 102 250q23 25 52 42.5t41 19.5l22 -96q-56 -25 -101.5 -109t-61.5 -195q-9 -74 -9 -118v-162h-107v162q0 56 -6 116q-14 123 -54 205t-102 104zM3 674h85l-32 -158h-55z" />
    <glyph glyph-name="Omegatonos" unicode="&#x38f;" horiz-adv-x="549" 
d="M424 92v-4h96v-88h-197v67q32 40 54 119t22 172q0 60 -9.5 110t-33 85.5t-58.5 35.5q-51 0 -77.5 -67.5t-26.5 -163.5q0 -86 23 -169.5t53 -121.5v-67h-197v88h95v4q-84 123 -85 284q0 136 60.5 221t160.5 85t152.5 -85.5t52.5 -213.5q0 -86 -24 -163t-61 -128zM3 674h84
l-31 -158h-55z" />
    <glyph glyph-name="iotadieresistonos" unicode="&#x390;" horiz-adv-x="213" 
d="M157 487v-364q0 -29 9 -40t30 -10l-8 -77q-16 -4 -40 -4q-44 0 -71 25t-27 97v373h107zM85 694h83l-39 -150h-55zM0 562q-19 0 -33.5 14.5t-14.5 35.5q0 20 15 34.5t34 14.5t33 -14t14 -35q0 -22 -14 -36t-34 -14zM225 562q-19 0 -33 14.5t-14 35.5q0 20 14.5 34.5
t33.5 14.5q20 0 34 -14t14 -35q0 -22 -14 -36t-35 -14z" />
    <glyph glyph-name="Alpha" unicode="&#x391;" horiz-adv-x="448" 
d="M287 175h-133l-37 -175h-103l150 674h124l139 -674h-104zM166 259h110l-28 155q-7 37 -24 153h-3l-11 -67.5t-15 -86.5z" />
    <glyph glyph-name="Beta" unicode="&#x392;" horiz-adv-x="453" 
d="M59 2v662q52 13 133 13q108 0 160 -47q48 -42 48 -120q0 -48 -25.5 -87.5t-73.5 -60.5v-3q57 -16 89 -60.5t32 -105.5q0 -81 -49 -133q-58 -65 -202 -65q-67 0 -112 7zM165 592v-199h31q42 0 70.5 30t28.5 75t-22.5 71.5t-69.5 26.5q-26 0 -38 -4zM165 313v-232
q14 -3 34 -3q51 0 82 30t31 86t-33.5 87.5t-82.5 31.5h-31z" />
    <glyph glyph-name="Gamma" unicode="&#x393;" horiz-adv-x="347" 
d="M59 674h279v-90h-172v-584h-107v674z" />
    <glyph glyph-name="uni0394" unicode="&#x394;" horiz-adv-x="454" 
d="M17 0v56l150 618h124l142 -616v-58h-416zM124 94h202l-65 286q-11 49 -34 187h-2q-15 -91 -35 -182z" />
    <glyph glyph-name="Epsilon" unicode="&#x395;" horiz-adv-x="376" 
d="M326 396v-89h-160v-214h182v-93h-289v674h277v-93h-170v-185h160z" />
    <glyph glyph-name="Zeta" unicode="&#x396;" horiz-adv-x="374" 
d="M15 0v63l221 516v2h-201v93h322v-77l-215 -501v-3h214v-93h-341z" />
    <glyph glyph-name="Eta" unicode="&#x397;" horiz-adv-x="492" 
d="M59 674h107v-279h160v279h107v-674h-107v297h-160v-297h-107v674z" />
    <glyph glyph-name="Theta" unicode="&#x398;" horiz-adv-x="471" 
d="M232 -8q-99 0 -151.5 94t-52.5 252q0 155 57 249.5t158 94.5q100 0 149.5 -95t49.5 -242q0 -181 -57 -267t-153 -86zM238 84q50 0 72.5 72t22.5 185q0 106 -22.5 177.5t-73.5 71.5q-35 0 -58.5 -37.5t-32.5 -91.5t-9 -122q0 -71 9 -126t32.5 -92t59.5 -37zM171 393h129
v-98h-129v98z" />
    <glyph glyph-name="Iota" unicode="&#x399;" horiz-adv-x="226" 
d="M59 674h107v-674h-107v674z" />
    <glyph glyph-name="Kappa" unicode="&#x39a;" horiz-adv-x="434" 
d="M59 0v674h106v-311h3l36 85l106 226h118l-157 -291l160 -383h-116l-116 300l-34 -60v-240h-106z" />
    <glyph glyph-name="Lambda" unicode="&#x39b;" horiz-adv-x="445" 
d="M431 0h-111l-68 357q-21 122 -31 193h-3q-13 -105 -28 -195l-67 -355h-109l150 674h118z" />
    <glyph glyph-name="Mu" unicode="&#x39c;" horiz-adv-x="620" 
d="M482 0l-13 260q-8 155 -7 242h-3q-18 -102 -47 -220l-70 -274h-73l-66 267q-30 112 -48 227h-3q-1 -88 -9 -245l-12 -257h-93l45 674h113l65 -273q38 -156 51 -234h2q14 89 47 234l63 273h115l40 -674h-97z" />
    <glyph glyph-name="Nu" unicode="&#x39d;" horiz-adv-x="493" 
d="M153 0h-94v674h98l114 -288q57 -145 79 -213h2q-12 172 -12 311v190h94v-674h-98l-115 287q-50 123 -74 214h-2q8 -125 8 -313v-188z" />
    <glyph glyph-name="Xi" unicode="&#x39e;" horiz-adv-x="393" 
d="M37 674h318v-93h-318v93zM54 392h281v-91h-281v91zM31 93h330v-93h-330v93z" />
    <glyph glyph-name="Omicron" unicode="&#x39f;" horiz-adv-x="465" 
d="M229 -8q-98 0 -149.5 94t-51.5 252q0 155 56 249.5t156 94.5q68 0 113.5 -47.5t64.5 -120.5t19 -168q0 -181 -56.5 -267.5t-151.5 -86.5zM235 85q91 0 91 256q0 67 -7.5 119.5t-29 90.5t-55.5 38t-56 -37.5t-31 -91.5t-8 -121q-1 -110 22.5 -182t73.5 -72z" />
    <glyph glyph-name="Pi" unicode="&#x3a0;" horiz-adv-x="485" 
d="M426 674v-674h-107v576h-153v-576h-107v674h367z" />
    <glyph glyph-name="Rho" unicode="&#x3a1;" horiz-adv-x="431" 
d="M59 0v664q55 13 125 13q116 0 168 -51q54 -51 54 -144q0 -92 -50 -150q-28 -34 -72 -52t-89 -18q-20 0 -30 1v-263h-106zM165 585v-235q8 -1 26 -1q52 0 80.5 33.5t28.5 91.5q0 52 -23.5 84t-74.5 32q-22 0 -37 -5z" />
    <glyph glyph-name="Sigma" unicode="&#x3a3;" horiz-adv-x="414" 
d="M138 97v-4h248v-93h-370v67l157 271l-151 268v68h346v-92h-217v-3l130 -235z" />
    <glyph glyph-name="Tau" unicode="&#x3a4;" horiz-adv-x="376" 
d="M134 0v576h-121v98h349v-98h-121v-576h-107z" />
    <glyph glyph-name="Upsilon" unicode="&#x3a5;" horiz-adv-x="445" 
d="M3 587l21 93q14 -1 42 -13t51 -32q92 -84 106 -267h5q16 155 102 250q23 25 52 42.5t41 19.5l22 -96q-57 -26 -102 -109.5t-61 -194.5q-9 -74 -9 -118v-162h-107v162q0 56 -6 116q-14 124 -54 205.5t-103 103.5z" />
    <glyph glyph-name="Phi" unicode="&#x3a6;" horiz-adv-x="548" 
d="M321 34v-52h-95v52q-87 15 -144 91t-57 214q0 135 60 213t142 91v49h95v-49q88 -12 144.5 -91.5t56.5 -207.5q0 -138 -56.5 -217t-145.5 -93zM227 115v448q-39 -10 -67 -69.5t-28 -157.5q0 -91 28 -150t67 -71zM321 563v-448q42 10 68.5 69.5t26.5 157.5t-29 155.5
t-66 65.5z" />
    <glyph glyph-name="Chi" unicode="&#x3a7;" horiz-adv-x="400" 
d="M396 0h-111l-51 141q-21 61 -38 119h-3l-35 -121l-47 -139h-106l131 344l-126 330h111l48 -139q6 -16 35 -108h2l32 110l44 137h107l-129 -332z" />
    <glyph glyph-name="Psi" unicode="&#x3a8;" horiz-adv-x="548" 
d="M510 674v-176q0 -265 -189 -294v-204h-95v204q-93 14 -141 76t-48 186v208h98v-205q0 -89 22 -131.5t70 -50.5v387h93v-387q47 6 69.5 57t22.5 155v175h98z" />
    <glyph glyph-name="uni03A9" unicode="&#x3a9;" horiz-adv-x="505" 
d="M380 92v-4h96v-88h-197v67q33 40 54.5 119t20.5 172q0 60 -9.5 110t-33 85.5t-58.5 35.5q-34 0 -58 -34.5t-34.5 -85t-10.5 -111.5q0 -86 23 -169.5t53 -121.5v-67h-197v88h95v4q-85 125 -85 284q0 136 60.5 221t159.5 85q100 0 152.5 -85.5t52.5 -213.5q0 -85 -24 -162
t-60 -129z" />
    <glyph glyph-name="Iotadieresis" unicode="&#x3aa;" horiz-adv-x="226" 
d="M29 710q-21 0 -36 15.5t-15 38.5t15.5 38.5t36.5 15.5q22 0 36.5 -15t14.5 -39q0 -23 -14.5 -38.5t-37.5 -15.5zM195 710q-21 0 -36 15.5t-15 38.5t15.5 38.5t36.5 15.5q22 0 36.5 -15t14.5 -39q0 -23 -14.5 -38.5t-37.5 -15.5zM59 674h107v-674h-107v674z" />
    <glyph glyph-name="Upsilondieresis" unicode="&#x3ab;" horiz-adv-x="445" 
d="M145 694q-21 0 -36 15.5t-15 38.5t15.5 38.5t36.5 15.5q22 0 36.5 -15t14.5 -39q0 -23 -14.5 -38.5t-37.5 -15.5zM310 694q-21 0 -36 15.5t-15 38.5t15.5 38.5t36.5 15.5q22 0 36.5 -15t14.5 -39q0 -23 -14.5 -38.5t-37.5 -15.5zM3 587l21 93q14 -1 42 -13t51 -32
q92 -84 106 -267h5q16 155 102 250q23 25 52 42.5t41 19.5l22 -96q-57 -26 -102 -109.5t-61 -194.5q-9 -74 -9 -118v-162h-107v162q0 56 -6 116q-14 124 -54 205.5t-103 103.5z" />
    <glyph glyph-name="alphatonos" unicode="&#x3ac;" horiz-adv-x="425" 
d="M214 681h88l-59 -138h-61zM300 487h80q-12 -77 -12 -362q0 -28 8 -40.5t27 -12.5l-10 -77q-8 -3 -26 -3q-66 0 -77 76h-3q-13 -31 -40 -53.5t-65 -22.5q-71 0 -111 66.5t-40 170.5q0 122 49.5 193.5t113.5 71.5q66 0 90 -67h4q3 21 12 60zM137 238v-2q0 -67 18 -111.5
t48 -44.5q21 0 37 22.5t22 62.5q4 35 4 79q0 48 -2 70q-2 41 -17.5 66.5t-37.5 25.5q-33 0 -52.5 -49.5t-19.5 -118.5z" />
    <glyph glyph-name="epsilontonos" unicode="&#x3ad;" horiz-adv-x="349" 
d="M189 681h88l-59 -138h-61zM130 258v4q-35 9 -57 37t-21 66q0 53 44 91t123 38q68 0 98 -24l-17 -74q-30 16 -73 16q-34 0 -53.5 -17t-19.5 -41q0 -31 30.5 -45.5t74.5 -14.5h15v-75h-19q-50 -1 -82.5 -18.5t-32.5 -54.5q0 -33 24.5 -51.5t60.5 -18.5q59 0 93 20l12 -77
q-48 -27 -129 -27q-73 0 -122 36t-49 109q0 46 30.5 79.5t69.5 41.5z" />
    <glyph glyph-name="etatonos" unicode="&#x3ae;" horiz-adv-x="434" 
d="M214 681h88l-59 -138h-61zM143 430l2 -1q38 65 115 65q61 0 93 -45.5t32 -130.5v-344q0 -102 8 -166h-98q-17 37 -17 160v340q0 96 -57 96q-20 0 -36.5 -15.5t-23.5 -43.5q-5 -17 -5 -44v-301h-107v350q0 97 -14 137h94q11 -23 14 -57z" />
    <glyph glyph-name="iotatonos" unicode="&#x3af;" horiz-adv-x="213" 
d="M99 684h94l-59 -138h-67zM156 487v-364q0 -29 9 -40t29 -10l-8 -77q-15 -4 -39 -4q-44 0 -71 25t-27 97v373h107z" />
    <glyph glyph-name="upsilondieresistonos" unicode="&#x3b0;" horiz-adv-x="407" 
d="M246 487h100q28 -78 28 -184q0 -311 -180 -311q-69 0 -109 43t-40 121v180q0 114 -7 151h103q10 -20 10 -100v-227q0 -37 14.5 -57.5t37.5 -20.5q67 0 67 199q0 138 -24 206zM171 691h82l-39 -150h-54zM84 559q-19 0 -33.5 14.5t-14.5 36.5q0 20 15 34.5t34 14.5t33 -14
t14 -36t-14 -36t-34 -14zM313 559q-19 0 -33 14.5t-14 36.5q0 20 14.5 34.5t33.5 14.5q20 0 34 -14t14 -36t-14 -36t-35 -14z" />
    <glyph glyph-name="alpha" unicode="&#x3b1;" horiz-adv-x="424" 
d="M300 487h80q-12 -77 -12 -362q0 -28 8 -40.5t27 -12.5l-10 -77q-8 -3 -26 -3q-66 0 -77 76h-3q-13 -31 -40 -53.5t-65 -22.5q-71 0 -111 66.5t-40 170.5q0 122 49.5 193.5t113.5 71.5q66 0 90 -67h4q3 21 12 60zM137 238v-2q0 -67 18 -111.5t48 -44.5q21 0 37 22.5
t22 62.5q4 35 4 79q0 48 -2 70q-2 41 -17.5 66.5t-37.5 25.5q-33 0 -52.5 -49.5t-19.5 -118.5z" />
    <glyph glyph-name="beta" unicode="&#x3b2;" horiz-adv-x="432" 
d="M155 27h-2v-53q0 -116 11 -166h-98q-18 39 -18 159v475q0 86 13 133t43 79q42 46 113 46q72 0 111 -50.5t39 -124.5q0 -55 -22 -93t-54 -55v-5q45 -15 77.5 -61t32.5 -120q0 -90 -44 -144.5t-113 -54.5q-57 0 -89 35zM153 467v-347q25 -40 67 -40q35 0 55.5 33t20.5 85
t-25 86t-63 39q-6 2 -16 2v79q4 0 14 2q62 19 62 114q0 35 -14 63.5t-40 28.5q-61 0 -61 -145z" />
    <glyph glyph-name="gamma" unicode="&#x3b3;" horiz-adv-x="373" 
d="M229 -192h-104q2 119 -2 187t-21 142q-44 189 -110 350h113q60 -160 86 -358h3q59 182 58 312q0 31 -1 46h97q3 -13 3 -37q0 -175 -119 -418q-6 -10 -6 -20q3 -96 3 -204z" />
    <glyph glyph-name="delta" unicode="&#x3b4;" horiz-adv-x="417" 
d="M362 660l-25 -70q-43 29 -89 29q-21 0 -32.5 -9.5t-11.5 -23.5q0 -19 43 -74l58 -71q81 -100 81 -208q0 -115 -53 -178t-127 -63q-78 0 -127 63.5t-49 169.5q0 82 37.5 143t90.5 94v4l-12 17q-49 63 -49 107t36 77t102 33q81 0 127 -40zM232 373l-23 30q-72 -57 -72 -180
q0 -69 22 -109t51 -40q34 0 52 42t18 105q0 94 -48 152z" />
    <glyph glyph-name="epsilon" unicode="&#x3b5;" horiz-adv-x="349" 
d="M130 258v5q-35 8 -57 36t-21 66q0 53 44 91t123 38q68 0 98 -24l-17 -74q-30 16 -73 16q-34 0 -53.5 -17t-19.5 -41q0 -31 30.5 -45.5t74.5 -14.5h15v-75h-19q-50 -1 -82.5 -18.5t-32.5 -54.5q0 -33 24.5 -51.5t60.5 -18.5q61 0 93 21l12 -78q-48 -27 -129 -27
q-73 0 -122 36t-49 109q0 46 30.5 80t69.5 41z" />
    <glyph glyph-name="zeta" unicode="&#x3b6;" horiz-adv-x="333" 
d="M268 -135l-71 22q24 46 31 96q-51 12 -90 33q-108 55 -108 196q0 101 50 206t129 184v3h-38q-60 0 -94 10l11 74q6 0 113 -3h120l16 -74q-75 -48 -137 -159.5t-62 -213.5q0 -67 21.5 -103t64.5 -55q32 -14 97 -27q8 -2 8 -12q0 -50 -19.5 -99.5t-41.5 -77.5z" />
    <glyph glyph-name="eta" unicode="&#x3b7;" horiz-adv-x="434" 
d="M143 430l2 -1q38 65 115 65q61 0 93 -45.5t32 -130.5v-344q0 -102 8 -166h-98q-17 37 -17 160v340q0 96 -57 96q-20 0 -36.5 -15.5t-23.5 -43.5q-5 -17 -5 -44v-301h-107v350q0 97 -14 137h94q11 -23 14 -57z" />
    <glyph glyph-name="theta" unicode="&#x3b8;" horiz-adv-x="409" 
d="M204 -8q-173 0 -173 360q0 181 52 264.5t125 83.5q78 0 124.5 -84t46.5 -264q0 -360 -175 -360zM134 397h142q-1 107 -20 165t-52 58q-30 0 -50 -59t-20 -164zM276 312h-143q0 -120 19.5 -180t53.5 -60q70 0 70 240z" />
    <glyph glyph-name="iota" unicode="&#x3b9;" horiz-adv-x="213" 
d="M156 487v-364q0 -29 9 -40t29 -10l-8 -77q-15 -4 -39 -4q-44 0 -71 25t-27 97v373h107z" />
    <glyph glyph-name="kappa" unicode="&#x3ba;" horiz-adv-x="402" 
d="M246 264v-3q40 -16 85 -122l9 -23q4 -7 5 -11l46 -105h-117l-42 107q-20 53 -35.5 79t-32.5 26h-8v-212h-106v368q0 84 -9 119h103q12 -18 12 -83v-129h4q17 28 40 69.5l47 86t31 56.5h114v-4z" />
    <glyph glyph-name="lambda" unicode="&#x3bb;" horiz-adv-x="365" 
d="M253 0l-51 233l-20 105h-4q-9 -61 -18 -104l-49 -234h-106l123 454q3 10 3 20q0 7 -6 27q-29 100 -84 100q-7 0 -12 -1l9 87q10 3 29 3q68 0 104 -55t64 -160l125 -475h-107z" />
    <glyph glyph-name="uni03BC" unicode="&#x3bc;" horiz-adv-x="429" 
d="M293 49l-3 1q-10 -20 -31.5 -36t-47.5 -16q-40 0 -60 29v-53q0 -113 10 -166h-97q-15 40 -15 171v508h107v-314q0 -94 54 -94q42 0 57 48q5 18 5 44v316h107v-362q0 -29 7 -41.5t25 -11.5l-10 -76q-11 -4 -33 -4q-56 0 -75 57z" />
    <glyph glyph-name="nu" unicode="&#x3bd;" horiz-adv-x="363" 
d="M2 487h109l46 -243q4 -22 11 -67t10 -62h3q22 73 42 172t21 167v33h95q3 -16 3 -34q0 -153 -128 -453h-97z" />
    <glyph glyph-name="xi" unicode="&#x3be;" horiz-adv-x="350" 
d="M299 417v-81h-16q-65 -2 -104.5 -35.5t-39.5 -93.5q0 -88 96 -126q42 -16 98 -27q13 -3 13 -13q0 -47 -20 -97t-41 -78l-73 21q24 47 31 97q-45 11 -79 25t-66 38t-49.5 61.5t-17.5 87.5q0 69 36 117t93 68v6q-42 18 -67 56t-24 85q0 75 49.5 123.5t132.5 48.5
q51 0 87 -19l-14 -78q-30 13 -63 13q-43 0 -65 -28.5t-22 -63.5q0 -48 31.5 -75t77.5 -31q3 0 8 -0.5t8 -0.5z" />
    <glyph glyph-name="omicron" unicode="&#x3bf;" horiz-adv-x="410" 
d="M204 -8q-79 0 -126 65t-47 185q0 124 51 188t126 64q78 0 124.5 -66t46.5 -184q0 -70 -16.5 -121.5t-43.5 -78.5t-56 -39.5t-59 -12.5zM208 74q65 0 65 170q0 67 -15 117.5t-52 50.5q-38 0 -53.5 -50.5t-15.5 -117.5q0 -170 71 -170z" />
    <glyph glyph-name="pi" unicode="&#x3c0;" horiz-adv-x="439" 
d="M418 401h-46v-285q0 -74 10 -116h-100q-16 30 -16 116v285h-82q-1 -93 -14 -209.5t-35 -191.5h-100q22 81 34.5 195.5t11.5 205.5q-30 0 -60 -5l-14 65q32 26 138 26h282z" />
    <glyph glyph-name="rho" unicode="&#x3c1;" horiz-adv-x="422" 
d="M154 36h-2v-62q0 -102 8 -166h-99q-14 36 -15 159v267q0 153 65 214q45 46 107 46q85 0 129 -68t44 -181q0 -124 -46 -188.5t-112 -64.5q-52 0 -79 44zM152 255v-86q0 -23 6 -38q14 -51 52 -51t56.5 47.5t18.5 117.5q0 72 -17.5 114.5t-51.5 42.5q-64 0 -64 -147z" />
    <glyph glyph-name="uni03C2" unicode="&#x3c2;" horiz-adv-x="332" 
d="M320 480l-18 -84q-22 8 -45 8q-56 0 -87.5 -49.5t-31.5 -118.5q0 -57 20 -95t68 -59q29 -13 85 -28q6 -3 6 -10q0 -52 -18.5 -102t-40.5 -78l-73 22q25 45 32 96q-48 15 -72 28q-50 25 -82.5 81t-32.5 138q0 111 61.5 188t163.5 77q43 0 65 -14z" />
    <glyph glyph-name="sigma" unicode="&#x3c3;" horiz-adv-x="413" 
d="M315 420v-3q29 -26 44.5 -74.5t15.5 -98.5q0 -69 -16.5 -120.5t-43 -79t-55 -40t-57.5 -12.5q-79 0 -125.5 65t-46.5 185q0 124 51.5 188t127.5 64h42h55h96l-5 -80q-29 -2 -83 6zM207 74q34 0 48.5 50.5t14.5 118.5q0 65 -15.5 117t-49.5 52q-20 0 -34 -16t-21 -42.5
t-10 -53.5t-3 -57q0 -169 70 -169z" />
    <glyph glyph-name="tau" unicode="&#x3c4;" horiz-adv-x="334" 
d="M270 75l-3 -77q-17 -6 -47 -6q-111 0 -111 149v260h-36q-34 0 -60 -8l-15 68q26 26 108 26h222l-10 -86h-102v-255q0 -71 38 -71h16z" />
    <glyph glyph-name="upsilon" unicode="&#x3c5;" horiz-adv-x="407" 
d="M246 487h100q28 -78 28 -184q0 -311 -180 -311q-69 0 -109 43t-40 121v180q0 114 -7 151h103q10 -20 10 -100v-227q0 -37 14.5 -57.5t37.5 -20.5q67 0 67 199q0 138 -24 206z" />
    <glyph glyph-name="phi" unicode="&#x3c6;" horiz-adv-x="538" 
d="M148 491l55 -49q-67 -78 -67 -192q0 -68 22.5 -115.5t63.5 -62.5v272q0 76 32.5 111.5t80.5 35.5q69 0 121 -65.5t52 -172.5q0 -115 -57 -181.5t-132 -76.5v-187h-97v187q-32 5 -62.5 19.5t-61 42t-49 76t-18.5 111.5q0 95 38.5 158t78.5 89zM318 368v-297
q41 9 63.5 58.5t22.5 121.5q0 70 -20 115t-41 45q-25 0 -25 -43z" />
    <glyph glyph-name="chi" unicode="&#x3c7;" horiz-adv-x="369" 
d="M8 487h107l77 -239h4q12 50 25 95l43 144h100l-123 -331l119 -341l-98 -23l-86 266h-3q-16 -65 -29 -112l-47 -154l-94 21l124 345z" />
    <glyph glyph-name="psi" unicode="&#x3c8;" horiz-adv-x="535" 
d="M221 -192v184q-36 5 -63.5 16.5t-55 35.5t-43 69.5t-15.5 109.5v141q0 87 -6 123h93q9 -21 9 -100v-153q0 -151 82 -165v520h97v-520q43 4 64 67t21 164q0 126 -21 187h89q29 -68 29 -176q0 -301 -181 -319v-184h-99z" />
    <glyph glyph-name="omega" unicode="&#x3c9;" horiz-adv-x="562" 
d="M330 345l-2 -189q0 -28 11 -51.5t30 -23.5q25 0 41 43t16 124q0 148 -64 236v3h96q29 -30 51 -96t22 -144q0 -118 -42 -186.5t-110 -68.5t-96 69h-3q-13 -30 -39.5 -49.5t-62.5 -19.5q-62 0 -104.5 63t-42.5 182q0 84 23 151t52 99h95v-3q-67 -88 -67 -242q0 -79 16 -120
t40 -41q21 0 31.5 23.5t10.5 51.5l-2 189h100z" />
    <glyph glyph-name="iotadieresis" unicode="&#x3ca;" horiz-adv-x="213" 
d="M20 557q-22 0 -37.5 16t-15.5 40t15.5 40t38.5 16q22 0 37 -16t15 -40t-15 -40t-38 -16zM185 557q-22 0 -37.5 16t-15.5 40t15.5 40t38.5 16q22 0 37 -16t15 -40t-15 -40t-38 -16zM157 487v-364q0 -29 9 -40t29 -10l-8 -77q-15 -4 -39 -4q-44 0 -71 25t-27 97v373h107z
" />
    <glyph glyph-name="upsilondieresis" unicode="&#x3cb;" horiz-adv-x="407" 
d="M114 557q-22 0 -37.5 16t-15.5 40t15.5 40t38.5 16q22 0 37 -16t15 -40t-15 -40t-38 -16zM279 557q-22 0 -37.5 16t-15.5 40t15.5 40t38.5 16q22 0 37 -16t15 -40t-15 -40t-38 -16zM246 487h100q28 -78 28 -184q0 -311 -180 -311q-69 0 -109 43t-40 121v180q0 114 -7 151
h103q10 -20 10 -100v-227q0 -37 14.5 -57.5t37.5 -20.5q67 0 67 199q0 138 -24 206z" />
    <glyph glyph-name="omicrontonos" unicode="&#x3cc;" horiz-adv-x="410" 
d="M203 681h88l-59 -138h-61zM204 -8q-79 0 -126 65t-47 185q0 124 51 188t126 64q78 0 124.5 -66t46.5 -184q0 -70 -16.5 -121.5t-43.5 -78.5t-56 -39.5t-59 -12.5zM208 74q65 0 65 170q0 67 -15 117.5t-52 50.5q-38 0 -53.5 -50.5t-15.5 -117.5q0 -170 71 -170z" />
    <glyph glyph-name="upsilontonos" unicode="&#x3cd;" horiz-adv-x="407" 
d="M196 684h94l-59 -138h-67zM246 487h100q28 -78 28 -184q0 -311 -180 -311q-69 0 -109 43t-40 121v180q0 114 -7 151h103q10 -20 10 -100v-227q0 -37 14.5 -57.5t37.5 -20.5q67 0 67 199q0 138 -24 206z" />
    <glyph glyph-name="omegatonos" unicode="&#x3ce;" horiz-adv-x="562" 
d="M280 681h88l-59 -138h-60zM330 345l-2 -189q0 -28 11 -51.5t30 -23.5q25 0 41 43t16 124q0 148 -64 236v3h96q29 -30 51 -96t22 -144q0 -118 -42 -186.5t-110 -68.5t-96 69h-3q-13 -30 -39.5 -49.5t-62.5 -19.5q-62 0 -104.5 63t-42.5 182q0 84 23 151t52 99h95v-3
q-67 -88 -67 -242q0 -79 16 -120t40 -41q21 0 31.5 23.5t10.5 51.5l-2 189h100z" />
    <glyph glyph-name="uni0401" unicode="&#x401;" horiz-adv-x="376" 
d="M326 396v-89h-160v-214h182v-93h-289v674h277v-93h-170v-185h160zM111 719q-21 0 -36 16t-15 40t15.5 40t36.5 16q22 0 37 -16t15 -40t-15 -40t-38 -16zM285 719q-21 0 -36 16t-15 40t15.5 40t36.5 16q22 0 37 -16t15 -40t-15 -40t-38 -16z" />
    <glyph glyph-name="uni0402" unicode="&#x402;" horiz-adv-x="515" 
d="M13 674h388v-98h-162v-159h2q36 21 78 21q93 0 140 -98q31 -68 31 -176q0 -130 -57 -206q-54 -75 -127 -92l-24 92q41 15 67 56q30 47 30 153q0 85 -23 132t-70 47q-25 0 -47 -14v-332h-107v576h-119v98z" />
    <glyph glyph-name="uni0403" unicode="&#x403;" horiz-adv-x="362" 
d="M59 674h290v-93h-183v-581h-107v674zM226 821h114l-123 -111h-79z" />
    <glyph glyph-name="uni0404" unicode="&#x404;" horiz-adv-x="395" 
d="M372 658l-20 -92q-28 20 -68 20q-39 0 -68.5 -19.5t-45.5 -51.5t-24 -64t-9 -65h193v-93h-191q3 -37 10.5 -69.5t23 -64.5t44 -51t66.5 -19q46 0 82 17l15 -88q-48 -25 -108 -25q-115 0 -179.5 93.5t-64.5 247.5q0 63 13.5 121.5t41 110.5t77.5 83.5t117 31.5
q44 0 95 -23z" />
    <glyph glyph-name="uni0405" unicode="&#x405;" horiz-adv-x="379" 
d="M26 22l18 92q45 -27 104 -27q49 0 75.5 25.5t26.5 68.5q0 38 -21 64.5t-67 58.5q-59 37 -93 86t-34 102q0 82 52.5 135t144.5 53q61 0 100 -24l-19 -92q-36 23 -83 23q-43 0 -66.5 -24t-23.5 -58q0 -37 20.5 -61t75.5 -59q119 -78 119 -193q0 -90 -57.5 -144t-149.5 -54
q-80 0 -122 28z" />
    <glyph glyph-name="uni0406" unicode="&#x406;" horiz-adv-x="226" 
d="M59 674h107v-674h-107v674z" />
    <glyph glyph-name="uni0407" unicode="&#x407;" horiz-adv-x="226" 
d="M59 674h107v-674h-107v674zM25 719q-21 0 -36 16t-15 40t15.5 40t36.5 16q22 0 37 -16t15 -40t-15 -40t-38 -16zM199 719q-21 0 -36 16t-15 40t15.5 40t36.5 16q22 0 37 -16t15 -40t-15 -40t-38 -16z" />
    <glyph glyph-name="uni0408" unicode="&#x408;" horiz-adv-x="282" 
d="M124 200v474h107v-470q0 -121 -46.5 -166.5t-128.5 -45.5q-37 0 -59 8l9 90q15 -4 40 -4q39 0 58.5 23.5t19.5 90.5z" />
    <glyph glyph-name="uni0409" unicode="&#x409;" horiz-adv-x="677" 
d="M82 674h311v-259q30 4 52 4q93 0 149.5 -56t56.5 -148t-52 -149q-65 -71 -200 -71q-70 0 -112 8v578h-107v-201q0 -145 -17.5 -233t-72.5 -130q-34 -26 -75 -26l-22 90q26 8 41 23q27 28 37.5 89.5t10.5 177.5v303zM393 329v-245q11 -3 34 -3q54 0 84 36t30 93
q0 55 -30.5 88.5t-83.5 33.5q-16 0 -34 -3z" />
    <glyph glyph-name="uni040A" unicode="&#x40a;" horiz-adv-x="701" 
d="M59 674h107v-270h145v270h105v-262q32 4 53 4q93 0 149 -54.5t56 -146.5t-52 -149q-65 -71 -199 -71q-67 0 -112 7v308h-145v-310h-107v674zM417 327v-243q11 -3 33 -3q54 0 84 36t30 92q0 55 -30.5 87.5t-82.5 32.5q-12 0 -34 -2z" />
    <glyph glyph-name="uni040B" unicode="&#x40b;" horiz-adv-x="532" 
d="M13 674h373v-98h-151v-171h2q49 38 107 38q71 0 104 -51q33 -49 33 -137v-255h-106v252q0 55 -20 79q-17 22 -50 22q-38 0 -70 -26v-327h-107v576h-115v98z" />
    <glyph glyph-name="uni040C" unicode="&#x40c;" horiz-adv-x="425" 
d="M59 674h104v-299h11l126 299h116l-159 -313q52 -16 77 -57.5t41 -113.5q33 -155 45 -190h-106q-12 31 -38 161q-15 70 -36 103t-66 33h-11v-297h-104v674zM252 816h114l-123 -111h-79z" />
    <glyph glyph-name="uni040E" unicode="&#x40e;" horiz-adv-x="384" 
d="M-4 674h115l70 -266q11 -40 26 -112h3l9 51.5l11 62.5l52 264h108l-91 -336q-53 -194 -89 -258q-52 -92 -132 -92q-27 0 -45 5l4 87q12 -2 27 -2q29 0 52.5 29t34.5 65q6 19 -1 39zM77 806h71q5 -57 49 -57q46 0 51 57h71q-14 -107 -122 -107q-112 0 -120 107z" />
    <glyph glyph-name="uni040F" unicode="&#x40f;" horiz-adv-x="488" 
d="M59 674h107v-581h156v581h107v-674h-136l-6 -149h-87l-5 149h-136v674z" />
    <glyph glyph-name="uni0410" unicode="&#x410;" horiz-adv-x="448" 
d="M287 175h-133l-37 -175h-103l150 674h124l139 -674h-104zM166 259h110l-28 155q-7 37 -24 153h-3l-11 -67.5t-15 -86.5z" />
    <glyph glyph-name="uni0411" unicode="&#x411;" horiz-adv-x="450" 
d="M59 674h317v-92h-211v-168q32 5 52 5q91 0 145 -52q61 -55 61 -152q0 -93 -52 -150q-65 -70 -200 -70q-67 0 -112 7v672zM165 329v-245q11 -3 34 -3q55 0 86 39q28 34 28 88q0 53 -30 88q-33 36 -84 36q-16 0 -34 -3z" />
    <glyph glyph-name="uni0412" unicode="&#x412;" horiz-adv-x="453" 
d="M59 2v662q52 13 133 13q108 0 160 -47q48 -42 48 -120q0 -48 -25.5 -87.5t-73.5 -60.5v-3q57 -16 89 -60.5t32 -105.5q0 -81 -49 -133q-58 -65 -202 -65q-67 0 -112 7zM165 592v-199h31q42 0 70.5 30t28.5 75t-22.5 71.5t-69.5 26.5q-26 0 -38 -4zM165 313v-232
q14 -3 34 -3q51 0 82 30t31 86t-33.5 87.5t-82.5 31.5h-31z" />
    <glyph glyph-name="uni0413" unicode="&#x413;" horiz-adv-x="362" 
d="M59 674h290v-93h-183v-581h-107v674z" />
    <glyph glyph-name="uni0414" unicode="&#x414;" horiz-adv-x="509" 
d="M126 674h313v-583l49 -2l-5 -232h-81l-6 143h-294l-5 -143h-82l-5 232l47 2q34 83 49 168q20 109 20 253v162zM224 581v-88q0 -139 -18 -246q-11 -74 -40 -154h167v488h-109z" />
    <glyph glyph-name="uni0415" unicode="&#x415;" horiz-adv-x="376" 
d="M326 396v-89h-160v-214h182v-93h-289v674h277v-93h-170v-185h160z" />
    <glyph glyph-name="uni0416" unicode="&#x416;" horiz-adv-x="649" 
d="M10 674h120l134 -298h11v298h98v-298h12l133 298h120l-177 -311q32 -6 56.5 -23.5t40 -45.5t24.5 -54.5t17 -62.5q30 -136 45 -177h-104q-7 18 -13.5 42.5t-15 63t-9.5 44.5q-7 32 -14.5 53.5t-20.5 45.5t-34 36t-49 12h-11v-297h-98v297h-10q-23 0 -42 -9t-30.5 -22
t-21.5 -34.5t-15 -39t-11 -42.5q-2 -8 -9.5 -45t-14 -62t-14.5 -43h-103q20 55 45 177q17 76 48 125.5t91 60.5z" />
    <glyph glyph-name="uni0417" unicode="&#x417;" horiz-adv-x="392" 
d="M46 559l-22 82q56 41 144 41q85 0 131.5 -46.5t46.5 -118.5q0 -53 -32.5 -97.5t-82.5 -58.5v-2q62 -11 99 -56.5t37 -113.5q0 -91 -62.5 -144t-156.5 -53q-83 0 -133 32l19 87q48 -29 105 -29q56 0 86.5 30t30.5 79q0 59 -40 89t-102 30h-20v82h14q51 0 89.5 29.5
t38.5 77.5q0 42 -25 66.5t-69 24.5q-46 0 -96 -31z" />
    <glyph glyph-name="uni0418" unicode="&#x418;" horiz-adv-x="491" 
d="M59 674h95v-190q0 -121 -11 -310h2q9 30 79 215l110 285h97v-674h-94v188q0 185 8 310h-2q-17 -64 -74 -211l-111 -287h-99v674z" />
    <glyph glyph-name="uni0419" unicode="&#x419;" horiz-adv-x="491" 
d="M59 674h95v-190q0 -121 -11 -310h2q9 30 79 215l110 285h97v-674h-94v188q0 185 8 310h-2q-17 -64 -74 -211l-111 -287h-99v674zM124 806h71q5 -57 49 -57q46 0 51 57h71q-14 -107 -122 -107q-112 0 -120 107z" />
    <glyph glyph-name="uni041A" unicode="&#x41a;" horiz-adv-x="425" 
d="M59 674h104v-299h11l126 299h116l-159 -313q52 -16 77 -57.5t41 -113.5q33 -155 45 -190h-106q-12 31 -38 161q-15 70 -36 103t-66 33h-11v-297h-104v674z" />
    <glyph glyph-name="uni041B" unicode="&#x41b;" horiz-adv-x="466" 
d="M83 674h323v-674h-107v581h-118v-201q0 -147 -17 -233.5t-72 -128.5q-35 -27 -77 -27l-23 90q24 5 42 20q28 28 38.5 90t10.5 178v305z" />
    <glyph glyph-name="uni041C" unicode="&#x41c;" horiz-adv-x="620" 
d="M482 0l-13 260q-8 155 -7 242h-3q-18 -102 -47 -220l-70 -274h-73l-66 267q-30 112 -48 227h-3q-1 -88 -9 -245l-12 -257h-93l45 674h113l65 -273q38 -156 51 -234h2q14 89 47 234l63 273h115l40 -674h-97z" />
    <glyph glyph-name="uni041D" unicode="&#x41d;" horiz-adv-x="492" 
d="M59 674h107v-279h160v279h107v-674h-107v297h-160v-297h-107v674z" />
    <glyph glyph-name="uni041E" unicode="&#x41e;" horiz-adv-x="465" 
d="M240 682q68 0 113.5 -47.5t64.5 -120.5t19 -168q0 -181 -56.5 -267.5t-151.5 -86.5q-98 0 -149.5 94t-51.5 252q0 155 56 249.5t156 94.5zM234 589q-48 0 -71.5 -69.5t-23.5 -182.5q0 -116 23.5 -184t72.5 -68q91 0 91 256q0 67 -7.5 119.5t-29 90.5t-55.5 38z" />
    <glyph glyph-name="uni041F" unicode="&#x41f;" horiz-adv-x="488" 
d="M59 674h370v-674h-107v581h-156v-581h-107v674z" />
    <glyph glyph-name="uni0420" unicode="&#x420;" horiz-adv-x="431" 
d="M59 0v664q55 13 125 13q116 0 168 -51q54 -51 54 -144q0 -92 -50 -150q-28 -34 -72 -52t-89 -18q-20 0 -30 1v-263h-106zM165 585v-235q8 -1 26 -1q52 0 80.5 33.5t28.5 91.5q0 52 -23.5 84t-74.5 32q-22 0 -37 -5z" />
    <glyph glyph-name="uni0421" unicode="&#x421;" horiz-adv-x="385" 
d="M356 101l13 -90q-34 -17 -99 -17q-115 0 -178.5 88.5t-63.5 245.5q0 93 23 163.5t61 110t81.5 59t91.5 19.5q60 0 88 -17l-20 -91q-28 14 -64 14q-62 0 -105 -61.5t-43 -189.5t41.5 -187t107.5 -59q39 0 66 12z" />
    <glyph glyph-name="uni0422" unicode="&#x422;" horiz-adv-x="376" 
d="M134 0v576h-121v98h349v-98h-121v-576h-107z" />
    <glyph glyph-name="uni0423" unicode="&#x423;" horiz-adv-x="384" 
d="M-4 674h115l70 -266q11 -40 26 -112h3l9 51.5l11 62.5l52 264h108l-91 -336q-53 -194 -89 -258q-52 -92 -132 -92q-27 0 -45 5l4 87q12 -2 27 -2q29 0 52.5 29t34.5 65q6 19 -1 39z" />
    <glyph glyph-name="uni0424" unicode="&#x424;" horiz-adv-x="554" 
d="M230 696h95v-52q90 -11 145.5 -86.5t55.5 -215.5q0 -151 -56 -223.5t-146 -84.5v-55h-95v55q-201 27 -201 305q0 142 59 218t143 87v52zM230 113v453q-41 -9 -68 -63.5t-27 -165.5q0 -105 27 -160.5t68 -63.5zM324 566v-453q95 18 95 229q0 111 -28 164.5t-67 59.5z" />
    <glyph glyph-name="uni0425" unicode="&#x425;" horiz-adv-x="400" 
d="M396 0h-111l-51 141q-21 61 -38 119h-3l-35 -121l-46 -139h-107l131 344l-126 330h111l48 -139q6 -16 35 -108h2l32 110l44 137h107l-129 -332z" />
    <glyph glyph-name="uni0426" unicode="&#x426;" horiz-adv-x="498" 
d="M59 674h107v-581h155v581h107v-583l49 -1l-5 -233h-82l-5 143h-326v674z" />
    <glyph glyph-name="uni0427" unicode="&#x427;" horiz-adv-x="470" 
d="M53 674h106v-228q0 -104 82 -104q37 0 64 17v315h106v-681h-105v282h-4q-51 -23 -98 -23q-151 0 -151 179v243z" />
    <glyph glyph-name="uni0428" unicode="&#x428;" horiz-adv-x="680" 
d="M59 674h105v-581h124v581h105v-581h124v581h105v-674h-563v674z" />
    <glyph glyph-name="uni0429" unicode="&#x429;" horiz-adv-x="691" 
d="M59 674h105v-581h124v581h105v-581h123v581h105v-583l49 -1l-5 -233h-82l-5 143h-519v674z" />
    <glyph glyph-name="uni042A" unicode="&#x42a;" horiz-adv-x="544" 
d="M13 674h247v-259q30 4 52 4q93 0 149.5 -56t56.5 -148q0 -93 -52 -150q-65 -70 -200 -70q-66 0 -112 7v581h-141v91zM260 329v-245q17 -3 34 -3q54 0 84 36t30 91q0 56 -30.5 90t-83.5 34q-16 0 -34 -3z" />
    <glyph glyph-name="uni042B" unicode="&#x42b;" horiz-adv-x="638" 
d="M59 674h106v-259q21 4 49 4q91 0 146.5 -55t55.5 -147q0 -93 -52 -151q-66 -71 -199 -71q-61 0 -106 7v672zM165 329v-246q11 -2 30 -2q51 0 81 36t30 91q0 56 -29.5 90t-78.5 34q-18 0 -33 -3zM472 674h107v-674h-107v674z" />
    <glyph glyph-name="uni042C" unicode="&#x42c;" horiz-adv-x="449" 
d="M59 674h106v-259q16 4 52 4q95 0 150.5 -54.5t55.5 -149.5q0 -91 -52 -149q-66 -71 -200 -71q-67 0 -112 7v672zM165 329v-246q11 -2 31 -2q55 0 86 36.5t31 91.5t-30.5 89t-83.5 34q-19 0 -34 -3z" />
    <glyph glyph-name="uni042D" unicode="&#x42d;" horiz-adv-x="398" 
d="M69 296v95h193q0 33 -7.5 65t-22.5 62t-42.5 49t-63.5 19q-41 0 -75 -16l-26 86q56 25 112 25q68 0 116.5 -31.5t72.5 -85t34.5 -109t10.5 -118.5q0 -149 -65.5 -246.5t-182.5 -97.5q-61 0 -109 24l21 89q34 -17 77 -17q40 0 69.5 20t45.5 52.5t23.5 65.5t9.5 69h-191z
" />
    <glyph glyph-name="uni042E" unicode="&#x42e;" horiz-adv-x="645" 
d="M59 674h105v-279h67q10 133 62.5 210t135.5 77q48 0 85 -27t59 -74t33 -106.5t11 -129.5q0 -180 -54 -266.5t-143 -86.5q-85 0 -135 81.5t-55 226.5h-66v-300h-105v674zM424 85q85 0 85 256q0 105 -20 176.5t-66 71.5q-45 0 -66.5 -72t-21.5 -178q0 -111 21.5 -182.5
t67.5 -71.5z" />
    <glyph glyph-name="uni042F" unicode="&#x42f;" horiz-adv-x="439" 
d="M121 0h-112q16 37 24 71q5 18 13.5 70t20 87.5t33.5 59.5q18 21 49 31v2q-53 16 -84 57t-31 105q0 97 64 149q59 45 155 45q74 0 127 -13v-664h-106v280h-20q-42 0 -65 -27q-14 -18 -23 -52t-16 -80.5t-11 -61.5q-7 -36 -18 -59zM274 363v227q-13 3 -32 3q-50 0 -75 -32
t-25 -81q0 -54 30 -86t79 -32q14 0 23 1z" />
    <glyph glyph-name="uni0430" unicode="&#x430;" horiz-adv-x="396" 
d="M346 305v-194q0 -73 6 -111h-96l-6 50h-2q-38 -58 -103 -58q-53 0 -88 40t-35 104q0 88 62.5 133t153.5 46v13q0 85 -73 85q-47 0 -91 -26l-20 72q56 35 134 35q158 0 158 -189zM241 153v91q-117 -3 -117 -97q0 -38 16 -56.5t37 -18.5t38 14.5t23 41.5q3 12 3 25z" />
    <glyph glyph-name="uni0431" unicode="&#x431;" horiz-adv-x="423" 
d="M358 700l-7 -91q-15 -7 -81 -20q-86 -15 -118 -76q-21 -40 -28 -105h3q14 34 45.5 56.5t69.5 22.5q68 0 109.5 -60.5t41.5 -179.5q0 -118 -46.5 -187.5t-130.5 -69.5q-53 0 -90.5 27.5t-56 74.5t-26.5 95t-8 103q0 182 52 271q50 91 159 113q6 2 52 11t60 15zM288 241
q0 27 -3 52.5t-11 51.5t-23.5 42t-37.5 16q-43 0 -61 -52q-14 -36 -14 -93q0 -26 3 -53.5t10.5 -58.5t24 -51t39.5 -20t38.5 17.5t22.5 45.5t9.5 52.5t2.5 50.5z" />
    <glyph glyph-name="uni0432" unicode="&#x432;" horiz-adv-x="426" 
d="M49 -1v485q60 10 128 10q200 0 200 -122q0 -43 -26.5 -73t-68.5 -40v-2q53 -8 84 -40t31 -78q0 -44 -22.5 -74.5t-60.5 -45t-75 -20.5t-79 -6q-75 0 -111 6zM153 419v-132h32q36 0 64 19.5t28 50.5q0 65 -88 65q-19 0 -36 -3zM152 216v-148q14 -3 36 -3q44 0 73.5 17.5
t29.5 56.5t-31 58t-76 19h-32z" />
    <glyph glyph-name="uni0433" unicode="&#x433;" horiz-adv-x="312" 
d="M49 487h250v-89h-144v-398h-106v487z" />
    <glyph glyph-name="uni0434" unicode="&#x434;" horiz-adv-x="453" 
d="M104 487h286v-407l43 -2l-5 -210h-80l-6 132h-243l-6 -132h-80l-5 210l37 2q26 41 41 101q18 79 18 169v137zM198 403v-54q0 -97 -16 -168q-11 -56 -34 -99h137v321h-87z" />
    <glyph glyph-name="uni0435" unicode="&#x435;" horiz-adv-x="394" 
d="M363 215h-229q1 -139 109 -139q47 0 87 17l16 -76q-51 -23 -123 -23q-93 0 -143 63.5t-50 178.5q0 118 51 188t131 70q74 0 114 -60.5t40 -161.5q0 -38 -3 -57zM134 291h133q1 57 -16.5 90t-46.5 33q-33 0 -50.5 -37t-19.5 -86z" />
    <glyph glyph-name="uni0436" unicode="&#x436;" horiz-adv-x="571" 
d="M8 487h112l96 -206h18v206h102v-206h18l96 206h112l-132 -220q70 -20 94 -132q22 -96 40 -135h-104q-14 27 -32 112q-24 100 -82 100h-10v-212h-102v212h-10q-35 0 -52 -24t-31 -79q-21 -89 -32 -109h-103q16 35 41 133q27 115 94 134z" />
    <glyph glyph-name="uni0437" unicode="&#x437;" horiz-adv-x="359" 
d="M82 216v72h35q37 0 62 19t25 50q0 29 -19.5 45t-53.5 16q-43 0 -86 -24l-18 67q54 33 135 33q70 0 109.5 -34t39.5 -88q0 -43 -27 -71.5t-72 -39.5v-2q53 -8 85.5 -40t32.5 -81q0 -70 -57 -108t-138 -38q-73 0 -124 28l20 72q46 -22 93 -22q46 0 71.5 20.5t25.5 50.5
q0 38 -30 56.5t-73 18.5h-36z" />
    <glyph glyph-name="uni0438" unicode="&#x438;" horiz-adv-x="433" 
d="M49 487h97v-133q0 -117 -9 -229h3q22 66 62 165l77 197h104v-487h-97v131q0 87 8 227h-2q-25 -81 -53 -152q-47 -122 -87 -206h-103v487z" />
    <glyph glyph-name="uni0439" unicode="&#x439;" horiz-adv-x="433" 
d="M49 487h97v-133q0 -117 -9 -229h3q22 66 62 165l77 197h104v-487h-97v131q0 87 8 227h-2q-25 -81 -53 -152q-47 -122 -87 -206h-103v487zM96 673h68q5 -64 52 -64q48 0 53 64h68q-9 -119 -123 -119q-110 0 -118 119z" />
    <glyph glyph-name="uni043A" unicode="&#x43a;" horiz-adv-x="393" 
d="M50 487h104v-202h13l103 202h114l-137 -214q72 -18 100 -139q26 -99 42 -134h-107q-12 26 -36 116q-23 93 -83 93h-9v-209h-104v487z" />
    <glyph glyph-name="uni043B" unicode="&#x43b;" horiz-adv-x="413" 
d="M69 487h295v-487h-107v400h-88v-127q0 -114 -18 -178t-74 -90q-28 -14 -60 -14l-17 85q26 6 42 29q27 35 27 164v218z" />
    <glyph glyph-name="uni043C" unicode="&#x43c;" horiz-adv-x="568" 
d="M35 0l35 487h130l49 -182q22 -80 37 -148h3q28 124 34 148l47 182h131l32 -487h-100l-7 188q-4 109 -6 205h-2q-29 -133 -44 -195l-51 -192h-83l-50 190q-2 8 -44 197h-2q-4 -163 -6 -208l-6 -185h-97z" />
    <glyph glyph-name="uni043D" unicode="&#x43d;" horiz-adv-x="433" 
d="M49 487h107v-195h121v195h107v-487h-107v202h-121v-202h-107v487z" />
    <glyph glyph-name="uni043E" unicode="&#x43e;" horiz-adv-x="410" 
d="M208 494q78 0 124.5 -66t46.5 -184q0 -70 -16.5 -121.5t-43.5 -78.5t-56 -39.5t-59 -12.5q-79 0 -126 65t-47 185q0 124 51 188t126 64zM206 412q-38 0 -53.5 -50.5t-15.5 -117.5q0 -170 71 -170q65 0 65 170q0 67 -15 117.5t-52 50.5z" />
    <glyph glyph-name="uni043F" unicode="&#x43f;" horiz-adv-x="431" 
d="M49 487h333v-487h-107v399h-119v-399h-107v487z" />
    <glyph glyph-name="uni0440" unicode="&#x440;" horiz-adv-x="425" 
d="M49 -192v526q0 71 -4 153h93l6 -60h2q34 67 102 67q71 0 108.5 -68.5t37.5 -181.5q0 -125 -44.5 -188.5t-109.5 -63.5q-54 0 -83 51h-2v-235h-106zM155 306v-128q0 -23 5 -41q16 -57 55 -57q73 0 73 162q0 75 -18 118.5t-54 43.5q-20 0 -36 -18.5t-21 -43.5
q-4 -15 -4 -36z" />
    <glyph glyph-name="uni0441" unicode="&#x441;" horiz-adv-x="313" 
d="M294 93l11 -83q-30 -16 -82 -16q-89 0 -140.5 64t-51.5 181q0 111 57 182.5t152 71.5q44 0 70 -14l-16 -85q-24 11 -52 11q-50 0 -77.5 -46.5t-27.5 -117.5q0 -74 28 -116.5t77 -42.5q31 0 52 11z" />
    <glyph glyph-name="uni0442" unicode="&#x442;" horiz-adv-x="346" 
d="M10 487h327v-88h-110v-399h-107v399h-110v88z" />
    <glyph glyph-name="uni0443" unicode="&#x443;" horiz-adv-x="370" 
d="M9 487h114l55 -265l6 -30.5t5.5 -33t4.5 -26.5h2q10 53 16 89l48 266h105l-90 -348q-51 -199 -114 -277q-45 -55 -100 -76l-35 92q35 16 66 50q27 28 43 68q6 15 6 23q0 9 -3 18z" />
    <glyph glyph-name="uni0444" unicode="&#x444;" horiz-adv-x="521" 
d="M212 677h96l-1 -182q87 -13 135 -78t48 -175q0 -112 -46.5 -176t-136.5 -75l1 -183h-96l1 183q-89 11 -135.5 74.5t-46.5 176.5q0 109 47 173.5t135 78.5zM213 59v369q-86 -29 -86 -184q0 -158 86 -185zM307 427v-369q86 30 86 186q0 152 -86 183z" />
    <glyph glyph-name="uni0445" unicode="&#x445;" horiz-adv-x="370" 
d="M10 487h115l37 -95q6 -16 16 -46.5l12 -36.5h2q10 35 27 83l35 95h108l-113 -240l114 -247h-116l-39 100q-1 3 -28 78h-2q-8 -26 -26 -78l-37 -100h-107l112 243z" />
    <glyph glyph-name="uni0446" unicode="&#x446;" horiz-adv-x="443" 
d="M49 487h107v-399h118v399h106v-407l43 -2l-5 -210h-80l-6 132h-283v487z" />
    <glyph glyph-name="uni0447" unicode="&#x447;" horiz-adv-x="423" 
d="M43 487h107v-182q0 -75 60 -75q32 0 57 17v240h107v-490h-106v178h-3q-35 -24 -91 -24q-65 0 -98 37.5t-33 107.5v191z" />
    <glyph glyph-name="uni0448" unicode="&#x448;" horiz-adv-x="631" 
d="M49 487h105v-399h109v399h105v-399h109v399h105v-487h-533v487z" />
    <glyph glyph-name="uni0449" unicode="&#x449;" horiz-adv-x="644" 
d="M49 487h105v-399h109v399h105v-399h109v399h105v-407l43 -2l-5 -210h-80l-6 132h-485v487z" />
    <glyph glyph-name="uni044A" unicode="&#x44a;" horiz-adv-x="500" 
d="M11 487h221v-164q25 4 49 4q82 0 137.5 -40t55.5 -119q0 -81 -58 -125q-63 -48 -175 -48q-45 0 -115 8v397h-115v87zM232 245v-168q10 -2 33 -2q42 0 71.5 22.5t29.5 64.5q0 43 -30 64.5t-75 21.5q-15 0 -29 -3z" />
    <glyph glyph-name="uni044B" unicode="&#x44b;" horiz-adv-x="583" 
d="M49 487h106v-164q16 4 48 4q76 0 128.5 -41.5t52.5 -117.5q0 -81 -58 -125q-63 -48 -162 -48q-45 0 -115 8v484zM155 245v-168q9 -2 30 -2q36 0 63.5 23.5t27.5 63.5q0 41 -27.5 63.5t-64.5 22.5q-20 0 -29 -3zM429 487h105v-487h-105v487z" />
    <glyph glyph-name="uni044C" unicode="&#x44c;" horiz-adv-x="424" 
d="M49 487h106v-164q25 4 49 4q84 0 138.5 -40.5t54.5 -121.5q0 -78 -58 -122q-63 -48 -175 -48q-45 0 -115 8v484zM155 245v-169q10 -1 30 -1q44 0 74 22t30 65t-30 64.5t-75 21.5q-15 0 -29 -3z" />
    <glyph glyph-name="uni044D" unicode="&#x44d;" horiz-adv-x="352" 
d="M49 211v74h164q-2 53 -29.5 90t-79.5 37q-37 0 -71 -14l-17 73q37 23 106 23q89 0 143 -65q57 -71 57 -182q0 -112 -58.5 -183t-156.5 -71q-60 0 -97 21l15 77q37 -14 73 -14q48 0 80.5 38t34.5 96h-164z" />
    <glyph glyph-name="uni044E" unicode="&#x44e;" horiz-adv-x="571" 
d="M49 487h105v-194h52q11 99 58 150t109 51q77 0 122.5 -65.5t45.5 -184.5q0 -70 -16 -121.5t-42.5 -78.5t-54.5 -39.5t-57 -12.5q-70 0 -114.5 55.5t-51.5 160.5h-51v-208h-105v487zM374 74q34 0 48.5 51t14.5 119q0 66 -15 117t-50 51q-37 0 -52 -50.5t-15 -117.5
q0 -170 69 -170z" />
    <glyph glyph-name="uni044F" unicode="&#x44f;" horiz-adv-x="411" 
d="M361 482v-482h-103v199h-17q-31 0 -51 -16q-12 -9 -22 -27.5t-14 -31.5t-12 -45.5t-11 -42.5q-3 -15 -13 -36h-111q15 25 23 52q2 5 9.5 35t12 43.5t14.5 34t21 33.5q23 24 60 33v2q-49 10 -80 40t-31 80q0 63 53 103q47 35 150 35q77 0 122 -9zM259 266v153q-15 3 -30 3
q-39 0 -62.5 -19t-23.5 -56q0 -36 27 -59t65 -23q18 0 24 1z" />
    <glyph glyph-name="uni0451" unicode="&#x451;" horiz-adv-x="394" 
d="M363 215h-229q1 -139 109 -139q47 0 87 17l16 -76q-51 -23 -123 -23q-93 0 -143 63.5t-50 178.5q0 118 51 188t131 70q74 0 114 -60.5t40 -161.5q0 -38 -3 -57zM134 291h133q1 57 -16.5 90t-46.5 33q-33 0 -50.5 -37t-19.5 -86zM130 564q-21 0 -36.5 15.5t-15.5 39.5
t15.5 39.5t37.5 15.5t37 -15.5t15 -39.5t-15 -39.5t-38 -15.5zM297 564q-21 0 -36.5 15.5t-15.5 39.5t15.5 39.5t37.5 15.5t37 -15.5t15 -39.5t-15 -39.5t-38 -15.5z" />
    <glyph glyph-name="uni0452" unicode="&#x452;" horiz-adv-x="440" 
d="M6 621h53v71h107v-71h170v-68h-170v-120h2q37 57 100 57q69 0 103 -70q35 -66 35 -199q0 -203 -81 -290q-46 -49 -97 -56l-24 88q35 8 56 41q40 63 40 213q0 89 -18 137q-16 46 -52 46q-29 0 -47 -29q-17 -28 -17 -64v-307h-107v553h-53v68z" />
    <glyph glyph-name="uni0453" unicode="&#x453;" horiz-adv-x="312" 
d="M49 487h250v-89h-144v-398h-106v487zM195 686h99l-103 -138h-68z" />
    <glyph glyph-name="uni0454" unicode="&#x454;" horiz-adv-x="353" 
d="M346 472l-20 -76q-32 18 -69 18q-54 0 -84.5 -38.5t-33.5 -90.5h168v-74h-168q4 -62 36 -99.5t84 -37.5q39 0 69 15l16 -75q-38 -21 -101 -21q-99 0 -156 69.5t-57 178.5q0 108 58.5 180.5t164.5 72.5q60 0 93 -22z" />
    <glyph glyph-name="uni0455" unicode="&#x455;" horiz-adv-x="308" 
d="M20 22l21 79q39 -26 84 -26q29 0 45 14.5t16 41.5q0 23 -13 40t-46 38q-99 60 -99 140q0 63 41.5 104t107.5 41q51 0 93 -24l-21 -79q-33 21 -67 21q-26 0 -40.5 -14.5t-14.5 -35.5q0 -20 12 -35t46 -37q100 -58 100 -147q0 -72 -44.5 -110.5t-116.5 -38.5q-69 0 -104 28
z" />
    <glyph glyph-name="uni0456" unicode="&#x456;" horiz-adv-x="205" 
d="M156 0h-107v487h107v-487zM101 676q26 0 42 -17t16 -45t-16.5 -45t-42.5 -17q-24 0 -40 17.5t-16 44.5q0 28 16.5 45t40.5 17z" />
    <glyph glyph-name="uni0457" unicode="&#x457;" horiz-adv-x="205" 
d="M156 0h-107v487h107v-487zM18 564q-21 0 -36.5 15.5t-15.5 39.5t15.5 39.5t37.5 15.5t37 -15.5t15 -39.5t-15 -39.5t-38 -15.5zM186 564q-21 0 -36.5 15.5t-15.5 39.5t15.5 39.5t37.5 15.5t37 -15.5t15 -39.5t-15 -39.5t-38 -15.5z" />
    <glyph glyph-name="uni0458" unicode="&#x458;" horiz-adv-x="208" 
d="M-24 -200l-10 85q47 8 64 31q23 29 23 141v430h107v-454q0 -77 -14 -120t-44 -69q-48 -42 -126 -44zM107 676q25 0 41 -17t16 -45t-16.5 -45t-42.5 -17q-24 0 -40 17.5t-16 44.5q0 28 16.5 45t41.5 17z" />
    <glyph glyph-name="uni0459" unicode="&#x459;" horiz-adv-x="633" 
d="M69 487h296v-163q28 3 47 3q84 0 139.5 -41t55.5 -120q0 -77 -57 -122q-65 -49 -180 -49q-41 0 -111 8v397h-90v-127q0 -116 -18 -179t-74 -89q-26 -14 -60 -14l-17 85q26 6 42 29q27 33 27 164v218zM365 245v-168q10 -2 30 -2q44 0 74 22t30 65q0 44 -29.5 65t-75.5 21
q-16 0 -29 -3z" />
    <glyph glyph-name="uni045A" unicode="&#x45a;" horiz-adv-x="643" 
d="M49 487h107v-180h114v180h106v-166q38 4 50 4q82 0 136.5 -41.5t54.5 -121.5q0 -74 -57 -118q-65 -49 -179 -49q-55 0 -111 8v218h-114v-221h-107v487zM376 243v-166q10 -2 32 -2q44 0 72.5 21.5t28.5 64.5t-29.5 63.5t-75.5 20.5q-10 0 -28 -2z" />
    <glyph glyph-name="uni045B" unicode="&#x45b;" horiz-adv-x="444" 
d="M6 621h53v71h107v-71h170v-68h-170v-122h2q16 25 42 41q29 18 65 18q58 0 89 -47t31 -136v-307h-107v299q0 101 -56 101q-47 0 -62 -60q-4 -18 -4 -40v-300h-107v553h-53v68z" />
    <glyph glyph-name="uni045C" unicode="&#x45c;" horiz-adv-x="393" 
d="M50 487h104v-202h13l103 202h114l-137 -214q72 -18 100 -139q26 -99 42 -134h-107q-12 26 -36 116q-23 93 -83 93h-9v-209h-104v487zM226 686h98l-103 -138h-68z" />
    <glyph glyph-name="uni045E" unicode="&#x45e;" horiz-adv-x="370" 
d="M65 673h68q5 -64 52 -64q48 0 53 64h68q-9 -119 -123 -119q-110 0 -118 119zM9 487h114l55 -265l6 -30.5t5.5 -33t4.5 -26.5h2q10 53 16 89l48 266h105l-90 -348q-51 -199 -114 -277q-45 -55 -100 -76l-35 92q35 16 66 50q27 28 43 68q6 15 6 23q0 9 -3 18z" />
    <glyph glyph-name="uni045F" unicode="&#x45f;" horiz-adv-x="430" 
d="M49 487h107v-399h118v399h107v-487h-119l-6 -136h-82l-7 136h-118v487z" />
    <glyph glyph-name="uni0490" unicode="&#x490;" horiz-adv-x="356" 
d="M59 674h205l14 117h75l-10 -210h-178v-581h-106v674z" />
    <glyph glyph-name="uni0491" unicode="&#x491;" horiz-adv-x="310" 
d="M49 487h168l11 104h78l-8 -193h-143v-398h-106v487z" />
    <glyph glyph-name="uni04D9" unicode="&#x4d9;" horiz-adv-x="328" 
d="M64 393l-16 72q53 29 124 29q92 0 141.5 -64t49.5 -179q0 -118 -50 -187.5t-130 -69.5q-74 0 -114.5 61t-40.5 162q0 18 3 54h228q-1 141 -106 141q-45 0 -89 -19zM259 195h-132q-1 -55 17 -88t47 -33q32 0 49 37t19 84z" />
    <glyph glyph-name="Wgrave" unicode="&#x1e80;" horiz-adv-x="668" 
d="M241 0h-103l-122 674h111l43 -294q14 -94 28 -240h3q7 62 39 241l55 293h88l52 -289q26 -146 36 -245h2q6 59 30 243l43 291h105l-124 -674h-109l-51 269q-18 98 -32 221h-2q-20 -144 -37 -223zM191 821h114l88 -111h-79z" />
    <glyph glyph-name="wgrave" unicode="&#x1e81;" horiz-adv-x="594" 
d="M8 487h114l35 -223q16 -106 21 -151h3q11 67 29 149l49 225h82l46 -219q17 -76 29 -155h2q6 56 22 153l37 221h106l-124 -487h-90l-45 199q-16 66 -26 150h-2q-8 -61 -29 -151l-48 -198h-92zM177 686h99l72 -138h-68z" />
    <glyph glyph-name="Wacute" unicode="&#x1e82;" horiz-adv-x="668" 
d="M241 0h-103l-122 674h111l43 -294q14 -94 28 -240h3q7 62 39 241l55 293h88l52 -289q26 -146 36 -245h2q6 59 30 243l43 291h105l-124 -674h-109l-51 269q-18 98 -32 221h-2q-20 -144 -37 -223zM373 821h114l-123 -111h-79z" />
    <glyph glyph-name="wacute" unicode="&#x1e83;" horiz-adv-x="594" 
d="M8 487h114l35 -223q16 -106 21 -151h3q11 67 29 149l49 225h82l46 -219q17 -76 29 -155h2q6 56 22 153l37 221h106l-124 -487h-90l-45 199q-16 66 -26 150h-2q-8 -61 -29 -151l-48 -198h-92zM330 686h99l-103 -138h-68z" />
    <glyph glyph-name="Wdieresis" unicode="&#x1e84;" horiz-adv-x="668" 
d="M241 0h-103l-122 674h111l43 -294q14 -94 28 -240h3q7 62 39 241l55 293h88l52 -289q26 -146 36 -245h2q6 59 30 243l43 291h105l-124 -674h-109l-51 269q-18 98 -32 221h-2q-20 -144 -37 -223zM250 719q-21 0 -36 16t-15 40t15.5 40t36.5 16q22 0 37 -16t15 -40t-15 -40
t-38 -16zM424 719q-21 0 -36 16t-15 40t15.5 40t36.5 16q22 0 37 -16t15 -40t-15 -40t-38 -16z" />
    <glyph glyph-name="wdieresis" unicode="&#x1e85;" horiz-adv-x="594" 
d="M8 487h114l35 -223q16 -106 21 -151h3q11 67 29 149l49 225h82l46 -219q17 -76 29 -155h2q6 56 22 153l37 221h106l-124 -487h-90l-45 199q-16 66 -26 150h-2q-8 -61 -29 -151l-48 -198h-92zM212 564q-21 0 -36.5 15.5t-15.5 39.5t15.5 39.5t37.5 15.5t37 -15.5t15 -39.5
t-15 -39.5t-38 -15.5zM379 564q-21 0 -36.5 15.5t-15.5 39.5t15.5 39.5t37.5 15.5t37 -15.5t15 -39.5t-15 -39.5t-38 -15.5z" />
    <glyph glyph-name="uni1EA0" unicode="&#x1ea0;" horiz-adv-x="448" 
d="M287 175h-133l-37 -175h-103l150 674h124l139 -674h-104zM166 259h110l-28 155q-7 37 -24 153h-3q-23 -140 -26 -154zM222 -80q22 0 37 -15.5t15 -39.5t-15 -39.5t-38 -15.5q-21 0 -36.5 15.5t-15.5 39.5t15.5 39.5t37.5 15.5z" />
    <glyph glyph-name="uni1EA1" unicode="&#x1ea1;" horiz-adv-x="396" 
d="M346 305v-194q0 -73 6 -111h-96l-6 50h-2q-38 -58 -103 -58q-53 0 -88 40t-35 104q0 88 62.5 133t153.5 46v13q0 85 -73 85q-47 0 -91 -26l-20 72q56 35 134 35q158 0 158 -189zM241 153v91q-117 -3 -117 -97q0 -38 16 -56.5t37 -18.5t38 14.5t23 41.5q3 12 3 25z
M196 -80q22 0 37 -15.5t15 -39.5t-15 -39.5t-38 -15.5q-21 0 -36.5 15.5t-15.5 39.5t15.5 39.5t37.5 15.5z" />
    <glyph glyph-name="uni1EA2" unicode="&#x1ea2;" horiz-adv-x="448" 
d="M287 175h-133l-37 -175h-103l150 674h124l139 -674h-104zM166 259h110l-28 155q-7 37 -24 153h-3l-11 -67.5t-15 -86.5zM245 706l-52 10q6 18 25 41t19 39q0 29 -27 29q-19 0 -38 -32l-35 28q30 64 93 64q34 0 56.5 -21t22.5 -52q0 -27 -29.5 -61.5t-34.5 -44.5z" />
    <glyph glyph-name="uni1EA3" unicode="&#x1ea3;" horiz-adv-x="396" 
d="M346 305v-194q0 -73 6 -111h-96l-6 50h-2q-38 -58 -103 -58q-53 0 -88 40t-35 104q0 88 62.5 133t153.5 46v13q0 85 -73 85q-47 0 -91 -26l-20 72q56 35 134 35q158 0 158 -189zM241 153v91q-117 -3 -117 -97q0 -38 16 -56.5t37 -18.5t38 14.5t23 41.5q3 12 3 25z
M218 526l-55 11q6 21 28.5 50t22.5 48q0 13 -8.5 22t-21.5 9q-22 0 -38 -32l-36 28q30 65 93 65q35 0 58.5 -22t23.5 -55q0 -32 -30.5 -71t-36.5 -53z" />
    <glyph glyph-name="uni1EA4" unicode="&#x1ea4;" horiz-adv-x="448" 
d="M288 175h-134l-37 -175h-103l150 674h124l140 -674h-105zM166 259h110l-28 155q-4 24 -24 153h-3q-16 -107 -26 -153zM190 815h78l75 -105h-76l-38 56h-2l-38 -56h-73zM367 894h99l-106 -108h-56z" />
    <glyph glyph-name="uni1EA5" unicode="&#x1ea5;" horiz-adv-x="396" 
d="M346 305v-194q0 -73 6 -111h-96l-6 50h-2q-38 -58 -103 -58q-53 0 -88 40t-35 104q0 88 62.5 133t153.5 46v13q0 85 -73 85q-47 0 -91 -26l-20 72q56 35 134 35q158 0 158 -189zM241 153v91q-117 -3 -117 -97q0 -38 16 -56.5t37 -18.5t38 14.5t23 41.5q3 12 3 25z
M156 686h75l67 -138h-71l-32 82h-3l-31 -82h-72zM329 757h83l-85 -126h-52z" />
    <glyph glyph-name="uni1EA6" unicode="&#x1ea6;" horiz-adv-x="448" 
d="M288 175h-134l-37 -175h-103l150 674h124l140 -674h-105zM166 259h110l-28 155q-4 24 -24 153h-3q-16 -107 -26 -153zM244 880h98l64 -109h-57zM187 815h78l75 -105h-76l-38 56h-2l-38 -56h-72z" />
    <glyph glyph-name="uni1EA7" unicode="&#x1ea7;" horiz-adv-x="396" 
d="M346 305v-194q0 -73 6 -111h-95l-7 50h-2q-38 -58 -103 -58q-53 0 -88 40t-35 104q0 88 62.5 133t153.5 46v13q0 85 -73 85q-47 0 -91 -26l-20 72q56 35 134 35q158 0 158 -189zM241 153v91q-117 -3 -117 -97q0 -38 16 -56.5t37 -18.5t38 14.5t23 41.5q3 10 3 25z
M229 758h83l44 -126h-51zM160 686h74l67 -138h-71l-32 82h-3l-31 -82h-72z" />
    <glyph glyph-name="uni1EA8" unicode="&#x1ea8;" horiz-adv-x="448" 
d="M288 175h-134l-36 -175h-103l149 674h125l139 -674h-104zM167 259h110l-28 155q-7 37 -24 153h-3l-11 -67.5t-15 -86.5zM189 814h78l76 -104h-76l-38 56h-2l-38 -56h-73zM363 753l-44 10q6 17 25 39.5t19 37.5q0 12 -7.5 20t-18.5 8q-22 0 -39 -31l-32 25q29 60 89 60
q30 0 50.5 -19.5t20.5 -46.5q0 -21 -10.5 -37t-27.5 -34t-25 -32z" />
    <glyph glyph-name="uni1EA9" unicode="&#x1ea9;" horiz-adv-x="396" 
d="M346 305v-194q0 -73 6 -111h-96l-6 50h-2q-38 -58 -103 -58q-53 0 -88 40t-35 104q0 88 62.5 133t153.5 46v13q0 85 -73 85q-47 0 -91 -26l-20 72q56 35 134 35q158 0 158 -189zM241 153v91q-117 -3 -117 -97q0 -38 16 -56.5t37 -18.5t38 14.5t23 41.5q3 10 3 25z
M156 686h74l68 -138h-71l-32 82h-3l-32 -82h-72zM328 620l-49 10q6 17 24 39t18 37q0 12 -7 19.5t-19 7.5q-21 0 -37 -30l-32 26q29 60 87 60q32 0 53.5 -20t21.5 -49q0 -26 -27 -57.5t-33 -42.5z" />
    <glyph glyph-name="uni1EAA" unicode="&#x1eaa;" horiz-adv-x="448" 
d="M287 175h-133l-37 -175h-103l150 674h124l139 -674h-104zM166 259h110l-28 155q-7 37 -24 153h-3l-11 -67.5t-15 -86.5zM183 814h86l86 -104h-83l-45 53h-2l-44 -53h-81zM166 828h-51q-1 38 16.5 65t49.5 27q20 0 52 -17q26 -14 40 -14q22 0 23 33h50q0 -93 -67 -93
q-16 0 -50 17q-30 15 -39 15q-21 0 -24 -33z" />
    <glyph glyph-name="uni1EAB" unicode="&#x1eab;" horiz-adv-x="396" 
d="M346 305v-194q0 -73 6 -111h-96l-6 50h-2q-38 -58 -103 -58q-53 0 -88 40t-35 104q0 88 62.5 133t153.5 46v13q0 85 -73 85q-47 0 -91 -26l-20 72q56 35 134 35q158 0 158 -189zM241 153v91q-117 -3 -117 -97q0 -38 16 -56.5t37 -18.5t38 14.5t23 41.5q3 12 3 25z
M161 656h75l79 -108h-76l-39 59h-2l-40 -59h-77zM136 669h-50q-1 38 16.5 65.5t49.5 27.5q20 0 52 -17q24 -15 40 -15q22 0 23 33h49q0 -93 -66 -93q-16 0 -50 17q-30 15 -39 15q-21 0 -25 -33z" />
    <glyph glyph-name="uni1EAC" unicode="&#x1eac;" horiz-adv-x="448" 
d="M287 175h-133l-37 -175h-103l150 674h124l139 -674h-104zM166 259h110l-28 155q-7 37 -24 153h-3l-11 -67.5t-15 -86.5zM183 814h86l86 -104h-83l-45 53h-2l-44 -53h-81zM223 -190q-22 0 -38 16.5t-16 38.5q0 23 16 39t39 16t38.5 -16t15.5 -39t-16 -39t-39 -16z" />
    <glyph glyph-name="uni1EAD" unicode="&#x1ead;" horiz-adv-x="396" 
d="M346 305v-194q0 -73 6 -111h-96l-6 50h-2q-38 -58 -103 -58q-53 0 -88 40t-35 104q0 88 62.5 133t153.5 46v13q0 85 -73 85q-47 0 -91 -26l-20 72q56 35 134 35q158 0 158 -189zM241 153v91q-117 -3 -117 -97q0 -38 16 -56.5t37 -18.5t38 14.5t23 41.5q3 12 3 25z
M161 686h74l82 -138h-75l-43 83h-2l-43 -83h-76zM196 -80q22 0 37 -15.5t15 -39.5t-15 -39.5t-38 -15.5q-21 0 -36.5 15.5t-15.5 39.5t15.5 39.5t37.5 15.5z" />
    <glyph glyph-name="uni1EAE" unicode="&#x1eae;" horiz-adv-x="448" 
d="M288 175h-134l-36 -175h-104l150 674h125l139 -674h-104zM166 259h111l-28 155l-13 79.5l-12 73.5h-3q-16 -104 -25 -154zM111 796h50q11 -44 64 -44q55 0 66 44h50q-6 -47 -37.5 -73.5t-79.5 -26.5q-47 0 -77.5 26.5t-35.5 73.5zM253 893h100l-106 -108h-57z" />
    <glyph glyph-name="uni1EAF" unicode="&#x1eaf;" horiz-adv-x="396" 
d="M346 305v-194q0 -73 6 -111h-96l-6 50h-2q-38 -58 -103 -58q-53 0 -88 40t-35 104q0 88 62.5 133t153.5 46v13q0 85 -73 85q-47 0 -91 -26l-20 72q56 35 134 35q158 0 158 -189zM241 153v91q-117 -3 -117 -97q0 -38 16 -56.5t37 -18.5t38 14.5t23 41.5q3 12 3 25z
M222 753h89l-95 -121h-57zM76 649h53q3 -26 20.5 -41.5t45.5 -15.5q31 0 48.5 15.5t19.5 41.5h52q1 -52 -33.5 -85.5t-87.5 -33.5q-52 0 -85.5 33.5t-32.5 85.5z" />
    <glyph glyph-name="uni1EB0" unicode="&#x1eb0;" horiz-adv-x="448" 
d="M288 175h-134l-37 -175h-103l150 674h124l140 -674h-105zM166 259h110l-28 155q-7 37 -24 153h-3q-16 -104 -25 -154zM100 893h98l64 -108h-57zM109 796h49q13 -44 64 -44q56 0 67 44h49q-5 -47 -37 -73.5t-80 -26.5q-47 0 -77 26t-35 74z" />
    <glyph glyph-name="uni1EB1" unicode="&#x1eb1;" horiz-adv-x="396" 
d="M346 305v-194q0 -73 6 -111h-96l-6 50h-2q-38 -58 -103 -58q-53 0 -88 40t-35 104q0 88 62.5 133t153.5 46v13q0 85 -73 85q-48 0 -90 -26l-21 72q56 35 135 35q157 0 157 -189zM241 153v91q-117 -3 -117 -97q0 -38 16 -56.5t37 -18.5t38 14.5t23 41.5q3 10 3 25zM79 753
h90l63 -121h-57zM78 649h53q3 -26 20.5 -41.5t45.5 -15.5q31 0 48.5 15.5t19.5 41.5h52q1 -52 -33.5 -85.5t-87.5 -33.5q-52 0 -85.5 33.5t-32.5 85.5z" />
    <glyph glyph-name="uni1EB2" unicode="&#x1eb2;" horiz-adv-x="448" 
d="M288 175h-134l-37 -175h-103l150 674h125l139 -674h-104zM166 259h111l-29 155q-7 37 -24 153h-3l-11 -67.5t-15 -86.5zM239 772l-44 11q5 16 24 39t19 38q0 12 -7 20t-19 8q-20 0 -39 -31l-31 24q28 60 88 60q30 0 51 -19.5t21 -46.5q0 -21 -10.5 -37t-27.5 -33.5
t-25 -32.5zM111 795h49q13 -44 64 -44q55 0 67 44h49q-5 -47 -36.5 -73t-79.5 -26q-47 0 -77.5 26t-35.5 73z" />
    <glyph glyph-name="uni1EB3" unicode="&#x1eb3;" horiz-adv-x="396" 
d="M346 305v-194q0 -73 6 -111h-96l-6 50h-3q-37 -58 -103 -58q-52 0 -87 40t-35 104q0 88 62.5 133t153.5 46v13q0 85 -73 85q-49 0 -91 -26l-20 72q54 35 134 35q158 0 158 -189zM241 153l-1 91q-116 -3 -116 -97q0 -38 16 -56.5t37 -18.5t38 14.5t23 41.5q3 10 3 25z
M213 622l-48 10q6 17 24 38.5t18 36.5q0 11 -7.5 19t-19.5 8q-18 0 -37 -29l-31 25q28 60 87 60q32 0 53.5 -20t21.5 -49q0 -25 -27.5 -56t-33.5 -43zM76 649h53q3 -26 20.5 -41.5t45.5 -15.5q31 0 48.5 15.5t19.5 41.5h52q1 -52 -33.5 -85t-87.5 -33q-52 0 -85 33t-33 85z
" />
    <glyph glyph-name="uni1EB4" unicode="&#x1eb4;" horiz-adv-x="448" 
d="M288 175h-134l-36 -175h-103l149 674h125l139 -674h-104zM166 259h111l-28 155l-13 79.5l-12 73.5h-2l-11 -67.5t-15 -86.5zM161 827h-52q2 35 18.5 60t47.5 25q19 0 51 -17q26 -15 41 -15q22 0 23 33h50q0 -93 -67 -93q-19 0 -51 18q-30 14 -39 14q-19 0 -22 -25z
M106 796h49q13 -44 64 -44q56 0 67 44h50q-6 -47 -37.5 -73.5t-79.5 -26.5q-47 0 -77.5 26.5t-35.5 73.5z" />
    <glyph glyph-name="uni1EB5" unicode="&#x1eb5;" horiz-adv-x="396" 
d="M346 305v-194q0 -73 6 -111h-96l-6 50h-2q-38 -58 -103 -58q-53 0 -88 40t-35 104q0 88 62.5 133t153.5 46v13q0 85 -73 85q-47 0 -91 -26l-20 72q56 35 134 35q158 0 158 -189zM241 153v91q-117 -3 -117 -97q0 -38 16 -56.5t37 -18.5t38 14.5t23 41.5q3 12 3 25z
M135 684h-52q2 35 18.5 60t47.5 25q20 0 52 -17q28 -15 40 -15q22 0 23 34h50q0 -45 -17.5 -69.5t-49.5 -24.5q-18 0 -50 18q-32 14 -39 14q-20 0 -23 -25zM79 650h52q2 -27 20.5 -44t45.5 -17q30 0 48 17.5t20 43.5h51q1 -52 -33 -85.5t-87 -33.5q-52 0 -85 33.5t-32 85.5z
" />
    <glyph glyph-name="uni1EB6" unicode="&#x1eb6;" horiz-adv-x="448" 
d="M287 175h-133l-37 -175h-103l150 674h124l139 -674h-104zM166 259h110l-28 155q-7 37 -24 153h-3l-11 -67.5t-15 -86.5zM113 824h59q5 -43 55 -43q51 0 56 43h59q0 -49 -30 -78t-84 -29q-55 0 -85 28.5t-30 78.5zM223 -190q-22 0 -38 16.5t-16 38.5q0 23 16 39t39 16
t38.5 -16t15.5 -39t-16 -39t-39 -16z" />
    <glyph glyph-name="uni1EB7" unicode="&#x1eb7;" horiz-adv-x="396" 
d="M346 305v-194q0 -73 6 -111h-96l-6 50h-2q-38 -58 -103 -58q-53 0 -88 40t-35 104q0 88 62.5 133t153.5 46v13q0 85 -73 85q-47 0 -91 -26l-20 72q56 35 134 35q158 0 158 -189zM241 153v91q-117 -3 -117 -97q0 -38 16 -56.5t37 -18.5t38 14.5t23 41.5q3 12 3 25zM85 675
h55q2 -26 18 -41.5t39 -15.5q27 0 43 16t16 41h54q2 -53 -30 -87t-84 -34t-82.5 34.5t-28.5 86.5zM196 -80q22 0 37 -15.5t15 -39.5t-15 -39.5t-38 -15.5q-21 0 -36.5 15.5t-15.5 39.5t15.5 39.5t37.5 15.5z" />
    <glyph glyph-name="uni1EB8" unicode="&#x1eb8;" horiz-adv-x="376" 
d="M326 396v-89h-160v-214h182v-93h-289v674h277v-93h-170v-185h160zM187 -190q-22 0 -38 16.5t-16 38.5q0 23 16 39t39 16t38.5 -16t15.5 -39t-16 -39t-39 -16z" />
    <glyph glyph-name="uni1EB9" unicode="&#x1eb9;" horiz-adv-x="394" 
d="M363 215h-229q1 -139 109 -139q47 0 87 17l16 -76q-51 -23 -123 -23q-93 0 -143 63.5t-50 178.5q0 119 51 189t131 70q74 0 114 -61t40 -162q0 -38 -3 -57zM134 291h133q1 58 -16.5 91t-46.5 33q-33 0 -50.5 -37.5t-19.5 -86.5zM195 -81q22 0 37 -15.5t15 -39.5
t-15 -39.5t-38 -15.5q-21 0 -36.5 15.5t-15.5 39.5t15.5 39.5t37.5 15.5z" />
    <glyph glyph-name="uni1EBA" unicode="&#x1eba;" horiz-adv-x="376" 
d="M326 396v-89h-160v-214h182v-93h-289v674h277v-93h-170v-185h160zM219 706l-52 10q6 18 25 41t19 39q0 29 -27 29q-21 0 -38 -32l-36 28q32 64 94 64q34 0 56.5 -21t22.5 -52q0 -27 -29.5 -61.5t-34.5 -44.5z" />
    <glyph glyph-name="uni1EBB" unicode="&#x1ebb;" horiz-adv-x="394" 
d="M363 215h-229q1 -139 109 -139q47 0 87 17l16 -76q-51 -23 -123 -23q-93 0 -143 63.5t-50 178.5q0 118 51 188t131 70q74 0 114 -60.5t40 -161.5q0 -38 -3 -57zM134 291h133q1 57 -16.5 90t-46.5 33q-33 0 -50.5 -37t-19.5 -86zM217 526l-55 11q6 21 28.5 50t22.5 48
q0 14 -8.5 22.5t-21.5 8.5q-22 0 -39 -31l-35 27q13 29 37 47t56 18q35 0 58.5 -22t23.5 -55q0 -24 -11.5 -43.5t-29.5 -40.5t-26 -40z" />
    <glyph glyph-name="uni1EBC" unicode="&#x1ebc;" horiz-adv-x="376" 
d="M326 396v-89h-160v-214h181v-93h-288v674h277v-93h-170v-185h160zM137 718h-51q-1 49 16 77.5t47 28.5q22 0 50 -18q26 -17 38 -17q21 0 25 37h50q3 -103 -66 -103q-25 0 -51 16q-25 16 -36 16q-19 0 -22 -37z" />
    <glyph glyph-name="uni1EBD" unicode="&#x1ebd;" horiz-adv-x="394" 
d="M363 215h-229q1 -139 109 -139q47 0 87 17l16 -76q-51 -23 -123 -23q-93 0 -143 63.5t-50 178.5q0 118 51 188t131 70q74 0 114 -60.5t40 -161.5q0 -38 -3 -57zM134 291h133q1 57 -16.5 90t-46.5 33q-33 0 -50.5 -37t-19.5 -86zM133 559h-52q0 47 17.5 77t49.5 30
q18 0 54 -18q26 -16 38 -16q11 0 16.5 7.5t6.5 29.5h50q0 -103 -67 -103q-19 0 -51 16q-4 2 -10 6t-10 6t-8.5 3.5t-9.5 1.5q-22 0 -24 -40z" />
    <glyph glyph-name="uni1EBE" unicode="&#x1ebe;" horiz-adv-x="376" 
d="M326 396v-89h-160v-214h182v-93h-289v674h277v-93h-170v-185h160zM161 814h78l75 -104h-76l-38 56h-2l-38 -56h-73zM338 894h99l-105 -109h-57z" />
    <glyph glyph-name="uni1EBF" unicode="&#x1ebf;" horiz-adv-x="394" 
d="M363 215h-229q1 -139 109 -139q47 0 87 17l16 -76q-51 -23 -123 -23q-93 0 -143 63.5t-50 178.5q0 118 51 188t131 70q74 0 114 -60.5t40 -161.5q0 -38 -3 -57zM134 291h133q1 57 -16.5 90t-46.5 33q-33 0 -50.5 -37t-19.5 -86zM175 686h74l67 -138h-71l-31 82h-3
l-32 -82h-72zM347 757h83l-85 -126h-52z" />
    <glyph glyph-name="uni1EC0" unicode="&#x1ec0;" horiz-adv-x="376" 
d="M326 396v-89h-160v-214h182v-93h-289v674h277v-93h-170v-185h160zM212 879h99l63 -108h-56zM155 814h78l76 -104h-76l-38 56h-2l-38 -56h-73z" />
    <glyph glyph-name="uni1EC1" unicode="&#x1ec1;" horiz-adv-x="394" 
d="M363 215h-229q1 -139 109 -139q47 0 87 17l16 -76q-51 -23 -123 -23q-93 0 -143 63.5t-50 178.5q0 118 51 188t131 70q74 0 114 -60.5t40 -161.5q0 -38 -3 -57zM134 291h133q1 57 -16.5 90t-46.5 33q-33 0 -50.5 -37t-19.5 -86zM243 758h83l45 -126h-52zM174 686h75
l67 -138h-71l-32 82h-3l-32 -82h-72z" />
    <glyph glyph-name="uni1EC2" unicode="&#x1ec2;" horiz-adv-x="376" 
d="M327 396v-89h-161v-214h182v-93h-288v674h276v-93h-170v-185h161zM159 814h79l75 -104h-76l-38 56h-2l-38 -56h-73zM334 753l-44 10q6 17 25 39.5t19 37.5q0 12 -7.5 20t-19.5 8q-22 0 -39 -31l-31 25q29 60 88 60q30 0 50.5 -19.5t20.5 -46.5q0 -21 -10 -37t-27 -34
t-25 -32z" />
    <glyph glyph-name="uni1EC3" unicode="&#x1ec3;" horiz-adv-x="394" 
d="M363 215h-229q1 -139 109 -139q47 0 87 17l16 -76q-51 -23 -123 -23q-93 0 -143 63.5t-50 178.5q0 118 51 188t131 70q74 0 114 -60.5t40 -161.5q0 -38 -3 -57zM134 291h133q1 57 -16.5 90t-46.5 33q-33 0 -50.5 -37t-19.5 -86zM168 686h75l67 -138h-71l-32 82h-3
l-32 -82h-72zM340 620l-49 10q6 17 24.5 39t18.5 37q0 11 -7.5 19t-19.5 8q-21 0 -37 -30l-32 26q29 60 87 60q32 0 53.5 -20t21.5 -49q0 -26 -27 -57.5t-33 -42.5z" />
    <glyph glyph-name="uni1EC4" unicode="&#x1ec4;" horiz-adv-x="376" 
d="M326 396v-89h-160v-214h182v-93h-289v674h277v-93h-170v-185h160zM159 814h86l86 -104h-83l-45 53h-2l-44 -53h-81zM142 828h-51q-1 38 16.5 65t49.5 27q20 0 52 -17q26 -14 40 -14q22 0 23 33h50q0 -93 -67 -93q-16 0 -50 17q-30 15 -39 15q-21 0 -24 -33z" />
    <glyph glyph-name="uni1EC5" unicode="&#x1ec5;" horiz-adv-x="394" 
d="M363 215h-229q1 -139 109 -139q47 0 87 17l16 -76q-51 -23 -123 -23q-93 0 -143 63.5t-50 178.5q0 118 51 188t131 70q74 0 114 -60.5t40 -161.5q0 -38 -3 -57zM134 291h133q1 57 -16.5 90t-46.5 33q-33 0 -50.5 -37t-19.5 -86zM171 656h76l79 -108h-76l-40 59h-2
l-39 -59h-77zM147 669h-50q-1 38 16.5 65.5t49.5 27.5q20 0 52 -17q24 -15 40 -15q22 0 23 33h49q0 -93 -66 -93q-16 0 -50 17q-30 15 -39 15q-20 0 -25 -33z" />
    <glyph glyph-name="uni1EC6" unicode="&#x1ec6;" horiz-adv-x="376" 
d="M326 396v-89h-160v-214h182v-93h-289v674h277v-93h-170v-185h160zM151 814h86l86 -104h-83l-45 53h-2l-44 -53h-81zM195 -190q-22 0 -38 16.5t-16 38.5q0 23 16 39t39 16t38.5 -16t15.5 -39t-16 -39t-39 -16z" />
    <glyph glyph-name="uni1EC7" unicode="&#x1ec7;" horiz-adv-x="394" 
d="M363 215h-229q1 -139 109 -139q47 0 87 17l16 -76q-51 -23 -123 -23q-93 0 -143 63.5t-50 178.5q0 119 51 189t131 70q74 0 114 -61t40 -162q0 -38 -3 -57zM134 291h133q1 58 -16.5 91t-46.5 33q-33 0 -50.5 -37.5t-19.5 -86.5zM160 686h74l82 -138h-75l-43 83h-2
l-43 -83h-76zM195 -80q22 0 37 -15.5t15 -39.5q0 -23 -15 -39t-38 -16q-21 0 -36.5 16t-15.5 39q0 24 15.5 39.5t37.5 15.5z" />
    <glyph glyph-name="uni1EC8" unicode="&#x1ec8;" horiz-adv-x="226" 
d="M59 674h107v-674h-107v674zM135 706l-53 10q6 18 25.5 41t19.5 39q0 29 -27 29q-21 0 -38 -32l-36 28q32 64 94 64q34 0 56.5 -21t22.5 -52q0 -27 -29.5 -61.5t-34.5 -44.5z" />
    <glyph glyph-name="uni1EC9" unicode="&#x1ec9;" horiz-adv-x="205" 
d="M156 0h-107v487h107v-487zM122 527l-54 11q6 20 28 49.5t22 48.5q0 13 -8 22t-21 9q-21 0 -39 -32l-35 28q30 65 93 65q35 0 58.5 -22t23.5 -55q0 -32 -31 -70.5t-37 -53.5z" />
    <glyph glyph-name="uni1ECA" unicode="&#x1eca;" horiz-adv-x="226" 
d="M59 674h107v-674h-107v674zM112 -190q-22 0 -38 16.5t-16 38.5q0 23 16 39t39 16t38.5 -16t15.5 -39t-16 -39t-39 -16z" />
    <glyph glyph-name="uni1ECB" unicode="&#x1ecb;" horiz-adv-x="205" 
d="M156 0h-107v487h107v-487zM101 676q26 0 42 -17t16 -45t-16.5 -45t-42.5 -17q-24 0 -40 17.5t-16 44.5q0 28 16.5 45t40.5 17zM101 -80q22 0 37 -15.5t15 -39.5t-15 -39.5t-38 -15.5q-21 0 -36.5 15.5t-15.5 39.5t15.5 39.5t37.5 15.5z" />
    <glyph glyph-name="uni1ECC" unicode="&#x1ecc;" horiz-adv-x="465" 
d="M240 682q68 0 113.5 -47.5t64.5 -120.5t19 -168q0 -181 -56.5 -267.5t-151.5 -86.5q-98 0 -149.5 94t-51.5 252q0 155 56 249.5t156 94.5zM234 589q-48 0 -71.5 -69.5t-23.5 -182.5q0 -116 23.5 -184t72.5 -68q91 0 91 256q0 67 -7.5 119.5t-29 90.5t-55.5 38zM231 -190
q-22 0 -38 16.5t-16 38.5q0 23 16 39t39 16t38.5 -16t15.5 -39t-16 -39t-39 -16z" />
    <glyph glyph-name="uni1ECD" unicode="&#x1ecd;" horiz-adv-x="410" 
d="M208 495q78 0 124.5 -66t46.5 -185q0 -70 -16.5 -121.5t-43.5 -78.5t-56 -39.5t-59 -12.5q-79 0 -126 65t-47 185q0 124 51.5 188.5t125.5 64.5zM206 412q-38 0 -53.5 -50.5t-15.5 -117.5q0 -170 71 -170q65 0 65 170q0 67 -15 117.5t-52 50.5zM203 -81q22 0 37 -15.5
t15 -39.5q0 -23 -15 -39t-38 -16q-21 0 -36.5 16t-15.5 39q0 24 15.5 39.5t37.5 15.5z" />
    <glyph glyph-name="uni1ECE" unicode="&#x1ece;" horiz-adv-x="465" 
d="M240 682q68 0 113.5 -47.5t64.5 -120.5t19 -168q0 -181 -56.5 -267.5t-151.5 -86.5q-98 0 -149.5 94t-51.5 252q0 155 56 249.5t156 94.5zM234 589q-48 0 -71.5 -69.5t-23.5 -182.5q0 -116 23.5 -184t72.5 -68q91 0 91 256q0 67 -7.5 119.5t-29 90.5t-55.5 38zM254 706
l-52 10q6 18 25 41t19 39q0 29 -27 29q-21 0 -38 -32l-36 28q32 64 94 64q34 0 56.5 -21t22.5 -52q0 -27 -29.5 -61.5t-34.5 -44.5z" />
    <glyph glyph-name="uni1ECF" unicode="&#x1ecf;" horiz-adv-x="410" 
d="M208 494q78 0 124.5 -66t46.5 -184q0 -70 -16.5 -121.5t-43.5 -78.5t-56 -39.5t-59 -12.5q-79 0 -126 65t-47 185q0 124 51 188t126 64zM206 412q-38 0 -53.5 -50.5t-15.5 -117.5q0 -170 71 -170q65 0 65 170q0 67 -15 117.5t-52 50.5zM224 525l-54 11q6 21 28 50.5
t22 48.5q0 13 -8 21.5t-21 8.5q-22 0 -39 -31l-35 28q30 65 93 65q35 0 58.5 -22.5t23.5 -54.5t-30.5 -70.5t-37.5 -54.5z" />
    <glyph glyph-name="uni1ED0" unicode="&#x1ed0;" horiz-adv-x="465" 
d="M240 682q68 0 113.5 -47.5t64.5 -120.5t19 -168q0 -181 -56.5 -267.5t-151.5 -86.5q-98 0 -149.5 94t-51.5 252q0 155 56 249.5t156 94.5zM234 589q-48 0 -71.5 -69.5t-23.5 -182.5q0 -116 23.5 -184t72.5 -68q91 0 91 256q0 67 -7.5 119.5t-29 90.5t-55.5 38zM202 814
h78l75 -104h-75l-38 56h-2l-38 -56h-73zM379 894h99l-105 -109h-57z" />
    <glyph glyph-name="uni1ED1" unicode="&#x1ed1;" horiz-adv-x="410" 
d="M208 494q78 0 124.5 -66t46.5 -184q0 -70 -16.5 -121.5t-43.5 -78.5t-56 -39.5t-59 -12.5q-79 0 -126 65t-47 185q0 124 51 188t126 64zM206 412q-38 0 -53.5 -50.5t-15.5 -117.5q0 -170 71 -170q65 0 65 170q0 67 -15 117.5t-52 50.5zM172 686h74l67 -138h-71l-32 82h-3
l-31 -82h-72zM344 757h83l-85 -126h-52z" />
    <glyph glyph-name="uni1ED2" unicode="&#x1ed2;" horiz-adv-x="465" 
d="M240 682q68 0 113.5 -47.5t64.5 -120.5t19 -168q0 -181 -56.5 -267.5t-151.5 -86.5q-98 0 -149.5 94t-51.5 252q0 155 56 249.5t156 94.5zM234 589q-48 0 -71 -69t-24 -183q0 -116 23.5 -184t72.5 -68q91 0 91 256q0 67 -7.5 119.5t-29 90.5t-55.5 38zM256 879h99
l63 -109h-57zM199 814h78l75 -104h-75l-38 56h-2l-38 -56h-73z" />
    <glyph glyph-name="uni1ED3" unicode="&#x1ed3;" horiz-adv-x="410" 
d="M208 494q78 0 124.5 -66t46.5 -184q0 -70 -16.5 -121.5t-43.5 -78.5t-56 -39.5t-59 -12.5q-79 0 -126 65t-47 185q0 124 51 188t126 64zM206 412q-38 0 -53.5 -50.5t-15.5 -117.5q0 -170 71 -170q65 0 65 170q0 67 -15 117.5t-52 50.5zM241 758h82l44 -126h-51zM172 686
h74l67 -138h-71l-32 82h-2l-32 -82h-72z" />
    <glyph glyph-name="uni1ED4" unicode="&#x1ed4;" horiz-adv-x="465" 
d="M240 682q68 0 113.5 -47.5t64.5 -120.5t19 -168q0 -181 -56.5 -267.5t-151.5 -86.5q-98 0 -149.5 94t-51.5 252q0 155 56 249.5t156 94.5zM234 589q-48 0 -71.5 -69.5t-23.5 -182.5q0 -116 23.5 -184t72.5 -68q91 0 91 256q0 67 -7.5 119.5t-29 90.5t-55.5 38zM199 814
h79l75 -104h-76l-38 56h-2l-38 -56h-73zM374 752l-44 11q6 17 25 39.5t19 37.5q0 12 -7.5 20t-19.5 8q-20 0 -39 -31l-31 24q28 60 88 60q31 0 51 -19t20 -47q0 -27 -28.5 -60.5t-33.5 -42.5z" />
    <glyph glyph-name="uni1ED5" unicode="&#x1ed5;" horiz-adv-x="410" 
d="M208 494q78 0 124.5 -66t46.5 -184q0 -70 -16.5 -121.5t-43.5 -78.5t-56 -39.5t-59 -12.5q-79 0 -126 65t-47 185q0 124 51 188t126 64zM206 412q-38 0 -53.5 -50.5t-15.5 -117.5q0 -170 71 -170q65 0 65 170q0 67 -15 117.5t-52 50.5zM171 686h74l67 -138h-70l-32 82h-3
l-32 -82h-71zM342 620l-48 10q6 17 24 39t18 37q0 11 -7.5 19t-19.5 8q-20 0 -36 -30l-32 26q29 60 87 60q31 0 52.5 -20t21.5 -49q0 -26 -27 -57.5t-33 -42.5z" />
    <glyph glyph-name="uni1ED6" unicode="&#x1ed6;" horiz-adv-x="465" 
d="M240 682q68 0 113.5 -47.5t64.5 -120.5t19 -168q0 -181 -56.5 -267.5t-151.5 -86.5q-98 0 -149.5 94t-51.5 252q0 155 56 249.5t156 94.5zM234 589q-48 0 -71.5 -69.5t-23.5 -182.5q0 -116 23.5 -184t72.5 -68q91 0 91 256q0 67 -7.5 119.5t-29 90.5t-55.5 38zM193 814
h86l86 -104h-83l-45 53h-2l-44 -53h-81zM176 828h-51q-1 38 16.5 65t49.5 27q20 0 52 -17q26 -14 40 -14q22 0 23 33h50q0 -93 -67 -93q-16 0 -50 17q-30 15 -39 15q-21 0 -24 -33z" />
    <glyph glyph-name="uni1ED7" unicode="&#x1ed7;" horiz-adv-x="410" 
d="M208 494q78 0 124.5 -66t46.5 -184q0 -70 -16.5 -121.5t-43.5 -78.5t-56 -39.5t-59 -12.5q-79 0 -126 65t-47 185q0 124 51 188t126 64zM206 412q-38 0 -53.5 -50.5t-15.5 -117.5q0 -170 71 -170q65 0 65 170q0 67 -15 117.5t-52 50.5zM167 656h76l79 -108h-76l-40 59h-2
l-39 -59h-77zM143 669h-50q-1 38 16.5 65.5t49.5 27.5q20 0 52 -17q24 -15 40 -15q22 0 23 33h49q0 -93 -66 -93q-16 0 -50 17q-30 15 -39 15q-20 0 -25 -33z" />
    <glyph glyph-name="uni1ED8" unicode="&#x1ed8;" horiz-adv-x="465" 
d="M240 682q68 0 113.5 -47.5t64.5 -120.5t19 -168q0 -181 -56.5 -267.5t-151.5 -86.5q-98 0 -149.5 94t-51.5 252q0 155 56 249.5t156 94.5zM234 589q-48 0 -71.5 -69.5t-23.5 -182.5q0 -116 23.5 -184t72.5 -68q91 0 91 256q0 67 -7.5 119.5t-29 90.5t-55.5 38zM190 814
h86l86 -104h-83l-45 53h-2l-44 -53h-81zM231 -190q-22 0 -38 16.5t-16 38.5q0 23 16 39t39 16t38.5 -16t15.5 -39t-16 -39t-39 -16z" />
    <glyph glyph-name="uni1ED9" unicode="&#x1ed9;" horiz-adv-x="410" 
d="M208 495q78 0 124.5 -66t46.5 -185q0 -70 -16.5 -121.5t-43.5 -78.5t-56 -39.5t-59 -12.5q-79 0 -126 65t-47 185q0 124 51.5 188.5t125.5 64.5zM206 412q-38 0 -53.5 -50.5t-15.5 -117.5q0 -170 71 -170q65 0 65 170q0 67 -15 117.5t-52 50.5zM168 686h74l82 -138h-75
l-43 83h-2l-43 -83h-76zM203 -80q22 0 37 -15.5t15 -39.5q0 -23 -15 -39t-38 -16q-21 0 -36.5 16t-15.5 39q0 24 15.5 39.5t37.5 15.5z" />
    <glyph glyph-name="uni1EDA" unicode="&#x1eda;" horiz-adv-x="465" 
d="M235 85q91 0 91 256q0 67 -7.5 119.5t-29 90.5t-55.5 38t-56 -37.5t-31 -91.5t-8 -121q-1 -110 22.5 -182t73.5 -72zM372 726l78 12q18 -34 18 -77q0 -37 -19 -61t-55 -27q43 -88 43 -227q0 -181 -56.5 -267.5t-150.5 -86.5q-98 0 -150 94t-52 252q0 155 56 249.5
t156 94.5q40 0 75 -18l18.5 -10.5l15 -8.5t11 -5.5t9.5 -2.5q22 0 22 27q0 26 -19 62zM262 821h114l-123 -111h-79z" />
    <glyph glyph-name="uni1EDB" unicode="&#x1edb;" horiz-adv-x="410" 
d="M206 412q-38 0 -53.5 -50.5t-15.5 -117.5q0 -170 71 -170q65 0 65 170q0 30 -3 57t-10 53.5t-20.5 42t-33.5 15.5zM325 553l76 11q19 -36 19 -79q0 -73 -73 -84q32 -59 32 -157q0 -70 -16.5 -121.5t-43.5 -78.5t-56 -39.5t-59 -12.5q-79 0 -126 65t-47 185q0 124 51 188
t126 64q25 0 60 -11l14.5 -7t19 -8t16.5 -3q23 0 24 28q0 26 -17 60zM228 686h99l-103 -138h-68z" />
    <glyph glyph-name="uni1EDC" unicode="&#x1edc;" horiz-adv-x="465" 
d="M235 85q91 0 91 256q0 67 -7.5 119.5t-29 90.5t-55.5 38t-56 -37.5t-31 -91.5t-8 -121q-1 -110 22.5 -182t73.5 -72zM372 726l78 12q18 -34 18 -77q0 -37 -19 -61t-55 -27q43 -88 43 -227q0 -181 -56.5 -267.5t-150.5 -86.5q-98 0 -150 94t-52 252q0 155 56 249.5
t156 94.5q40 0 75 -18l18.5 -10.5l15 -8.5t11 -5.5t9.5 -2.5q22 0 22 27q0 26 -19 62zM98 821h114l88 -111h-79z" />
    <glyph glyph-name="uni1EDD" unicode="&#x1edd;" horiz-adv-x="410" 
d="M206 412q-38 0 -53.5 -50.5t-15.5 -117.5q0 -170 71 -170q65 0 65 170q0 30 -3 57t-10 53.5t-20.5 42t-33.5 15.5zM325 553l76 11q19 -36 19 -79q0 -73 -73 -84q32 -59 32 -157q0 -70 -16.5 -121.5t-43.5 -78.5t-56 -39.5t-59 -12.5q-79 0 -126 65t-47 185q0 124 51 188
t126 64q25 0 60 -11l14.5 -7t19 -8t16.5 -3q23 0 24 28q0 26 -17 60zM92 686h99l72 -138h-68z" />
    <glyph glyph-name="uni1EDE" unicode="&#x1ede;" horiz-adv-x="465" 
d="M235 85q91 0 91 256q0 67 -7.5 119.5t-29 90.5t-55.5 38t-56 -37.5t-31 -91.5t-8 -121q-1 -110 22.5 -182t73.5 -72zM372 726l78 12q18 -34 18 -77q0 -37 -19 -61t-55 -27q43 -88 43 -227q0 -181 -56.5 -267.5t-150.5 -86.5q-98 0 -150 94t-52 252q0 155 56 249.5
t156 94.5q40 0 75 -18l18.5 -10.5t15 -9t11 -6t9.5 -2.5q22 0 22 28q0 24 -19 62zM254 706l-52 10q6 18 25 41t19 39q0 29 -27 29q-21 0 -38 -32l-36 28q32 64 94 64q34 0 56.5 -21t22.5 -52q0 -27 -29.5 -61.5t-34.5 -44.5z" />
    <glyph glyph-name="uni1EDF" unicode="&#x1edf;" horiz-adv-x="410" 
d="M206 412q-38 0 -53.5 -50.5t-15.5 -117.5q0 -170 71 -170q65 0 65 170q0 30 -3 57t-10 53.5t-20.5 42t-33.5 15.5zM325 551l76 11q19 -36 19 -77q0 -73 -73 -84q32 -59 32 -157q0 -70 -16.5 -121.5t-43.5 -78.5t-56 -39.5t-59 -12.5q-79 0 -126 65t-47 185q0 124 51 188
t126 64q28 0 60 -12q5 -2 15 -6.5t18.5 -7.5t16.5 -3q23 0 24 28q0 26 -17 58zM224 525l-55 11q6 21 28.5 50.5t22.5 48.5q0 13 -8.5 21.5t-21.5 8.5q-21 0 -38 -31l-35 28q28 65 92 65q35 0 58.5 -22.5t23.5 -54.5q0 -24 -11.5 -44t-29.5 -41.5t-26 -39.5z" />
    <glyph glyph-name="uni1EE0" unicode="&#x1ee0;" horiz-adv-x="465" 
d="M235 85q91 0 91 256q0 67 -7.5 119.5t-29 90.5t-55.5 38q-50 0 -73 -72t-22 -178q-1 -110 22.5 -182t73.5 -72zM372 726l78 12q18 -34 18 -76q0 -38 -19 -62t-55 -27q43 -88 43 -227q0 -181 -56.5 -267.5t-151.5 -86.5q-98 0 -149.5 94t-51.5 252q0 155 56 249.5
t156 94.5q40 0 75 -18l18.5 -10.5l15 -8.5t11 -5.5t9.5 -2.5q22 0 22 27q0 26 -19 62zM170 718h-51q-1 49 16 77t47 29q24 0 50 -18q28 -17 39 -17q21 0 25 37h50q3 -103 -66 -103q-24 0 -52 16q-25 16 -35 16q-20 0 -23 -37z" />
    <glyph glyph-name="uni1EE1" unicode="&#x1ee1;" horiz-adv-x="410" 
d="M206 412q-69 0 -69 -168q0 -170 71 -170q65 0 65 170q0 30 -3 57t-10 53.5t-20.5 42t-33.5 15.5zM325 552l76 12q19 -38 19 -79q0 -73 -73 -84q32 -59 32 -157q0 -70 -16.5 -121.5t-43.5 -78.5t-56 -39.5t-59 -12.5q-79 0 -126 65t-47 185q0 124 51 188t126 64
q23 0 60 -11q3 -1 13.5 -6.5t19 -8.5t16.5 -3q24 0 25 28q0 27 -17 59zM139 559h-52q0 47 17.5 77t49.5 30q18 0 54 -18q26 -16 38 -16q11 0 16.5 7.5t6.5 29.5h50q0 -103 -67 -103q-19 0 -51 16q-4 2 -10 6t-10 6t-8.5 3.5t-9.5 1.5q-22 0 -24 -40z" />
    <glyph glyph-name="uni1EE2" unicode="&#x1ee2;" horiz-adv-x="465" 
d="M235 85q91 0 91 256q0 67 -7.5 119.5t-29 90.5t-55.5 38t-56 -37.5t-31 -91.5t-8 -121q-1 -110 22.5 -182t73.5 -72zM372 726l78 12q18 -34 18 -77q0 -37 -19 -61t-55 -27q43 -88 43 -227q0 -181 -56.5 -267.5t-150.5 -86.5q-98 0 -150 94t-52 252q0 155 56 249.5
t156 94.5q40 0 75 -18l18.5 -10.5t15 -9t11 -6t9.5 -2.5q22 0 22 28q0 24 -19 62zM231 -190q-22 0 -38 16.5t-16 38.5q0 23 16 39t39 16t38.5 -16t15.5 -39t-16 -39t-39 -16z" />
    <glyph glyph-name="uni1EE3" unicode="&#x1ee3;" horiz-adv-x="410" 
d="M206 412q-38 0 -53.5 -50.5t-15.5 -117.5q0 -170 71 -170q65 0 65 170q0 30 -3 57t-10 53.5t-20.5 42t-33.5 15.5zM325 551l76 11q19 -36 19 -77q0 -73 -73 -84q32 -59 32 -157q0 -70 -16.5 -121.5t-43.5 -78.5t-56 -39.5t-59 -12.5q-79 0 -126 65t-47 185q0 124 51 188
t126 64q28 0 60 -12q5 -2 15 -6.5t18.5 -7.5t16.5 -3q23 0 24 28q0 26 -17 58zM208 -80q22 0 37 -15.5t15 -39.5t-15 -39.5t-38 -15.5q-21 0 -36.5 15.5t-15.5 39.5t15.5 39.5t37.5 15.5z" />
    <glyph glyph-name="uni1EE4" unicode="&#x1ee4;" horiz-adv-x="481" 
d="M56 674h107v-444q0 -144 76 -144q78 0 78 144v444h107v-426q0 -128 -48 -192t-137 -64q-183 0 -183 251v431zM239 -190q-22 0 -38 16.5t-16 38.5q0 23 16 39t39 16t38.5 -16t15.5 -39t-16 -39t-39 -16z" />
    <glyph glyph-name="uni1EE5" unicode="&#x1ee5;" horiz-adv-x="428" 
d="M377 487v-345q0 -60 4 -142h-93l-6 51h-2q-39 -59 -109 -59q-65 0 -95 48.5t-30 145.5v301h107v-288q0 -118 56 -118q22 0 36 15t19 33q6 16 6 42v316h107zM212 -80q22 0 37 -15.5t15 -39.5t-15 -39.5t-38 -15.5q-21 0 -36.5 15.5t-15.5 39.5t15.5 39.5t37.5 15.5z" />
    <glyph glyph-name="uni1EE6" unicode="&#x1ee6;" horiz-adv-x="481" 
d="M56 674h107v-444q0 -144 76 -144q78 0 78 144v444h107v-426q0 -128 -48 -192t-137 -64q-183 0 -183 251v431zM262 706l-53 10q6 18 25.5 41t19.5 39q0 13 -7.5 21t-19.5 8q-21 0 -38 -32l-36 28q32 64 94 64q34 0 56 -21t22 -52q0 -27 -28.5 -61t-34.5 -45z" />
    <glyph glyph-name="uni1EE7" unicode="&#x1ee7;" horiz-adv-x="428" 
d="M377 487v-345q0 -60 4 -142h-93l-6 51h-2q-39 -59 -109 -59q-65 0 -95 48.5t-30 145.5v301h107v-288q0 -118 56 -118q22 0 36 15t19 33q6 16 6 42v316h107zM233 527l-54 11q5 21 27.5 50t22.5 48q0 13 -8.5 22t-21.5 9q-20 0 -38 -32l-36 28q30 65 94 65q35 0 58.5 -22
t23.5 -55q0 -32 -31 -70.5t-37 -53.5z" />
    <glyph glyph-name="uni1EE8" unicode="&#x1ee8;" horiz-adv-x="504" 
d="M416 761l77 11q17 -37 17 -76q0 -78 -75 -85l-11 -1v-362q0 -128 -48 -192t-137 -64q-183 0 -183 251v431h107v-444q0 -144 76 -144q78 0 78 144v444h80q19 0 26.5 6t7.5 22q0 31 -15 59zM270 821h114l-123 -111h-79z" />
    <glyph glyph-name="uni1EE9" unicode="&#x1ee9;" horiz-adv-x="428" 
d="M359 576l77 10q19 -35 19 -74q0 -73 -73 -81l-5 -1v-289q0 -59 4 -141h-93l-6 51h-2q-39 -59 -109 -59q-65 0 -95 48.5t-30 145.5v301h107v-288q0 -118 56 -118q22 0 36 15t19 33q6 16 6 42v316h73q18 0 25.5 7t7.5 23q0 30 -17 59zM246 686h99l-103 -138h-68z" />
    <glyph glyph-name="uni1EEA" unicode="&#x1eea;" horiz-adv-x="504" 
d="M416 761l77 11q17 -37 17 -76q0 -78 -75 -85l-11 -1v-362q0 -128 -48 -192t-137 -64q-183 0 -183 251v431h107v-444q0 -144 76 -144q78 0 78 144v444h80q19 0 26.5 6t7.5 22q0 31 -15 59zM95 821h114l88 -111h-79z" />
    <glyph glyph-name="uni1EEB" unicode="&#x1eeb;" horiz-adv-x="428" 
d="M359 576l77 10q19 -35 19 -74q0 -73 -73 -81l-5 -1v-289q0 -59 4 -141h-93l-6 51h-2q-39 -59 -109 -59q-65 0 -95 48.5t-30 145.5v301h107v-288q0 -118 56 -118q22 0 36 15t19 33q6 16 6 42v316h73q18 0 25.5 7t7.5 23q0 30 -17 59zM97 686h99l72 -138h-68z" />
    <glyph glyph-name="uni1EEC" unicode="&#x1eec;" horiz-adv-x="504" 
d="M416 761l77 11q17 -37 17 -76q0 -78 -75 -85l-11 -1v-362q0 -128 -48 -192t-137 -64q-183 0 -183 251v431h107v-444q0 -144 76 -144q78 0 78 144v444h80q19 0 26.5 6t7.5 22q0 31 -15 59zM274 706l-53 10q6 18 25.5 41t19.5 39q0 13 -7.5 21t-20.5 8q-19 0 -38 -32
l-35 28q30 64 94 64q33 0 55.5 -21t22.5 -52q0 -27 -28.5 -61t-34.5 -45z" />
    <glyph glyph-name="uni1EED" unicode="&#x1eed;" horiz-adv-x="428" 
d="M359 575l77 11q19 -36 19 -75q0 -72 -73 -80l-5 -1v-289q0 -59 4 -141h-93l-6 51h-2q-39 -59 -109 -59q-65 0 -95 48.5t-30 145.5v301h107v-288q0 -118 56 -118q22 0 36 15t19 33q6 16 6 42v316h73q18 0 25.5 7t7.5 23q0 31 -17 58zM243 527l-55 11q6 21 28.5 50t22.5 48
q0 13 -8.5 22t-21.5 9q-22 0 -38 -32l-36 28q30 65 93 65q35 0 58.5 -22t23.5 -55q0 -32 -30.5 -71t-36.5 -53z" />
    <glyph glyph-name="uni1EEE" unicode="&#x1eee;" horiz-adv-x="504" 
d="M416 761l77 11q17 -37 17 -76q0 -78 -75 -85l-11 -1v-362q0 -128 -48 -192t-137 -64q-183 0 -183 251v431h107v-444q0 -144 76 -144q78 0 78 144v444h80q19 0 26.5 6t7.5 22q0 31 -15 59zM190 718h-51q-1 49 16 77.5t47 28.5q22 0 50 -18q26 -17 38 -17q21 0 25 37h50
q3 -103 -66 -103q-24 0 -52 16q-23 16 -35 16q-19 0 -22 -37z" />
    <glyph glyph-name="uni1EEF" unicode="&#x1eef;" horiz-adv-x="428" 
d="M359 576l77 10q19 -36 19 -75q0 -72 -73 -80l-5 -1v-289q0 -59 4 -141h-93l-6 51h-2q-39 -59 -109 -59q-65 0 -95 48.5t-30 145.5v301h107v-288q0 -118 56 -118q22 0 36 15t19 33q6 16 6 42v316h73q18 0 25.5 7t7.5 23q0 30 -17 59zM151 559h-52q0 47 17.5 77t49.5 30
q18 0 54 -18q26 -16 38 -16q11 0 16.5 7.5t6.5 29.5h50q0 -103 -67 -103q-19 0 -51 16q-4 2 -10 6t-10 6t-8.5 3.5t-9.5 1.5q-22 0 -24 -40z" />
    <glyph glyph-name="uni1EF0" unicode="&#x1ef0;" horiz-adv-x="504" 
d="M416 761l77 11q17 -37 17 -76q0 -78 -75 -85l-11 -1v-362q0 -128 -48 -192t-137 -64q-183 0 -183 251v431h107v-444q0 -144 76 -144q78 0 78 144v444h80q19 0 26.5 6t7.5 22q0 31 -15 59zM250 -80q22 0 37 -15.5t15 -39.5t-15 -39.5t-38 -15.5q-21 0 -36.5 15.5
t-15.5 39.5t15.5 39.5t37.5 15.5z" />
    <glyph glyph-name="uni1EF1" unicode="&#x1ef1;" horiz-adv-x="428" 
d="M359 575l77 11q19 -36 19 -75q0 -72 -73 -80l-5 -1v-289q0 -59 4 -141h-93l-6 51h-2q-39 -59 -109 -59q-65 0 -95 48.5t-30 145.5v301h107v-288q0 -118 56 -118q22 0 36 15t19 33q6 16 6 42v316h73q18 0 25.5 7t7.5 23q0 31 -17 58zM209 -80q22 0 37 -15.5t15 -39.5
t-15 -39.5t-38 -15.5q-21 0 -36.5 15.5t-15.5 39.5t15.5 39.5t37.5 15.5z" />
    <glyph glyph-name="Ygrave" unicode="&#x1ef2;" horiz-adv-x="398" 
d="M251 0h-107v270l-148 404h113l52 -164q24 -73 42 -148h2q15 66 40 151l47 161h111l-152 -400v-274zM57 817h114l88 -111h-79z" />
    <glyph glyph-name="ygrave" unicode="&#x1ef3;" horiz-adv-x="370" 
d="M9 487h114l55 -265l6 -30.5t5.5 -33t4.5 -26.5h2q10 53 16 89l48 266h105l-90 -348q-51 -199 -114 -277q-45 -55 -100 -76l-35 92q35 16 66 50q27 28 43 68q6 15 6 23q0 9 -3 18zM69 686h99l72 -138h-68z" />
    <glyph glyph-name="uni1EF4" unicode="&#x1ef4;" horiz-adv-x="398" 
d="M251 0h-107v270l-148 404h113l52 -164q24 -73 42 -148h2q15 66 40 151l47 161h111l-152 -400v-274zM199 -190q-22 0 -38 16.5t-16 38.5q0 23 16 39t39 16t38.5 -16t15.5 -39t-16 -39t-39 -16z" />
    <glyph glyph-name="uni1EF5" unicode="&#x1ef5;" horiz-adv-x="370" 
d="M9 487h114l55 -265l6 -30.5t5.5 -33t4.5 -26.5h2q10 52 16 88l48 267h105l-90 -348q-51 -199 -114 -277q-25 -31 -53 -50t-47 -25l-35 91q37 17 66 50q27 28 43 68q6 15 6 23q0 9 -3 18zM283 -80q22 0 37 -15.5t15 -39.5t-15 -39.5t-38 -15.5q-21 0 -36.5 15.5
t-15.5 39.5t15.5 39.5t37.5 15.5z" />
    <glyph glyph-name="uni1EF6" unicode="&#x1ef6;" horiz-adv-x="398" 
d="M251 0h-107v270l-148 404h113l52 -164q24 -73 42 -148h2q15 66 40 151l47 161h111l-152 -400v-274zM221 706l-53 10q6 18 25.5 41t19.5 39q0 13 -7.5 21t-19.5 8q-21 0 -38 -32l-36 28q32 64 94 64q34 0 56 -21t22 -52q0 -27 -28.5 -61t-34.5 -45z" />
    <glyph glyph-name="uni1EF7" unicode="&#x1ef7;" horiz-adv-x="370" 
d="M9 487h114l55 -265l6 -30.5t5.5 -33t4.5 -26.5h2q10 53 16 89l48 266h105l-90 -348q-51 -199 -114 -277q-45 -55 -100 -76l-35 92q35 16 66 50q27 28 43 68q6 15 6 23q0 9 -3 18zM209 527l-54 11q6 20 28 49.5t22 48.5q0 13 -8 22t-21 9q-22 0 -38 -32l-36 28
q30 65 93 65q35 0 58.5 -22t23.5 -55q0 -32 -31 -70.5t-37 -53.5z" />
    <glyph glyph-name="uni1EF8" unicode="&#x1ef8;" horiz-adv-x="398" 
d="M251 0h-107v270l-148 404h113l52 -164q24 -73 42 -148h2q15 66 40 151l47 161h111l-152 -400v-274zM137 718h-51q-1 49 16 77.5t47 28.5q22 0 50 -18q26 -17 38 -17q21 0 25 37h50q3 -103 -66 -103q-25 0 -51 16q-25 16 -36 16q-19 0 -22 -37z" />
    <glyph glyph-name="uni1EF9" unicode="&#x1ef9;" horiz-adv-x="370" 
d="M9 487h114l55 -265l6 -30.5t5.5 -33t4.5 -26.5h2q10 53 16 89l48 266h105l-90 -348q-51 -199 -114 -277q-45 -55 -100 -76l-35 92q35 16 66 50q27 28 43 68q6 15 6 23q0 9 -3 18zM131 559h-52q0 47 17.5 77t49.5 30q18 0 54 -18q26 -16 38 -16q11 0 16.5 7.5t6.5 29.5h50
q0 -103 -67 -103q-19 0 -51 16q-4 2 -10 6t-10 6t-8.5 3.5t-9.5 1.5q-22 0 -24 -40z" />
    <glyph glyph-name="uni2010" unicode="&#x2010;" horiz-adv-x="268" 
d="M30 308h208v-78h-208v78z" />
    <glyph glyph-name="endash" unicode="&#x2013;" horiz-adv-x="500" 
d="M30 297h440v-74h-440v74z" />
    <glyph glyph-name="emdash" unicode="&#x2014;" horiz-adv-x="1000" 
d="M30 297h940v-74h-940v74z" />
    <glyph glyph-name="quoteleft" unicode="&#x2018;" horiz-adv-x="184" 
d="M111 444l-97 -10q39 134 102 242l58 8q-48 -139 -63 -240z" />
    <glyph glyph-name="quoteright" unicode="&#x2019;" horiz-adv-x="184" 
d="M74 674l97 10q-39 -134 -102 -242l-58 -8q48 139 63 240z" />
    <glyph glyph-name="quotesinglbase" unicode="&#x201a;" horiz-adv-x="184" 
d="M69 -106l-58 -8q48 139 63 240l97 10q-39 -134 -102 -242z" />
    <glyph glyph-name="quotedblleft" unicode="&#x201c;" horiz-adv-x="323" 
d="M108 444l-97 -10q39 134 102 242l58 8q-48 -139 -63 -240zM253 444l-97 -10q39 134 102 242l58 8q-48 -139 -63 -240z" />
    <glyph glyph-name="quotedblright" unicode="&#x201d;" horiz-adv-x="323" 
d="M72 674l97 10q-39 -134 -102 -242l-58 -8q48 139 63 240zM217 674l97 10q-39 -134 -102 -242l-58 -8q48 139 63 240z" />
    <glyph glyph-name="quotedblbase" unicode="&#x201e;" horiz-adv-x="323" 
d="M67 -106l-58 -8q48 139 63 240l97 10q-39 -134 -102 -242zM212 -106l-58 -8q48 139 63 240l97 10q-39 -134 -102 -242z" />
    <glyph glyph-name="dagger" unicode="&#x2020;" horiz-adv-x="405" 
d="M156 674h92l-6 -193l131 6v-89l-131 6l6 -454h-92l6 454l-131 -6v89l131 -6z" />
    <glyph glyph-name="daggerdbl" unicode="&#x2021;" horiz-adv-x="405" 
d="M156 674h92l-5 -187l130 6v-89l-130 6v-191l130 6v-89l-130 6l5 -192h-92l5 192l-130 -6v89l130 -6v191l-130 -6v89l130 -6z" />
    <glyph glyph-name="bullet" unicode="&#x2022;" horiz-adv-x="274" 
d="M136 160q-42 0 -71 29t-29 74q0 46 29 75t72 29t72 -29t29 -75q0 -45 -29 -74t-73 -29z" />
    <glyph glyph-name="ellipsis" unicode="&#x2026;" horiz-adv-x="1000" 
d="M166 -8q-27 0 -45.5 20.5t-18.5 53.5q0 32 19 53t46 21q28 0 46.5 -20t18.5 -54t-18 -54t-48 -20zM500 -8q-27 0 -45.5 20.5t-18.5 53.5q0 32 19 53t46 21q28 0 46.5 -20t18.5 -54t-18 -54t-48 -20zM834 -8q-27 0 -45.5 20.5t-18.5 53.5q0 32 19 53t46 21q28 0 46.5 -20
t18.5 -54t-18 -54t-48 -20z" />
    <glyph glyph-name="perthousand" unicode="&#x2030;" horiz-adv-x="947" 
d="M153 658q61 0 92.5 -56.5t31.5 -140.5q0 -97 -37 -148t-89 -51q-59 0 -93 56t-34 140q0 87 35.5 143.5t93.5 56.5zM150 598q-51 0 -51 -138q-2 -138 52 -138q51 0 51 137q0 139 -52 139zM181 -11h-60l348 672h60zM504 390q61 0 92.5 -56.5t31.5 -140.5q0 -97 -37 -148
t-89 -51q-59 0 -93 56t-34 140q0 87 35.5 143.5t93.5 56.5zM501 330q-51 0 -51 -138q-2 -138 52 -138q51 0 51 137q0 139 -52 139zM800 390q61 0 92.5 -56.5t31.5 -140.5q0 -97 -37 -148t-89 -51q-59 0 -93 56t-34 140q0 87 35.5 143.5t93.5 56.5zM797 330q-51 0 -51 -138
q-2 -138 52 -138q51 0 51 137q0 139 -52 139z" />
    <glyph glyph-name="guilsinglleft" unicode="&#x2039;" horiz-adv-x="216" 
d="M204 432l-106 -180l106 -180h-80l-104 180l104 180h80z" />
    <glyph glyph-name="guilsinglright" unicode="&#x203a;" horiz-adv-x="216" 
d="M118 252l-106 180h79l105 -180l-103 -180h-81z" />
    <glyph glyph-name="fraction" unicode="&#x2044;" horiz-adv-x="114" 
d="M-85 -8h-60l345 666h59z" />
    <glyph glyph-name="zero.superior" unicode="&#x2070;" horiz-adv-x="279" 
d="M139 412q-62 0 -92 56t-30 142q0 90 32.5 146t93.5 56q64 0 92 -56t28 -142q0 -98 -33.5 -150t-90.5 -52zM142 477q42 0 42 135t-42 135q-46 0 -46 -135t46 -135z" />
    <glyph glyph-name="four.superior" unicode="&#x2074;" horiz-adv-x="287" 
d="M229 417h-72v97h-147v49l142 246h77v-236h44v-59h-44v-97zM157 573v83q0 19 3 70h-2q-19 -41 -29 -60l-50 -91v-2h78z" />
    <glyph glyph-name="five.superior" unicode="&#x2075;" horiz-adv-x="262" 
d="M231 807v-67h-117l-9 -72h16q49 0 81 -28q38 -32 38 -91t-38.5 -98t-104.5 -39q-50 0 -82 17l13 61q30 -14 64 -14q30 0 49.5 17.5t19.5 48.5q0 71 -92 71q-15 0 -35 -2l23 196h174z" />
    <glyph glyph-name="six.superior" unicode="&#x2076;" horiz-adv-x="282" 
d="M231 812v-63q-15 0 -33 -3q-80 -13 -99 -105h1q27 32 67 32q43 0 70.5 -33.5t27.5 -89.5q0 -57 -32 -97.5t-87 -40.5q-60 0 -93.5 45t-33.5 118q0 112 64 179q43 45 109 55q27 3 39 3zM145 470q41 0 41 80q0 30 -11.5 49t-32.5 19q-28 0 -41 -30q-4 -10 -4 -31
q0 -39 13 -63t35 -24z" />
    <glyph glyph-name="seven.superior" unicode="&#x2077;" horiz-adv-x="245" 
d="M11 807h227v-51l-134 -339h-78l131 320v2h-146v68z" />
    <glyph glyph-name="eight.superior" unicode="&#x2078;" horiz-adv-x="285" 
d="M147 812q48 0 77.5 -27.5t29.5 -69.5q0 -55 -53 -87v-1q64 -34 64 -100q0 -53 -35 -84t-90 -31q-56 0 -88.5 30t-32.5 76q0 66 62 103v1q-50 31 -50 86q0 47 33 75.5t83 28.5zM144 465q20 0 32 16t12 41q0 51 -52 72q-41 -20 -41 -68q0 -27 13 -44t36 -17zM143 760
q-18 0 -28.5 -14.5t-10.5 -35.5q0 -38 45 -59q14 7 23.5 23t9.5 34q0 52 -39 52z" />
    <glyph glyph-name="nine.superior" unicode="&#x2079;" horiz-adv-x="278" 
d="M47 412v64q23 0 37 2q32 6 55 25q30 25 41 80h-1q-24 -26 -63 -26q-42 0 -70.5 32.5t-28.5 85.5q0 55 33.5 96t88.5 41q57 0 88.5 -45t31.5 -117q0 -118 -65 -185q-40 -43 -109 -52q-13 -1 -38 -1zM135 754q-17 0 -29 -20t-12 -54q0 -30 11.5 -49.5t31.5 -19.5
q28 0 39 23q4 9 4 35q0 85 -45 85z" />
    <glyph glyph-name="parenleft.superior" unicode="&#x207d;" horiz-adv-x="161" 
d="M101 846h57q-64 -99 -64 -244q0 -139 64 -243h-57q-69 96 -69 243q0 148 69 244z" />
    <glyph glyph-name="parenright.superior" unicode="&#x207e;" horiz-adv-x="161" 
d="M60 359h-57q64 102 64 245q0 140 -64 242h57q70 -95 70 -243q0 -144 -70 -244z" />
    <glyph glyph-name="zero.inferior" unicode="&#x2080;" horiz-adv-x="279" 
d="M139 -152q-62 0 -92 56t-30 142q0 91 32 146.5t94 55.5q64 0 92 -56t28 -142q0 -98 -33.5 -150t-90.5 -52zM142 -87q42 0 42 135t-42 135q-46 0 -46 -135t46 -135z" />
    <glyph glyph-name="one.inferior" unicode="&#x2081;" horiz-adv-x="227" 
d="M176 -147h-79v319h-2l-72 -36l-14 59l97 48h70v-390z" />
    <glyph glyph-name="two.inferior" unicode="&#x2082;" horiz-adv-x="261" 
d="M5 -147v42l44 54l51.5 63.5t32 51.5t17.5 58q0 59 -55 59q-33 0 -64 -25l-19 58q40 34 104 34q61 0 89.5 -32t28.5 -78q0 -34 -18.5 -71.5t-36 -59t-49.5 -57.5l-23 -27v-3h132v-67h-234z" />
    <glyph glyph-name="three.inferior" unicode="&#x2083;" horiz-adv-x="249" 
d="M33 168l-14 55q38 25 91 25q54 0 82 -27t28 -66q0 -63 -64 -90v-2q31 -6 53.5 -32.5t22.5 -62.5q0 -52 -39.5 -86t-104.5 -34q-52 0 -84 20l14 59q30 -18 68 -18q28 0 46 16.5t18 43.5q0 32 -22 49t-59 17h-10v53h7q28 0 52 13.5t24 40.5q0 21 -13 33t-35 12
q-32 0 -61 -19z" />
    <glyph glyph-name="four.inferior" unicode="&#x2084;" horiz-adv-x="287" 
d="M229 -147h-72v97h-147v49l142 246h77v-236h44v-59h-44v-97zM157 9v83q0 19 3 70h-2q-19 -41 -29 -60l-50 -91v-2h78z" />
    <glyph glyph-name="five.inferior" unicode="&#x2085;" horiz-adv-x="262" 
d="M231 243v-67h-117l-9 -72h16q49 0 81 -28q38 -32 38 -91t-38.5 -98t-104.5 -39q-50 0 -82 17l13 61q30 -14 64 -14q30 0 49.5 17.5t19.5 48.5q0 71 -92 71q-15 0 -35 -2l23 196h174z" />
    <glyph glyph-name="six.inferior" unicode="&#x2086;" horiz-adv-x="282" 
d="M231 248v-63q-15 0 -33 -3q-80 -13 -99 -105h1q27 32 67 32q43 0 70.5 -33.5t27.5 -89.5q0 -57 -32 -97.5t-87 -40.5q-60 0 -93.5 45t-33.5 118q0 112 64 179q43 45 109 55q27 3 39 3zM145 -94q41 0 41 80q0 30 -11.5 49t-32.5 19q-28 0 -41 -30q-4 -10 -4 -31
q0 -39 13 -63t35 -24z" />
    <glyph glyph-name="seven.inferior" unicode="&#x2087;" horiz-adv-x="245" 
d="M11 243h227v-51l-134 -339h-78l131 321v1h-146v68z" />
    <glyph glyph-name="eight.inferior" unicode="&#x2088;" horiz-adv-x="285" 
d="M147 248q48 0 77.5 -27.5t29.5 -69.5q0 -55 -53 -87v-1q64 -34 64 -100q0 -53 -35 -84t-90 -31q-56 0 -88.5 30t-32.5 76q0 66 62 103v1q-50 31 -50 86q0 47 33 75.5t83 28.5zM144 -99q20 0 32 16t12 41q0 51 -52 72q-41 -20 -41 -68q0 -27 13 -44t36 -17zM143 196
q-18 0 -28.5 -14.5t-10.5 -35.5q0 -38 45 -59q14 7 23.5 23t9.5 34q0 52 -39 52z" />
    <glyph glyph-name="nine.inferior" unicode="&#x2089;" horiz-adv-x="278" 
d="M47 -152v64q23 0 37 2q32 6 55 25q30 26 41 80h-1q-23 -26 -63 -26q-42 0 -70.5 32.5t-28.5 85.5q0 55 33.5 96t88.5 41q57 0 88.5 -45t31.5 -117q0 -118 -65 -185q-40 -43 -109 -52q-13 -1 -38 -1zM135 190q-17 0 -29 -20t-12 -54q0 -30 11.5 -49.5t31.5 -19.5
q28 0 39 23q4 9 4 35q0 85 -45 85z" />
    <glyph glyph-name="parenleft.inferior" unicode="&#x208d;" horiz-adv-x="161" 
d="M101 282h57q-64 -99 -64 -244q0 -139 64 -243h-57q-69 96 -69 243q0 148 69 244z" />
    <glyph glyph-name="parenright.inferior" unicode="&#x208e;" horiz-adv-x="161" 
d="M60 -205h-57q64 102 64 245q0 140 -64 242h57q70 -95 70 -243q0 -144 -70 -244z" />
    <glyph glyph-name="dong" unicode="&#x20ab;" horiz-adv-x="408" 
d="M71 108h274v-69h-274v69zM250 657h92v-62h42v-58h-42v-286q0 -17 2 -54t2 -41h-80l-5 42h-3q-27 -47 -85 -47q-59 0 -92 49t-33 128q0 86 37.5 133t91.5 47q47 0 72 -38h1v67h-92v58h92v62zM250 281v88q0 14 -1 21q-3 20 -16.5 34.5t-31.5 14.5q-31 0 -45.5 -31
t-14.5 -80q0 -51 15 -80t43 -29q35 0 48 40q3 9 3 22z" />
    <glyph glyph-name="Euro" unicode="&#x20ac;" horiz-adv-x="408" 
d="M377 104l14 -87q-47 -25 -103 -25q-93 0 -150 69q-55 65 -67 184h-50v58h46v13v39h-46v58h52q12 99 62 163q60 82 163 82q48 0 88 -22l-19 -88q-29 18 -67 18q-52 0 -80 -40q-30 -35 -40 -113h161v-58h-166q-1 -11 -1 -37v-15h167v-58h-163q7 -78 34 -116q30 -45 88 -45
q37 0 77 20z" />
    <glyph glyph-name="uni2113" unicode="&#x2113;" horiz-adv-x="428" 
d="M197 485v-134q76 110 76 210q0 65 -34 65q-42 0 -42 -141zM359 133l46 -50q-26 -45 -69.5 -69.5t-94.5 -24.5q-144 0 -149 175v8q-22 -18 -43 -33l-29 55q48 36 72 60v240q0 112 39 164t102 52q53 0 85.5 -38t32.5 -107q0 -153 -154 -318v-36q0 -73 19 -101.5t54 -28.5
q45 0 89 52z" />
    <glyph glyph-name="uni2116" unicode="&#x2116;" horiz-adv-x="731" 
d="M578 647q60 0 91.5 -42.5t31.5 -121.5q0 -88 -36.5 -127t-88.5 -39q-60 0 -93.5 42.5t-33.5 121.5q0 80 36.5 123t92.5 43zM574 589q-25 0 -36 -34t-11 -73q0 -45 12 -76t36 -31q48 0 48 107t-49 107zM684 221h-218v57h218v-57zM151 0h-92v660h97l98 -283
q50 -144 70 -210h2q-10 170 -10 304v189h91v-660h-98l-99 282q-30 86 -65 210h-2q8 -154 8 -307v-185z" />
    <glyph glyph-name="trademark" unicode="&#x2122;" horiz-adv-x="525" 
d="M25 674h185v-55h-60v-217h-65v217h-60v55zM509 402h-59l-6 137q-1 14 -1.5 45.5t-0.5 47.5h-2q-9 -55 -17 -95l-28 -131h-60l-26 134l-14 92h-2q-3 -91 -3 -93l-6 -137h-57l14 272h94l22 -94q9 -53 12 -79h1q2 16 13 78l24 95h88z" />
    <glyph glyph-name="Omega" unicode="&#x2126;" horiz-adv-x="505" 
d="M380 92v-4h96v-88h-197v67q33 40 54.5 119t20.5 172q0 60 -9.5 110t-33 85.5t-58.5 35.5q-34 0 -58 -34.5t-34.5 -85t-10.5 -111.5q0 -86 23 -169.5t53 -121.5v-67h-197v88h95v4q-85 125 -85 284q0 136 60.5 221t159.5 85q100 0 152.5 -85.5t52.5 -213.5q0 -85 -24 -162
t-60 -129z" />
    <glyph glyph-name="estimated" unicode="&#x212e;" horiz-adv-x="817" 
d="M782 316h-605q-5 0 -5 -4v-183q0 -10 9 -21q93 -99 229 -99q145 0 240 111h55q-52 -61 -130 -96t-166 -35q-155 0 -264.5 98.5t-109.5 237.5t109.5 237.5t264.5 98.5t264 -98.5t109 -237.5v-9zM646 340v184q0 12 -10 22q-95 95 -226 95q-133 0 -228 -98q-10 -10 -10 -23
v-180q0 -5 5 -5h464q5 0 5 5z" />
    <glyph glyph-name="partialdiff" unicode="&#x2202;" horiz-adv-x="375" 
d="M74 615l-31 72q69 45 140 45q92 0 158 -89t66 -254q0 -196 -65.5 -296.5t-156.5 -100.5q-74 0 -117.5 56t-43.5 153q0 113 52.5 181.5t128.5 68.5q63 0 96 -49h1v14q0 109 -39.5 167.5t-96.5 58.5q-55 0 -92 -27zM195 80q38 0 67.5 68.5t32.5 161.5q-23 56 -68 56
q-41 0 -69 -49.5t-28 -120.5q0 -59 18 -87.5t47 -28.5z" />
    <glyph glyph-name="Delta" unicode="&#x2206;" horiz-adv-x="434" 
d="M416 0h-397v56l145 597h115l137 -595v-58zM311 91l-57 263q-22 100 -34 182h-3q-7 -45 -35 -177l-59 -268h188z" />
    <glyph glyph-name="product" unicode="&#x220f;" horiz-adv-x="475" 
d="M465 557h-62v-647h-98v647h-141v-647h-98v647h-62v93h461v-93z" />
    <glyph glyph-name="summation" unicode="&#x2211;" horiz-adv-x="398" 
d="M392 -90h-380v67l170 304l-164 301v68h356v-92h-227v-3l143 -268l-157 -280v-4h259v-93z" />
    <glyph glyph-name="minus" unicode="&#x2212;" horiz-adv-x="596" 
d="M40 302h516v-70h-516v70z" />
    <glyph glyph-name="uni2215" unicode="&#x2215;" horiz-adv-x="114" 
d="M-85 -8h-60l345 666h59z" />
    <glyph glyph-name="uni2219" unicode="&#x2219;" horiz-adv-x="216" 
d="M107 192q-27 0 -45.5 20.5t-18.5 52.5q0 31 19 52t46 21q28 0 46.5 -20t18.5 -53t-18 -53t-48 -20z" />
    <glyph glyph-name="radical" unicode="&#x221a;" horiz-adv-x="536" 
d="M522 831l-192 -915h-75l-125 417l-73 -26l-17 54l144 53l85 -302q16 -56 20 -90h1q5 49 15 93l143 716h74z" />
    <glyph glyph-name="infinity" unicode="&#x221e;" horiz-adv-x="736" 
d="M545 110q-34 0 -70.5 19.5t-53 34.5l-54.5 51q-60 -59 -89 -77q-46 -28 -96 -28q-66 0 -107.5 43.5t-41.5 109.5q0 64 44.5 109.5t112.5 45.5q26 0 50.5 -8t50.5 -28.5t38 -31.5l40 -38q61 61 92 79q44 27 93 27q66 0 107.5 -43.5t41.5 -111.5q0 -63 -45 -108t-113 -45z
M546 179q35 0 59 25t24 59q0 37 -23 61.5t-58 24.5q-25 0 -52.5 -16t-41 -28.5t-40.5 -40.5l21.5 -21.5t25.5 -24t24 -19t30 -16t31 -4.5zM189 179q24 0 52 15.5t40.5 27.5l40.5 40l-26.5 26.5t-33.5 31.5t-31 18.5t-40 10.5q-36 0 -60 -25t-24 -61t23 -60t59 -24z" />
    <glyph glyph-name="integral" unicode="&#x222b;" horiz-adv-x="330" 
d="M307 792l-12 -69q-16 4 -30 4q-23 0 -39 -26q-21 -31 -21 -152q0 -73 4 -225t4 -234q0 -137 -33 -190q-32 -55 -102 -55q-29 0 -52 9l14 72q20 -5 28 -5q25 0 38 20q21 33 21 147q0 82 -4 237t-4 231q0 80 11 126.5t38 76.5q36 40 94 40q28 0 45 -7z" />
    <glyph glyph-name="approxequal" unicode="&#x2248;" horiz-adv-x="596" 
d="M537 417l34 -53q-68 -72 -152 -72q-17 0 -32.5 2t-30.5 7l-23.5 8t-23.5 10t-19 9q-3 1 -22 10t-28 12.5t-28 7.5t-37 4q-60 0 -119 -55l-34 54q69 71 153 71q21 0 42.5 -4.5t31 -7.5t31.5 -13t24 -11q3 -1 22 -10t28 -12.5t28 -7.5t37 -4q61 0 118 55zM541 214l34 -53
q-68 -72 -153 -72q-21 0 -42.5 4.5t-31 7.5t-31.5 13t-24 11q-3 1 -22 10t-28 12.5t-28 7.5t-37 4q-61 0 -118 -55l-35 54q69 71 153 71q17 0 32.5 -2t30.5 -7l23.5 -8t23.5 -10t19 -9q3 -1 22 -10t28 -12.5t28 -7.5t37 -4q60 0 119 55z" />
    <glyph glyph-name="notequal" unicode="&#x2260;" horiz-adv-x="596" 
d="M556 132h-309l-72 -116h-75l74 116h-134v70h178l85 133h-263v70h308l72 116h74l-73 -116h135v-70h-180l-85 -133h265v-70z" />
    <glyph glyph-name="lessequal" unicode="&#x2264;" horiz-adv-x="596" 
d="M533 105l-469 187v70l469 187v-77l-374 -144v-2l374 -145v-76zM533 0h-469v66h469v-66z" />
    <glyph glyph-name="greaterequal" unicode="&#x2265;" horiz-adv-x="596" 
d="M533 292l-469 -187v76l373 145v2l-373 144v77l469 -187v-70zM533 0h-469v66h469v-66z" />
    <glyph glyph-name="lozenge" unicode="&#x25ca;" horiz-adv-x="488" 
d="M444 325l-163 -349h-75l-163 349l163 349h75zM358 323l-104 235q-9 25 -11 31h-2q-2 -6 -11 -31l-101 -231l104 -235q8 -23 10 -31h3q2 6 11 31z" />
    <glyph glyph-name="G_tildecomb" unicode="&#xe000;" horiz-adv-x="456" 
d="M414 366v-348q-58 -24 -131 -24q-108 0 -171 66q-86 89 -84 270q1 91 24.5 161t63 110t86 59.5t98.5 19.5q66 0 104 -20l-21 -92q-29 16 -77 16q-73 0 -120 -61t-47 -194q0 -127 40.5 -185.5t100.5 -58.5q25 0 35 5v188h-72v88h171zM208 718h-51q-1 49 16 77.5t47 28.5
q24 0 50 -18q26 -17 38 -17q21 0 25 37h50q3 -103 -66 -103q-25 0 -51 16q-25 16 -35 16q-20 0 -23 -37z" />
    <glyph glyph-name="M_uni0302" unicode="&#xe001;" horiz-adv-x="620" 
d="M482 0l-13 260q-8 155 -7 242h-3q-18 -102 -47 -220l-70 -274h-73l-66 267q-30 112 -48 227h-3q-1 -88 -9 -245l-12 -257h-93l45 674h113l65 -273q38 -156 51 -234h2q14 89 47 234l63 273h115l40 -674h-97zM265 814h86l86 -104h-83l-45 53h-2l-44 -53h-81z" />
    <glyph glyph-name="N_uni0302" unicode="&#xe002;" horiz-adv-x="493" 
d="M153 0h-94v674h98l114 -288q57 -145 79 -213h2q-12 172 -12 311v190h94v-674h-98l-115 287q-50 123 -74 214h-2q8 -125 8 -313v-188zM202 814h86l86 -104h-83l-45 53h-2l-44 -53h-81z" />
    <glyph glyph-name="g_tildecomb" unicode="&#xe005;" horiz-adv-x="425" 
d="M348 334v-276q0 -83 -13 -129.5t-41 -75.5q-51 -53 -145 -53q-66 0 -116 24l22 82q42 -21 92 -21q95 0 95 132v38h-2q-26 -53 -90 -53q-71 0 -109.5 68t-38.5 170q0 120 46.5 187t112.5 67q59 0 90 -59h2l6 52h94q-5 -67 -5 -153zM242 178v135q0 19 -5 36q-15 55 -54 55
q-37 0 -56 -44.5t-19 -116.5q0 -76 20.5 -116t52.5 -40q40 0 55 50q6 16 6 41zM148 559h-52q0 47 17.5 77t49.5 30q20 0 54 -18q26 -16 38 -16q11 0 16.5 7.5t6.5 29.5h50q0 -103 -67 -103q-19 0 -51 16q-4 2 -10 6t-10 6t-8.5 3.5t-9.5 1.5q-22 0 -24 -40z" />
    <glyph glyph-name="m_uni0302" unicode="&#xe006;" horiz-adv-x="653" 
d="M49 0v350q0 51 -4 137h93l5 -59h2q43 66 114 66q78 0 105 -70h2q18 32 48 52q30 18 68 18q122 0 122 -180v-314h-106v294q0 52 -11.5 81.5t-43.5 29.5q-45 0 -59 -57q-4 -12 -4 -38v-310h-106v311q0 94 -55 94q-20 0 -37 -15.5t-23 -43.5q-4 -22 -4 -39v-307h-106z
M290 686h74l82 -138h-75l-43 83h-2l-43 -83h-76z" />
    <glyph glyph-name="n_uni0302" unicode="&#xe007;" horiz-adv-x="434" 
d="M181 686h74l82 -138h-75l-43 83h-2l-43 -83h-76zM49 0v350q0 51 -4 137h93l5 -58h2q38 65 115 65q61 0 93 -45.5t32 -130.5v-318h-107v308q0 96 -57 96q-20 0 -36.5 -15.5t-23.5 -43.5q-5 -18 -5 -45v-300h-107z" />
    <glyph glyph-name="zero.slashfitted" unicode="&#xe008;" horiz-adv-x="408" 
d="M135 213l123 307q-18 47 -53 47q-79 0 -79 -242q0 -59 9 -112zM273 439l-122 -312q18 -44 52 -44q79 0 79 242q0 60 -9 114zM376 652l-38 -77q45 -85 45 -248q0 -168 -50 -251.5t-130 -83.5q-62 0 -102 45l-26 -53l-42 25l37 72q-45 80 -45 242q0 160 47 247.5t137 87.5
q59 0 97 -40l27 57z" />
    <glyph glyph-name="dong.alt" unicode="&#xe184;" horiz-adv-x="408" 
d="M250 657h92v-62h42v-58h-42v-286q0 -17 2 -54t2 -41h-80l-5 42h-3q-11 -20 -34 -33.5t-51 -13.5q-59 0 -92 49t-33 128q0 86 37.5 133t91.5 47q47 0 72 -38h1v67h-92v58h92v62zM250 281v88q0 14 -1 21q-3 20 -16.5 34.5t-32.5 14.5q-30 0 -44.5 -31t-14.5 -80
q0 -51 15 -80t42 -29q36 0 49 40q3 9 3 22z" />
    <glyph glyph-name="breve_acutecomb" unicode="&#xe300;" 
d="M177 753h89l-95 -121h-58zM30 649h53q3 -26 20.5 -41.5t45.5 -15.5q31 0 49 15.5t20 41.5h52q1 -52 -33.5 -85.5t-88.5 -33.5q-52 0 -85.5 33.5t-32.5 85.5z" />
    <glyph glyph-name="breve_gravecomb" unicode="&#xe301;" 
d="M32 753h89l64 -121h-58zM30 649h53q3 -26 20.5 -41.5t45.5 -15.5q31 0 49 15.5t20 41.5h52q1 -52 -33.5 -85t-88.5 -33q-52 0 -85.5 33t-32.5 85z" />
    <glyph glyph-name="breve_hookabovecomb" unicode="&#xe302;" 
d="M167 622l-49 10q6 16 24.5 38t18.5 37q0 11 -7.5 19t-19.5 8q-18 0 -37 -29l-32 25q28 60 87 60q32 0 54 -20t22 -49q0 -25 -27.5 -56t-33.5 -43zM30 649h53q3 -26 20.5 -41.5t45.5 -15.5q31 0 48.5 15.5t19.5 41.5h52q1 -52 -33.5 -85t-87.5 -33q-52 0 -85.5 33
t-32.5 85z" />
    <glyph glyph-name="breve_tildecomb" unicode="&#xe303;" 
d="M87 684h-52q2 35 18.5 60t47.5 25q20 0 52 -17q28 -15 40 -15q22 0 23 34h50q0 -45 -17.5 -69.5t-49.5 -24.5q-19 0 -50 18q-32 14 -39 14q-20 0 -23 -25zM31 650h52q2 -27 20.5 -44t45.5 -17q30 0 48 17.5t20 43.5h51q1 -52 -33 -85t-87 -33q-52 0 -85 33t-32 85z" />
    <glyph glyph-name="circumflex_acutecomb" unicode="&#xe304;" 
d="M113 686h74l67 -138h-71l-32 82h-3l-31 -82h-72zM285 757h83l-85 -126h-52z" />
    <glyph glyph-name="circumflex_gravecomb" unicode="&#xe305;" 
d="M182 758h83l44 -126h-51zM113 686h74l68 -138h-71l-32 82h-3l-32 -82h-72z" />
    <glyph glyph-name="circumflex_hookabovecomb" unicode="&#xe306;" 
d="M113 686h74l68 -138h-71l-32 82h-3l-32 -82h-72zM284 620l-48 10q6 17 24 39t18 37q0 12 -7.5 20t-19.5 8q-18 0 -37 -31l-32 26q31 60 88 60q31 0 52.5 -20t21.5 -49q0 -19 -9.5 -34.5t-26 -33t-24.5 -32.5z" />
    <glyph glyph-name="circumflex_tildecomb" unicode="&#xe307;" 
d="M112 656h76l79 -108h-76l-40 59h-2l-39 -59h-77zM88 669h-50q-1 38 16.5 65.5t49.5 27.5q20 0 52 -17q24 -15 40 -15q22 0 23 33h49q0 -93 -66 -93q-16 0 -50 17q-30 15 -39 15q-21 0 -25 -33z" />
    <glyph glyph-name="space_dotbelowcomb" unicode="&#xe308;" 
d="M149 -80q22 0 37 -15.5t15 -39.5t-15 -39.5t-38 -15.5q-21 0 -36.5 15.5t-15.5 39.5t15.5 39.5t37.5 15.5z" />
    <glyph glyph-name="space_hookabovecomb" unicode="&#xe309;" 
d="M165 526l-55 12q6 21 28.5 50t22.5 48q0 13 -8.5 22t-21.5 9q-22 0 -38 -32l-36 28q30 65 93 65q35 0 58.5 -22.5t23.5 -54.5q0 -24 -11.5 -44t-29.5 -41.5t-26 -39.5z" />
    <glyph glyph-name="space_uni031B" unicode="&#xe310;" 
d="M172 428v59h8q22 0 30.5 6t8.5 23q0 32 -17 59l77 11q19 -36 19 -77q0 -36 -23.5 -58.5t-70.5 -22.5h-32z" />
    <glyph glyph-name="breve_acutecomb.cap" unicode="&#xe311;" 
d="M37 796h49q13 -44 64 -44q55 0 66 44h50q-6 -47 -37.5 -73.5t-78.5 -26.5q-48 0 -78 26t-35 74zM179 893h99l-105 -108h-57z" />
    <glyph glyph-name="breve_gravecomb.cap" unicode="&#xe312;" 
d="M26 893h99l63 -108h-57zM35 796h49q13 -44 64 -44q56 0 67 44h49q-5 -47 -37 -73.5t-79 -26.5t-77.5 26.5t-35.5 73.5z" />
    <glyph glyph-name="breve_hookabovecomb.cap" unicode="&#xe313;" 
d="M165 772l-44 11q6 17 25 39.5t19 37.5q0 12 -7.5 20t-18.5 8q-20 0 -39 -31l-32 24q28 60 89 60q30 0 50.5 -19t20.5 -47q0 -21 -10.5 -37t-27.5 -33.5t-25 -32.5zM37 795h50q11 -44 64 -44q54 0 66 44h49q-5 -47 -36.5 -73t-79.5 -26q-47 0 -77.5 26t-35.5 73z" />
    <glyph glyph-name="breve_tildecomb.cap" unicode="&#xe314;" 
d="M89 827h-51q2 35 18 60t47 25q20 0 52 -17q28 -15 40 -15q22 0 23 33h50q0 -93 -67 -93q-19 0 -50 18q-30 14 -39 14q-18 0 -23 -25zM35 796h49q13 -44 64 -44q55 0 66 44h50q-6 -47 -37.5 -73.5t-79.5 -26.5q-47 0 -77 26t-35 74z" />
    <glyph glyph-name="circumflex_acutecomb.cap" unicode="&#xe315;" 
d="M114 814h78l75 -104h-75l-38 56h-2l-38 -56h-73zM291 894h99l-105 -109h-57z" />
    <glyph glyph-name="circumflex_gravecomb.cap" unicode="&#xe316;" 
d="M167 879h99l63 -108h-57zM110 814h78l75 -104h-75l-38 56h-2l-38 -56h-73z" />
    <glyph glyph-name="circumflex_hookabovecomb.cap" unicode="&#xe317;" 
d="M113 814h78l76 -104h-76l-38 56h-2l-38 -56h-73zM287 752l-44 11q6 16 25 39t19 38q0 12 -7.5 20t-18.5 8q-20 0 -39 -31l-32 24q28 60 89 60q30 0 50.5 -19t20.5 -47q0 -27 -29 -60.5t-34 -42.5z" />
    <glyph glyph-name="circumflex_tildecomb.cap" unicode="&#xe318;" 
d="M109 814h86l86 -104h-83l-45 53h-2l-44 -53h-81zM92 828h-51q-1 38 16.5 65t49.5 27q20 0 52 -17q26 -14 40 -14q22 0 23 33h50q0 -93 -67 -93q-16 0 -50 17q-30 15 -39 15q-21 0 -24 -33z" />
    <glyph glyph-name="space_dotbelowcomb.cap" unicode="&#xe319;" 
d="M150 -190q-22 0 -38 16.5t-16 38.5q0 23 16 39t39 16t38.5 -16t15.5 -39t-16 -39t-39 -16z" />
    <glyph glyph-name="space_hookabovecomb.cap" unicode="&#xe320;" 
d="M165 706l-53 10q6 18 25.5 41t19.5 39q0 13 -7.5 21t-20.5 8q-19 0 -38 -32l-35 28q30 64 94 64q33 0 55.5 -21t22.5 -52q0 -27 -28.5 -61t-34.5 -45z" />
    <glyph glyph-name="space_uni031B.cap" unicode="&#xe321;" 
d="M175 610v64h7q23 0 31 5.5t8 22.5q0 31 -15 59l77 11q17 -37 17 -76q0 -86 -95 -86h-30z" />
    <glyph glyph-name="dotaccent.cap" unicode="&#xefed;" 
d="M150 721q-22 0 -38 16.5t-16 38.5q0 23 16 39t39 16t38.5 -16t15.5 -39t-16 -39t-39 -16z" />
    <glyph glyph-name="breve.cap" unicode="&#xefee;" 
d="M35 824h59q5 -43 55 -43q51 0 56 43h59q0 -49 -30 -78t-84 -29q-55 0 -85 28.5t-30 78.5z" />
    <glyph glyph-name="ogonek.cap" unicode="&#xeff1;" 
d="M107 5h68q-34 -57 -34 -92q0 -19 12.5 -31.5t28.5 -12.5q21 0 40 7l14 -55q-32 -24 -81 -24q-44 0 -67.5 24t-23.5 65q0 54 43 119z" />
    <glyph glyph-name="cedilla.cap" unicode="&#xeff2;" 
d="M136 5h60l-26 -52q27 -4 46.5 -24t19.5 -48q0 -42 -29.5 -62.5t-71.5 -20.5q-43 0 -72 18l18 49q28 -14 51 -14q34 0 34 28q0 33 -68 40z" />
    <glyph glyph-name="ring.cap" unicode="&#xeff3;" horiz-adv-x="400" 
d="M203 875q48 0 73.5 -26t25.5 -64q0 -37 -26.5 -63.5t-73.5 -26.5q-48 0 -74 26t-26 62q0 38 27 65t74 27zM201 833q-19 0 -29.5 -15t-10.5 -34q0 -18 10.5 -32t30.5 -14t30.5 13.5t10.5 33.5t-11 34t-31 14z" />
    </font>
</defs>
</svg>
